<svg version="1" xmlns="http://www.w3.org/2000/svg" width="1258.667" height="1258.667" viewBox="0 0 944.000000 944.000000"><path d="M934 141.1c-3 1.1-6.3 2.2-7.2 2.4-1 .2-7.6 2.2-14.8 4.5-7.2 2.3-13.9 4.3-15 4.5-1 .2-2.7.8-3.7 1.3-1 .6-2 1-2.3 1-.6-.1-2.9.6-13 3.7-20.4 6.2-28.6 8.9-29.2 9.5-1 .8-1-.5-.4 39 .8 49.4 1.5 96.4 2.1 151.5l.5 49-3-7.5c-1.7-4.1-3.8-9-4.6-10.9-.9-1.8-1.7-4-1.8-4.7-.1-.8-.8-2-1.4-2.6-.7-.7-1.2-1.8-1.2-2.5s-1.1-3.6-2.4-6.5c-1.3-2.9-3.9-8.9-5.6-13.3-3.3-8.2-4.3-10.6-7.9-18.7-1.1-2.6-2.1-5-2.1-5.3 0-.3-.8-2.4-1.9-4.8-4.3-9.8-10.1-23.5-10.1-24.1 0-.3-.9-2.6-2-5.1-1.1-2.5-2.9-6.5-4-9s-2-4.7-2-5c0-.2-1.1-2.9-2.5-5.9-1.4-3-2.5-5.8-2.5-6.1 0-.3-.9-2.7-2.1-5.3-2.5-5.5-4.8-10.9-5.9-13.7-.4-1.1-2.2-5.3-3.9-9.3-1.7-4-3.1-7.9-3.1-8.6 0-.8-.3-1.6-.7-1.8-.5-.2-1.9-3-3.2-6.3-1.3-3.3-3.2-7.9-4.2-10.2-1-2.4-1.9-4.5-1.9-4.8 0-.2-1.3-3.3-2.8-6.7-1.6-3.5-3.5-7.9-4.2-9.8-.7-1.9-1.5-3.7-1.6-3.9-.3-.3-47.4 14.7-53.9 17.2-1.6.7-3.2 1.2-3.5 1.2-.3.1-9.9 3.2-21.5 6.9-11.5 3.8-21.2 6.9-21.5 6.9-.3.1-2.5.9-5 1.8l-4.5 1.7.1 7.4c.1 4 .5 13.1.9 20.3.3 7.1.8 16.6 1 21 .2 4.4.7 13.6 1 20.5.4 6.9.8 16.1 1 20.5.3 8 1.1 22.5 2 40.5.3 5.2.7 15.1 1 22 .3 6.9.5 12.5.6 12.5 0 0 .2 3.1.4 7 .2 3.8.6 12.4 1 19 .3 6.6.8 16.9 1.1 23 .3 6 .6 13.2.8 15.8.2 5.2-.8 7.1-1.9 3.5-.8-2.3-4.4-10.2-13.1-28.6-3-6.3-5.4-11.5-5.4-11.7 0-.2-2-4.5-4.4-9.7-2.4-5.1-5.5-11.8-6.8-14.8-1.4-3-4-8.7-5.8-12.5-1.8-3.9-4.4-9.5-5.8-12.5-1.3-3-4.9-10.6-7.8-16.8-3-6.3-5.4-11.5-5.4-11.7 0-.3-2.6-6-5.8-12.7-3.2-6.8-12.3-26.4-20.2-43.6l-14.4-31.4-3.1.7c-4.9 1-5.7 1.3-11.2 3.4-2.9 1-5.3 1.7-5.3 1.5 0-.2-1.7.3-3.7 1-2.1.8-8.5 2.9-14.3 4.6-5.8 1.8-11.6 3.6-13 4.1-1.4.5-3.4 1.1-4.5 1.4-1.1.2-3.6.9-5.5 1.6-5.4 1.9-6.5 2.2-7 2.4-.3 0-3.9 1.1-8 2.3-4.1 1.3-10.1 3-13.2 4-3.2.9-5.8 2.1-5.8 2.6 0 .9 6.8 14.5 22 44.1 12.8 24.9 16 31.4 15.9 32.1 0 .4.3 1 .8 1.3.4.3 5.2 9.4 10.7 20.1 5.4 10.7 13.6 26.7 18.1 35.5 12.3 24 14.5 28.5 14.3 28.8-.2.2.3 1.1.9 1.9 1.3 1.5 8.3 14.6 8.3 15.4 0 .2-1.7-.3-3.7-1.2-5.2-2.2-12.3-4.3-12.3-3.7 0 .3-.7 0-1.5-.7s-1.5-1-1.5-.8c0 .3-2.5-.1-5.6-.8-5.5-1.2-28.2-1.3-33-.1-1.2.3-3.8.8-5.9 1.1-5.8 1-18.3 5.4-26 9.3-15.8 8.1-29 21.5-37.4 38.4-5.2 10.4-5.5 10.5-10.6 5.6-3.1-2.9-15.2-10.7-19.3-12.4-2-.8-5-2.1-6.7-2.9-9.2-4.3-31.3-6.2-45.5-4-30.3 4.8-56.3 21.9-70.6 46.4-8.5 14.5-12.4 28.1-12.7 43.8-.1 4.6-.4 8.4-.8 8.4s-3.4-2.6-6.7-5.8c-3.2-3.1-11.6-11.1-18.6-17.7-21.1-19.9-19.7-18.3-19-21.3.4-1.5.9-3.2 1.3-3.7.3-.6.6-1.6.7-2.3.2-1.1 7.4-22.6 9.1-27.2.3-.8.7-2.2.9-3 .2-.8.7-2.3 1.3-3.5.5-1.1 5.1-14.4 10.1-29.5 5.1-15.1 12.6-37.4 16.7-49.5 4.1-12.1 7.6-22.7 7.8-23.5.2-.8.4-1.5.5-1.5.1 0 6-16.8 6.4-18.5.2-.8 3.6-10.9 7.5-22.4 4-11.5 7-21.1 6.7-21.3-.4-.4-16.2 4.1-23.6 6.7-1.4.5-5.9 1.8-10 3s-8.2 2.4-9 2.7c-.8.3-1.9.7-2.5.8-.5.2-6.2 1.9-12.5 3.8-6.3 2-14.6 4.5-18.5 5.7-32.8 10.1-32.4 9.9-33.1 12.8-.3 1.5-1.7 6.3-3 10.7-1.3 4.4-2.6 8.9-2.9 10-.2 1.1-1.5 5.8-2.9 10.5-1.3 4.7-4.7 16.6-7.6 26.5-2.8 9.9-6 21.1-7.2 25-1.2 3.8-2.3 7.9-2.5 9-.2 1.1-.6 2.7-1 3.5-.3.8-.7 1.9-.8 2.5-.7 2.8-3.9 14-9 31.5-3.1 10.7-5.8 20.2-6 21-.2.8-1.8 6.2-3.5 12-3.9 13.1-3.5 11.8-4.5 16.3-.4 2-1.2 4-1.9 4.4-.6.3-.8.3-.5-.1.4-.4-.2-3.9-1.3-7.9s-2.1-8.1-2.3-9.2c-.2-1.1-.6-2.9-.8-4-1-4-5.9-24.4-9.3-39-1.9-8.3-3.9-16.6-4.4-18.5-1.6-6.4-3.1-12.5-3.4-14.5-.2-1.1-1.2-4.9-2.1-8.5l-2-8c-.2-.8-1.3-5.6-2.4-10.5-1.2-5-2.4-10.1-2.7-11.5-.2-1.4-.7-3.3-1-4.2-.3-.9-.7-2.5-.9-3.5-1.3-6.4-3.5-14.6-3.9-15.1-.6-.5-12.7 2.5-15.6 3.8-1.5.8-15.6 5.2-17.6 5.6-.6.1-5.1 1.4-10 3-4.9 1.5-9.1 2.9-9.4 2.9-.6.1-15.7 4.8-25.5 7.9-3.8 1.3-9.3 2.9-12.2 3.6-2.8.7-4.9 1.8-4.7 2.4.2.6.6 2.2.8 3.6.5 2.7 1.3 6.2 2.1 9.7.3 1.3.7 3.3 1 4.5.2 1.3.9 4.3 1.5 6.8.5 2.5 1.2 5.6 1.5 7 .2 1.4 1.4 6.8 2.6 12 1.1 5.2 2.3 10.6 2.5 12 .3 1.4.7 3.3 1 4.2.3 1 .8 3 1.1 4.5.3 1.6.6 3.2.7 3.8.2.5.6 2.8 1 5s1.2 5.3 1.6 7c.5 1.6 1.1 4.3 1.4 6 .3 1.6 1.2 5.7 2 9s1.7 7.7 2 9.9c.4 2.1.8 4.1 1.1 4.5.2.4.6 1.8.8 3.2.3 1.3 1.4 6.7 2.5 11.9 1.2 5.2 2.4 11 2.7 12.9.3 1.9.8 3.7 1 4.1.2.4.7 2.1 1 3.8.3 1.7 1.2 6.2 2 9.9.9 3.7 1.7 7.7 1.9 8.8.2 1.1 1.1 5.4 2.1 9.5.9 4.1 1.8 8.4 2.1 9.5.2 1.1.6 2.9.8 4 2.6 11.6 4.8 21.8 5.6 25.5.5 2.5 1.1 5.2 1.4 6 .3.8.7 2.8 1 4.5.3 1.6 1.2 6.1 2.1 10 1.5 6.7 1.8 8 3 13.5.3 1.4.8 3.6 1.1 5 .3 1.4.7 3.4.9 4.5.2 1.1.7 3.1 1 4.5.4 1.4.8 3.8 1.1 5.5.2 1.6.7 3.7 1 4.5.6 1.4 4 16.5 5 22 .2 1.4 1.3 6.5 2.4 11.5 1.1 4.9 2.2 10 2.5 11.3.2 1.3.6 3.1.9 4 .3.9.7 2.8 1 4.2.5 2.7 1 4.9 2.6 12.5 1.1 5.1 3.2 12.5 3.5 12.5.1 0 2.8-.9 6.1-2 3.2-1.1 6.6-2.2 7.5-2.4.9-.3 3.6-1.1 6-1.9 4.7-1.6 11.7-3.6 13.4-3.8.6 0 1.5-.5 2-.9.6-.5 2.2-1.1 3.5-1.3 1.4-.3 4.5-1.2 7-2 12.8-4.3 31.5-10 31.5-9.7 0 .2 1-.2 2.3-.9 1.3-.7 3.1-1.4 4-1.6 4.1-.8 12.8-3.9 13.4-4.9.4-.6.2-1.6-.4-2.3-.6-.7-.8-1.3-.5-1.3.3 0 .1-1.7-.4-3.8-.5-2-1.2-4.6-1.4-5.7-.3-1.1-.9-4-1.5-6.5-.5-2.5-1.2-5.6-1.5-7-.3-1.4-1.4-6.6-2.5-11.5-1.1-5-2.2-10.1-2.4-11.5-.3-1.4-1.2-5.7-2.1-9.5-.9-3.9-1.8-7.7-2-8.5-.5-2.2-4.6-20.9-5.1-23.4-.3-1.1-.7-3.2-1-4.6-.3-1.4-.7-3.3-1-4.2-.3-.9-.7-2.7-.9-4-1.4-7.2-2.8-13.5-3.3-14.8-.3-.8-.7-2.4-.9-3.5-.3-2-2.5-12.5-2.8-13.5-.3-1-1.6-7.6-1.8-9-.2-.8-.6-2.1-1-2.7-.5-.7-.6-1.7-.2-2.2.5-.9 5.5 4 32.2 31.6 10.9 11.2 45.7 47.1 71.8 74l17 17.5L286 719c12.9-4 24-7.3 24.5-7.4.6-.1 1.6-.5 2.3-.9.6-.5 1.2-.6 1.2-.3s1.7-.2 3.7-1.1c2.1-.8 4.7-1.7 5.8-1.9 1.1-.2 7.8-2.2 14.8-4.4 13.5-4.2 15.7-4.6 17.2-3.1.6.5 2.7 1.9 4.7 3 2.1 1.2 5.3 2.9 7.1 4 6 3.3 21.8 11.6 42.2 22.1 23.3 11.9 40.8 21.1 46.2 24.1 2.1 1.2 6.1 3.4 8.9 4.9 2.8 1.6 7.6 4.2 10.7 6 9.4 5.3 17.8 3.7 23.5-4.3 1.3-1.7 6.2-8.8 10.9-15.7 4.8-6.9 9-12.7 9.3-13 .3-.3 1.7-2.1 3-4s2.9-3.8 3.5-4.2c.6-.5.6-.8 0-.8s-.6-.3.1-.8c.5-.4 3.7-4.3 6.9-8.7 3.3-4.4 6.3-8.5 6.8-9 .4-.6 3.5-4.6 6.7-9 3.3-4.4 6.7-8.9 7.5-10 .9-1.1 4-5.4 7-9.5s5.8-8 6.2-8.5c.5-.6 1.8-2.5 2.8-4.3 1.1-1.7 2.3-3.2 2.7-3.2.4 0 .8-.7.8-1.5s.4-1.5.9-1.5 1.2-.8 1.6-1.9c.3-1 1.7-3.1 3-4.7 1.4-1.6 2.5-3.5 2.5-4.2 0-.6.5-1.2 1-1.2.6 0 1-.4 1-.9s1.8-3.8 4-7.2c2.2-3.5 5.2-8.9 6.7-11.9s3.2-6.2 3.8-7c.6-.8 2.1-4 3.4-7 1.3-3 2.9-6.9 3.6-8.5 3.2-7.5 8-24.1 8.8-30.7.1-1.5.5-2.9.8-3.2.2-.3 4.9 8.4 10.3 19.2 5.5 10.8 10.1 19.9 10.2 20.1.2.2 6.1-1.3 13.3-3.4 7.1-2 13.5-3.8 14.3-3.9.7-.2 2-.6 2.8-.9 2.2-.9 29.3-8.7 31.9-9.2 1.1-.2 2.6-.7 3.1-1 .5-.3 1.8-.8 2.7-1 1-.2 5.9-1.5 10.8-3 10.9-3.3 21.5-6.3 27.3-7.8l4.4-1.1-.6-11.5c-.4-6.4-.9-14.8-1.1-18.6-.6-9-1.5-26.1-2-35-.2-3.9-.6-10.6-.9-15-.9-13.6-1.6-24.7-2-32.5-.2-4.1-.8-12.9-1.2-19.5-.4-6.6-.8-14.6-.8-17.7-.1-3.2-.3-5.8-.6-5.8s-.6-2.6-.6-5.8c-.2-6.3-1.2-27.2-1.9-36.7-.2-3.3-.7-10.5-1-16-.3-5.5-.8-12.7-1-16-.2-3.3-.7-10.7-1-16.5-.6-11.6-.3-11.5 4.3.5 1.3 3.3 3.2 7.8 4.2 10s2.8 6.5 3.9 9.5c2.3 5.6 2.8 6.9 5.4 13 .8 1.9 3.6 8.7 6.1 15 2.6 6.3 5.3 12.9 6.1 14.7.8 1.7 1.5 3.4 1.5 3.7 0 .3.8 2.5 1.9 4.9 1 2.3 2.8 6.7 4.1 9.7 1.3 3 2.9 6.9 3.6 8.7.8 1.7 1.4 3.4 1.4 3.7 0 .3 1 2.8 2.1 5.4 3.7 8.1 4.7 10.5 7.9 18.7 2.7 6.9 5.7 14.1 9.1 22 .5 1.1 4 9.9 7.9 19.5 3.9 9.6 8 19.4 9 21.7 1.1 2.4 2 4.9 2 5.6 0 .7.4 1.7.8 2.2.5.6 1.9 3.7 3.2 7 1.3 3.3 2.8 6.6 3.3 7.2.5.7.7 1.3.4 1.3-.5 0 4 11.1 6 14.5 1.1 1.9 1.2 1.9 8.4-.4 4-1.3 7.7-2.4 8.3-2.5 1.4-.3 27.5-8.5 29.6-9.3.8-.3 2-.7 2.5-.9.6-.1 5.5-1.7 11-3.4 5.5-1.8 12.8-4.1 16.2-5.1 3.5-1 6.7-2 7.3-2.4.5-.3 2-.8 3.2-1.1 2.8-.6 3.9-.9 5.8-1.7 3.7-1.4 8.7-2.9 11-3.3 1.3-.3 2.9-.9 3.6-1.5.6-.5 1.4-.6 1.7-.3.3.3.5-1.1.5-3.2 0-2.2.3-15.2.7-28.9.4-13.8.9-32 1.1-40.5.2-8.5.6-25 .8-36.5.6-23.3 1.2-48.2 2.1-80.5.3-11.8.8-28.9 1-38 .5-22.7 1.5-59.4 2-78 .2-8.5.7-26.3 1-39.5.4-13.2.7-25.7.8-27.8.3-4.4-.8-4.6-9.3-1.6zM537 490.5c3 .9 6 1.7 6.6 1.8 5.2 1.3 15.8 8.2 22 14.2 26.2 26 23.3 69.4-8 117.9-3.1 4.8-5.6 9.1-5.6 9.6 0 .6-.4 1-.8 1-.5 0-1.7 1.6-2.8 3.5-1 1.9-2.2 3.5-2.6 3.5-.5 0-.8.4-.8 1 0 1-13.5 19.8-17 23.7-1.1 1.2-2 2.5-2 2.8 0 .4-9.8 13.8-13.3 18-.4.5-5.2 7.1-10.7 14.5-5.4 7.4-10.5 14.2-11.3 15.1-.8.9-1.6 2-1.8 2.5-1.2 2.8-7.6 11.4-8.4 11.3-.5 0-4.1-1.7-8-3.8-3.8-2.1-13.5-7.2-21.5-11.2-8-4.1-14.7-7.6-15-7.9-.3-.3-6.8-3.6-14.5-7.5-7.7-3.8-15.2-7.8-16.7-8.8-1.6-1-2.8-1.6-2.8-1.3 0 .3-2.3-.8-5-2.4-2.8-1.7-5.5-3-6-3-.6 0-1-.5-1-1 0-.6-.5-1-1.1-1-1 0-22.4-12-28.4-16-26.9-17.7-42.3-33.4-51.2-52-5.7-12.1-7.2-18.6-6.8-31 .4-12.3 1.3-16.1 6.8-26.5 3.4-6.4 16.2-20 21.2-22.5 1.7-.8 3.2-1.7 3.5-2.1.7-.8 10.1-5 11.9-5.4.9-.2 3.6-.8 6.1-1.5 2.5-.7 6.1-1.4 8-1.5 1.9-.2 3.7-.4 4-.5 2.1-.8 13.9.1 18.7 1.3 6.5 1.7 16.3 6.7 20.3 10.4 1.4 1.3 2.9 2.3 3.3 2.3.5 0 6.1 5.4 12.5 11.9 10.7 10.9 12.1 12 16.2 12.6 5.7.8 12.2-1.6 15-5.4 1-1.5 3.9-9 6.4-16.6 6.2-18.7 10.1-25.8 19.6-35.4 5.5-5.6 19.5-13.1 25.5-13.7.6 0 2.8-.6 5-1.2 8.2-2.2 21.8-2.1 30.5.3z"/><path d="M506 500.9c-3.6 1.3-4.6 2.2-4.8 4.3-.5 3.8 3.2 6.1 7.7 4.8 1.8-.5 7-.8 11.5-.6 10.6.5 19.4 4 26.8 10.6 5 4.5 10.8 13.8 10.8 17.3 0 .8.8 2.1 1.8 3 4.2 3.8 9.8.4 8.8-5.3-.9-6-5.8-14.4-11.6-20-6.9-6.6-8.6-8-10-8-.5 0-1-.5-1-1 0-.6-.7-1-1.5-1-.9 0-2.7-.7-4-1.6-1.4-.9-2.5-1.3-2.5-1 0 .4-.8.2-1.8-.3-5.4-2.9-23.7-3.6-30.2-1.2zM322.3 557.7c-3.4 3.7-7.9 13.6-8.9 19.8-1.2 7.3-.6 16.5 1.1 19.2 2.9 4.4 9.9 2.1 9.5-3.3-1-14.5 0-19.3 5.7-28.6 2.8-4.5 2.9-6 .5-8.1-2.6-2.4-4.9-2.1-7.9 1z"/></svg>