<?xml version="1.0" encoding="UTF-8" standalone="no"?><!DOCTYPE svg PUBLIC "-//W3C//DTD SVG 1.1//EN" "http://www.w3.org/Graphics/SVG/1.1/DTD/svg11.dtd"><svg width="100%" height="100%" viewBox="0 0 100 100" version="1.1" xmlns="http://www.w3.org/2000/svg" xmlns:xlink="http://www.w3.org/1999/xlink" xml:space="preserve" xmlns:serif="http://www.serif.com/" style="fill-rule:evenodd;clip-rule:evenodd;stroke-linecap:round;stroke-linejoin:round;stroke-miterlimit:10;"><g><path d="M65.183,5l-34,0c-6.065,0 -11,4.935 -11,11l0,68c0,6.065 4.935,11 11,11l34,0c6.065,0 11,-4.935 11,-11l0,-68c0,-6.065 -4.935,-11 -11,-11Zm5,79c0,2.757 -2.243,5 -5,5l-34,0c-2.757,0 -5,-2.243 -5,-5l0,-68c0,-2.757 2.243,-5 5,-5l34,0c2.757,0 5,2.243 5,5l0,68Z" style="fill-rule:nonzero;"/><path d="M48.183,71.5c-3.866,0 -7,3.134 -7,7c0,3.866 3.134,7 7,7c3.866,0 7,-3.134 7,-7c0,-3.866 -3.134,-7 -7,-7Zm0,9c-1.103,0 -2,-0.897 -2,-2c0,-1.103 0.897,-2 2,-2c1.103,0 2,0.897 2,2c0,1.103 -0.898,2 -2,2Z" style="fill-rule:nonzero;"/><path d="M45.183,21l6,0c1.381,0 2.5,-1.119 2.5,-2.5c0,-1.381 -1.119,-2.5 -2.5,-2.5l-6,0c-1.381,0 -2.5,1.119 -2.5,2.5c0,1.381 1.119,2.5 2.5,2.5Z" style="fill-rule:nonzero;"/><g><path d="M51.163,58.997c3.198,0 5.79,-2.592 5.79,-5.789c0,-3.198 -2.592,-5.79 -5.79,-5.79c3.198,0 5.79,-2.592 5.79,-5.79c0,-3.197 -2.592,-5.789 -5.79,-5.789l-9.195,0l0,23.158l9.195,0Z" style="fill:none;fill-rule:nonzero;stroke:#000;stroke-width:5px;"/><path d="M48.077,31.677l0,31.437" style="fill:none;fill-rule:nonzero;stroke:#000;stroke-width:5px;"/><path d="M41.968,47.397l10.856,0" style="fill:none;fill-rule:nonzero;stroke:#000;stroke-width:5px;"/></g></g></svg>