<?xml version="1.0" encoding="UTF-8" standalone="no"?><!DOCTYPE svg PUBLIC "-//W3C//DTD SVG 1.1//EN" "http://www.w3.org/Graphics/SVG/1.1/DTD/svg11.dtd"><svg width="100%" height="100%" viewBox="0 0 1148 1148" version="1.1" xmlns="http://www.w3.org/2000/svg" xmlns:xlink="http://www.w3.org/1999/xlink" xml:space="preserve" xmlns:serif="http://www.serif.com/" style="fill-rule:evenodd;clip-rule:evenodd;stroke-linejoin:round;stroke-miterlimit:2;"><rect x="0" y="0" width="1148" height="1148" style="fill:#fff;"/><g><path d="M308,84l28,0l0,-28c-15.464,0 -28,12.536 -28,28Z" style="fill:#fc2513;fill-rule:nonzero;"/><path d="M350,84l-14,0l0,-14l0,-14l14,0c7.732,0 14,6.268 14,14c0,7.732 -6.268,14 -14,14Z" style="fill:#fc2513;fill-rule:nonzero;"/><path d="M392,84l28,0l0,-28c-15.464,0 -28,12.536 -28,28Z" style="fill:#fc2513;fill-rule:nonzero;"/><rect x="420" y="56" width="28" height="28" style="fill:#fc2513;"/><rect x="448" y="56" width="28" height="28" style="fill:#fc2513;"/><path d="M490,84l-14,0l0,-14l0,-14l14,0c7.732,0 14,6.268 14,14c0,7.732 -6.268,14 -14,14Z" style="fill:#fc2513;fill-rule:nonzero;"/><path d="M560,70l0,14c0,0 -9.531,0 -14,-0.001c-3.49,0.001 -14,0 -14,0l0,-13.999c0,-7.732 6.268,-14 14,-14c7.732,0 14,6.268 14,14Z" style="fill:#fc2513;fill-rule:nonzero;"/><path d="M644,84l28,0l0,-28c-15.464,0 -28,12.536 -28,28Z" style="fill:#fc2513;fill-rule:nonzero;"/><path d="M672,56l0,28l28,0c0,-15.464 -12.536,-28 -28,-28Z" style="fill:#fc2513;fill-rule:nonzero;"/><path d="M742,56c7.732,0 14,6.268 14,14c0,7.732 -6.268,14 -14,14c-7.732,0 -14,-6.268 -14,-14c0,-7.732 6.268,-14 14,-14Z" style="fill:#fc2513;fill-rule:nonzero;"/><path d="M784,84l28,0l0,-28c-15.464,0 -28,12.536 -28,28Z" style="fill:#fc2513;fill-rule:nonzero;"/><path d="M826,84l-14,0l0,-14l0,-14l14,0c7.732,0 14,6.268 14,14c0,7.732 -6.268,14 -14,14Z" style="fill:#fc2513;fill-rule:nonzero;"/><path d="M280,112l28,0l0,-28c-15.464,0 -28,12.536 -28,28Z" style="fill:#fc2513;fill-rule:nonzero;"/><rect x="308" y="84" width="28" height="28" style="fill:#fc2513;"/><path d="M420,112l0,-28l-28,0c0,15.464 12.536,28 28,28Z" style="fill:#fc2513;fill-rule:nonzero;"/><rect x="420" y="84" width="28" height="28" style="fill:#fc2513;"/><path d="M476,84l-28,0l0,28c15.464,0 28,-12.536 28,-28Z" style="fill:#fc2513;fill-rule:nonzero;"/><path d="M504,112l28,0l0,-28c-15.464,0 -28,12.536 -28,28Z" style="fill:#fc2513;fill-rule:nonzero;"/><rect x="532" y="84" width="28" height="28" style="fill:#fc2513;"/><rect x="560" y="84" width="28" height="28" style="fill:#fc2513;"/><rect x="588" y="84" width="28" height="28" style="fill:#fc2513;"/><rect x="616" y="84" width="28" height="28" style="fill:#fc2513;"/><rect x="644" y="84" width="28" height="28" style="fill:#fc2513;"/><rect x="672" y="84" width="28" height="28" style="fill:#fc2513;"/><path d="M784,98l0,-14l28,0l0,14c0,7.732 -6.268,14 -14,14c-7.732,0 -14,-6.268 -14,-14Z" style="fill:#fc2513;fill-rule:nonzero;"/><path d="M854,84c7.732,0 14,6.268 14,14c0,7.732 -6.268,14 -14,14c-7.732,0 -14,-6.268 -14,-14c0,-7.732 6.268,-14 14,-14Z" style="fill:#fc2513;fill-rule:nonzero;"/><rect x="280" y="112" width="28" height="28" style="fill:#fc2513;"/><rect x="308" y="112" width="28" height="28" style="fill:#fc2513;"/><path d="M392,126l0,14c0,0 -9.531,0 -14,-0.001c-3.49,0.001 -14,0 -14,0l0,-13.999c0,-7.732 6.268,-14 14,-14c7.732,0 14,6.268 14,14Z" style="fill:#fc2513;fill-rule:nonzero;"/><rect x="420" y="112" width="28" height="28" style="fill:#fc2513;"/><rect x="504" y="112" width="28" height="28" style="fill:#fc2513;"/><path d="M560,126l0,-14l28,0l0,14c0,7.732 -6.268,14 -14,14c-7.732,0 -14,-6.268 -14,-14Z" style="fill:#fc2513;fill-rule:nonzero;"/><rect x="644" y="112" width="28" height="28" style="fill:#fc2513;"/><rect x="672" y="112" width="28" height="28" style="fill:#fc2513;"/><path d="M714,140l-14,0l0,-14l0,-14l14,0c7.732,0 14,6.268 14,14c0,7.732 -6.268,14 -14,14Z" style="fill:#fc2513;fill-rule:nonzero;"/><path d="M770,112c7.732,0 14,6.268 14,14c0,7.732 -6.268,14 -14,14c-7.732,0 -14,-6.268 -14,-14c0,-7.732 6.268,-14 14,-14Z" style="fill:#fc2513;fill-rule:nonzero;"/><path d="M826,112c7.732,0 14,6.268 14,14c0,7.732 -6.268,14 -14,14c-7.732,0 -14,-6.268 -14,-14c0,-7.732 6.268,-14 14,-14Z" style="fill:#fc2513;fill-rule:nonzero;"/><rect x="280" y="140" width="28" height="28" style="fill:#fc2513;"/><rect x="308" y="140" width="28" height="28" style="fill:#fc2513;"/><rect x="336" y="140" width="28" height="28" style="fill:#fc2513;"/><rect x="364" y="140" width="28" height="28" style="fill:#fc2513;"/><rect x="392" y="140" width="28" height="28" style="fill:#fc2513;"/><rect x="420" y="140" width="28" height="28" style="fill:#fc2513;"/><path d="M448,140l0,28l28,0c0,-15.464 -12.536,-28 -28,-28Z" style="fill:#fc2513;fill-rule:nonzero;"/><rect x="504" y="140" width="28" height="28" style="fill:#fc2513;"/><path d="M532,140l0,28l28,0c0,-15.464 -12.536,-28 -28,-28Z" style="fill:#fc2513;fill-rule:nonzero;"/><path d="M588,168l28,0l0,-28c-15.464,0 -28,12.536 -28,28Z" style="fill:#fc2513;fill-rule:nonzero;"/><rect x="616" y="140" width="28" height="28" style="fill:#fc2513;"/><rect x="644" y="140" width="28" height="28" style="fill:#fc2513;"/><path d="M742,140c7.732,0 14,6.268 14,14c0,7.732 -6.268,14 -14,14c-7.732,0 -14,-6.268 -14,-14c0,-7.732 6.268,-14 14,-14Z" style="fill:#fc2513;fill-rule:nonzero;"/><path d="M812,154l0,14c0,0 -9.531,0 -14,-0.001c-3.49,0.001 -14,0 -14,0l0,-13.999c0,-7.732 6.268,-14 14,-14c7.732,0 14,6.268 14,14Z" style="fill:#fc2513;fill-rule:nonzero;"/><path d="M868,154l0,14c0,0 -9.531,0 -14,-0.001c-3.49,0.001 -14,0 -14,0l0,-13.999c0,-7.732 6.268,-14 14,-14c7.732,0 14,6.268 14,14Z" style="fill:#fc2513;fill-rule:nonzero;"/><rect x="280" y="168" width="28" height="28" style="fill:#fc2513;"/><path d="M336,182l0,-14l28,0l0,14c0,7.732 -6.268,14 -14,14c-7.732,0 -14,-6.268 -14,-14Z" style="fill:#fc2513;fill-rule:nonzero;"/><rect x="420" y="168" width="28" height="28" style="fill:#fc2513;"/><rect x="448" y="168" width="28" height="28" style="fill:#fc2513;"/><rect x="476" y="168" width="28" height="28" style="fill:#fc2513;"/><rect x="504" y="168" width="28" height="28" style="fill:#fc2513;"/><rect x="532" y="168" width="28" height="28" style="fill:#fc2513;"/><rect x="560" y="168" width="28" height="28" style="fill:#fc2513;"/><rect x="588" y="168" width="28" height="28" style="fill:#fc2513;"/><rect x="616" y="168" width="28" height="28" style="fill:#fc2513;"/><rect x="644" y="168" width="28" height="28" style="fill:#fc2513;"/><path d="M686,196l-14,0l0,-14l0,-14l14,0c7.732,0 14,6.268 14,14c0,7.732 -6.268,14 -14,14Z" style="fill:#fc2513;fill-rule:nonzero;"/><path d="M756,196l28,0l0,-28c-15.464,0 -28,12.536 -28,28Z" style="fill:#fc2513;fill-rule:nonzero;"/><path d="M812,168l-28,0l0,28c15.464,0 28,-12.536 28,-28Z" style="fill:#fc2513;fill-rule:nonzero;"/><path d="M840,182l0,-14l28,0l0,14c0,7.732 -6.268,14 -14,14c-7.732,0 -14,-6.268 -14,-14Z" style="fill:#fc2513;fill-rule:nonzero;"/><rect x="280" y="196" width="28" height="28" style="fill:#fc2513;"/><path d="M322,224l-14,0l0,-14l0,-14l14,0c7.732,0 14,6.268 14,14c0,7.732 -6.268,14 -14,14Z" style="fill:#fc2513;fill-rule:nonzero;"/><path d="M378,196c7.732,0 14,6.268 14,14c0,7.732 -6.268,14 -14,14c-7.732,0 -14,-6.268 -14,-14c0,-7.732 6.268,-14 14,-14Z" style="fill:#fc2513;fill-rule:nonzero;"/><path d="M420,210l0,-14l28,0l0,14c0,7.732 -6.268,14 -14,14c-7.732,0 -14,-6.268 -14,-14Z" style="fill:#fc2513;fill-rule:nonzero;"/><path d="M476,210l0,-14l28,0l0,14c0,7.732 -6.268,14 -14,14c-7.732,0 -14,-6.268 -14,-14Z" style="fill:#fc2513;fill-rule:nonzero;"/><path d="M560,224l0,-28l-28,0c0,15.464 12.536,28 28,28Z" style="fill:#fc2513;fill-rule:nonzero;"/><rect x="560" y="196" width="28" height="28" style="fill:#fc2513;"/><rect x="588" y="196" width="28" height="28" style="fill:#fc2513;"/><rect x="616" y="196" width="28" height="28" style="fill:#fc2513;"/><path d="M756,210l0,-14l28,0l0,14c0,7.732 -6.268,14 -14,14c-7.732,0 -14,-6.268 -14,-14Z" style="fill:#fc2513;fill-rule:nonzero;"/><path d="M280,238l0,-14l28,0l0,14c0,7.732 -6.268,14 -14,14c-7.732,0 -14,-6.268 -14,-14Z" style="fill:#fc2513;fill-rule:nonzero;"/><path d="M350,224c7.732,0 14,6.268 14,14c0,7.732 -6.268,14 -14,14c-7.732,0 -14,-6.268 -14,-14c0,-7.732 6.268,-14 14,-14Z" style="fill:#fc2513;fill-rule:nonzero;"/><path d="M420,238l0,14c0,0 -9.531,0 -14,-0.001c-3.49,0.001 -14,0 -14,0l0,-13.999c0,-7.732 6.268,-14 14,-14c7.732,0 14,6.268 14,14Z" style="fill:#fc2513;fill-rule:nonzero;"/><path d="M462,224c7.732,0 14,6.268 14,14c0,7.732 -6.268,14 -14,14c-7.732,0 -14,-6.268 -14,-14c0,-7.732 6.268,-14 14,-14Z" style="fill:#fc2513;fill-rule:nonzero;"/><path d="M518,224c7.732,0 14,6.268 14,14c0,7.732 -6.268,14 -14,14c-7.732,0 -14,-6.268 -14,-14c0,-7.732 6.268,-14 14,-14Z" style="fill:#fc2513;fill-rule:nonzero;"/><path d="M560,238l0,-14l28,0l0,14c0,7.732 -6.268,14 -14,14c-7.732,0 -14,-6.268 -14,-14Z" style="fill:#fc2513;fill-rule:nonzero;"/><path d="M616,238l0,-14l28,0l0,14c0,7.732 -6.268,14 -14,14c-7.732,0 -14,-6.268 -14,-14Z" style="fill:#fc2513;fill-rule:nonzero;"/><path d="M686,224c7.732,0 14,6.268 14,14c0,7.732 -6.268,14 -14,14c-7.732,0 -14,-6.268 -14,-14c0,-7.732 6.268,-14 14,-14Z" style="fill:#fc2513;fill-rule:nonzero;"/><path d="M742,224c7.732,0 14,6.268 14,14c0,7.732 -6.268,14 -14,14c-7.732,0 -14,-6.268 -14,-14c0,-7.732 6.268,-14 14,-14Z" style="fill:#fc2513;fill-rule:nonzero;"/><path d="M812,238l0,14c0,0 -9.531,0 -14,-0.001c-3.49,0.001 -14,0 -14,0l0,-13.999c0,-7.732 6.268,-14 14,-14c7.732,0 14,6.268 14,14Z" style="fill:#fc2513;fill-rule:nonzero;"/><path d="M868,238l0,14c0,0 -9.531,0 -14,-0.001c-3.49,0.001 -14,0 -14,0l0,-13.999c0,-7.732 6.268,-14 14,-14c7.732,0 14,6.268 14,14Z" style="fill:#fc2513;fill-rule:nonzero;"/><path d="M392,266l0,-14l28,0l0,14c0,7.732 -6.268,14 -14,14c-7.732,0 -14,-6.268 -14,-14Z" style="fill:#fc2513;fill-rule:nonzero;"/><path d="M546,252c7.732,0 14,6.268 14,14c0,7.732 -6.268,14 -14,14c-7.732,0 -14,-6.268 -14,-14c0,-7.732 6.268,-14 14,-14Z" style="fill:#fc2513;fill-rule:nonzero;"/><path d="M672,266l0,14c0,0 -9.531,0 -14,-0.001c-3.49,0.001 -14,0 -14,0l0,-13.999c0,-7.732 6.268,-14 14,-14c7.732,0 14,6.268 14,14Z" style="fill:#fc2513;fill-rule:nonzero;"/><path d="M812,280l0,-28l-28,0c0,15.464 12.536,28 28,28Z" style="fill:#fc2513;fill-rule:nonzero;"/><rect x="812" y="252" width="28" height="28" style="fill:#fc2513;"/><rect x="840" y="252" width="28" height="28" style="fill:#fc2513;"/><path d="M140,294l0,14c0,0 -9.531,0 -14,-0.001c-3.49,0.001 -14,0 -14,0l0,-13.999c0,-7.732 6.268,-14 14,-14c7.732,0 14,6.268 14,14Z" style="fill:#fc2513;fill-rule:nonzero;"/><path d="M210,280l14,0l0,28l-14,0c-7.735,0 -14,-6.271 -14,-14c0,-7.73 6.265,-14 14,-14Z" style="fill:#fc2513;fill-rule:nonzero;"/><rect x="224" y="280" width="28" height="28" style="fill:#fc2513;"/><rect x="252" y="280" width="28" height="28" style="fill:#fc2513;"/><path d="M280,280l0,28l28,0c0,-15.464 -12.536,-28 -28,-28Z" style="fill:#fc2513;fill-rule:nonzero;"/><path d="M364,294l0,14c0,0 -9.531,0 -14,-0.001c-3.49,0.001 -14,0 -14,0l0,-13.999c0,-7.732 6.268,-14 14,-14c7.732,0 14,6.268 14,14Z" style="fill:#fc2513;fill-rule:nonzero;"/><path d="M434,280l14,0l0,28l-14,0c-7.735,0 -14,-6.271 -14,-14c0,-7.73 6.265,-14 14,-14Z" style="fill:#fc2513;fill-rule:nonzero;"/><rect x="448" y="280" width="28" height="28" style="fill:#fc2513;"/><path d="M476,280l0,28l28,0c0,-15.464 -12.536,-28 -28,-28Z" style="fill:#fc2513;fill-rule:nonzero;"/><path d="M616,308l28,0l0,-28c-15.464,0 -28,12.536 -28,28Z" style="fill:#fc2513;fill-rule:nonzero;"/><rect x="644" y="280" width="28" height="28" style="fill:#fc2513;"/><path d="M714,280l14,0l0,28l-14,0c-7.735,0 -14,-6.271 -14,-14c0,-7.73 6.265,-14 14,-14Z" style="fill:#fc2513;fill-rule:nonzero;"/><path d="M728,280l0,28l28,0c0,-15.464 -12.536,-28 -28,-28Z" style="fill:#fc2513;fill-rule:nonzero;"/><rect x="840" y="280" width="28" height="28" style="fill:#fc2513;"/><path d="M882,308l-14,0l0,-14l0,-14l14,0c7.732,0 14,6.268 14,14c0,7.732 -6.268,14 -14,14Z" style="fill:#fc2513;fill-rule:nonzero;"/><path d="M924,308l28,0l0,-28c-15.464,0 -28,12.536 -28,28Z" style="fill:#fc2513;fill-rule:nonzero;"/><rect x="952" y="280" width="28" height="28" style="fill:#fc2513;"/><rect x="980" y="280" width="28" height="28" style="fill:#fc2513;"/><rect x="1008" y="280" width="28" height="28" style="fill:#fc2513;"/><path d="M1036,280l0,28l28,0c0,-15.464 -12.536,-28 -28,-28Z" style="fill:#fc2513;fill-rule:nonzero;"/><path d="M84,336l28,0l0,-28c-15.464,0 -28,12.536 -28,28Z" style="fill:#fc2513;fill-rule:nonzero;"/><rect x="112" y="308" width="28" height="28" style="fill:#fc2513;"/><path d="M182,308c7.732,0 14,6.268 14,14c0,7.732 -6.268,14 -14,14c-7.732,0 -14,-6.268 -14,-14c0,-7.732 6.268,-14 14,-14Z" style="fill:#fc2513;fill-rule:nonzero;"/><rect x="280" y="308" width="28" height="28" style="fill:#fc2513;"/><rect x="308" y="308" width="28" height="28" style="fill:#fc2513;"/><path d="M364,308l-28,0l0,28c15.464,0 28,-12.536 28,-28Z" style="fill:#fc2513;fill-rule:nonzero;"/><path d="M420,322l0,14c0,0 -9.531,0 -14,-0.001c-3.49,0.001 -14,0 -14,0l0,-13.999c0,-7.732 6.268,-14 14,-14c7.732,0 14,6.268 14,14Z" style="fill:#fc2513;fill-rule:nonzero;"/><rect x="476" y="308" width="28" height="28" style="fill:#fc2513;"/><path d="M532,336l28,0l0,-28c-15.464,0 -28,12.536 -28,28Z" style="fill:#fc2513;fill-rule:nonzero;"/><rect x="560" y="308" width="28" height="28" style="fill:#fc2513;"/><rect x="588" y="308" width="28" height="28" style="fill:#fc2513;"/><rect x="616" y="308" width="28" height="28" style="fill:#fc2513;"/><rect x="644" y="308" width="28" height="28" style="fill:#fc2513;"/><path d="M756,336l0,-28l-28,0c0,15.464 12.536,28 28,28Z" style="fill:#fc2513;fill-rule:nonzero;"/><path d="M770,336l-14,0l0,-14l0,-14l14,0c7.732,0 14,6.268 14,14c0,7.732 -6.268,14 -14,14Z" style="fill:#fc2513;fill-rule:nonzero;"/><rect x="840" y="308" width="28" height="28" style="fill:#fc2513;"/><path d="M896,336l28,0l0,-28c-15.464,0 -28,12.536 -28,28Z" style="fill:#fc2513;fill-rule:nonzero;"/><rect x="924" y="308" width="28" height="28" style="fill:#fc2513;"/><rect x="1008" y="308" width="28" height="28" style="fill:#fc2513;"/><rect x="1036" y="308" width="28" height="28" style="fill:#fc2513;"/><path d="M1064,308l0,28l28,0c0,-15.464 -12.536,-28 -28,-28Z" style="fill:#fc2513;fill-rule:nonzero;"/><path d="M56,364l28,0l0,-28c-15.464,0 -28,12.536 -28,28Z" style="fill:#fc2513;fill-rule:nonzero;"/><rect x="84" y="336" width="28" height="28" style="fill:#fc2513;"/><rect x="112" y="336" width="28" height="28" style="fill:#fc2513;"/><path d="M140,336l0,28l28,0c0,-15.464 -12.536,-28 -28,-28Z" style="fill:#fc2513;fill-rule:nonzero;"/><path d="M238,336c7.732,0 14,6.268 14,14c0,7.732 -6.268,14 -14,14c-7.732,0 -14,-6.268 -14,-14c0,-7.732 6.268,-14 14,-14Z" style="fill:#fc2513;fill-rule:nonzero;"/><rect x="280" y="336" width="28" height="28" style="fill:#fc2513;"/><rect x="392" y="336" width="28" height="28" style="fill:#fc2513;"/><rect x="420" y="336" width="28" height="28" style="fill:#fc2513;"/><rect x="448" y="336" width="28" height="28" style="fill:#fc2513;"/><rect x="476" y="336" width="28" height="28" style="fill:#fc2513;"/><rect x="504" y="336" width="28" height="28" style="fill:#fc2513;"/><rect x="532" y="336" width="28" height="28" style="fill:#fc2513;"/><rect x="560" y="336" width="28" height="28" style="fill:#fc2513;"/><path d="M672,364l0,-28l-28,0c0,15.464 12.536,28 28,28Z" style="fill:#fc2513;fill-rule:nonzero;"/><path d="M686,364l-14,0l0,-14l0,-14l14,0c7.732,0 14,6.268 14,14c0,7.732 -6.268,14 -14,14Z" style="fill:#fc2513;fill-rule:nonzero;"/><path d="M798,336l14,0l0,28l-14,0c-7.735,0 -14,-6.271 -14,-14c0,-7.73 6.265,-14 14,-14Z" style="fill:#fc2513;fill-rule:nonzero;"/><rect x="812" y="336" width="28" height="28" style="fill:#fc2513;"/><rect x="840" y="336" width="28" height="28" style="fill:#fc2513;"/><rect x="868" y="336" width="28" height="28" style="fill:#fc2513;"/><rect x="896" y="336" width="28" height="28" style="fill:#fc2513;"/><rect x="924" y="336" width="28" height="28" style="fill:#fc2513;"/><path d="M966,364l-14,0l0,-14l0,-14l14,0c7.732,0 14,6.268 14,14c0,7.732 -6.268,14 -14,14Z" style="fill:#fc2513;fill-rule:nonzero;"/><path d="M1008,350l0,-14l28,0l0,14c0,7.732 -6.268,14 -14,14c-7.732,0 -14,-6.268 -14,-14Z" style="fill:#fc2513;fill-rule:nonzero;"/><path d="M1064,350l0,-14l28,0l0,14c0,7.732 -6.268,14 -14,14c-7.732,0 -14,-6.268 -14,-14Z" style="fill:#fc2513;fill-rule:nonzero;"/><path d="M84,392l0,-28l-28,0c0,15.464 12.536,28 28,28Z" style="fill:#fc2513;fill-rule:nonzero;"/><rect x="84" y="364" width="28" height="28" style="fill:#fc2513;"/><path d="M168,392l0,-28l-28,0c0,15.464 12.536,28 28,28Z" style="fill:#fc2513;fill-rule:nonzero;"/><rect x="168" y="364" width="28" height="28" style="fill:#fc2513;"/><path d="M210,392l-14,0l0,-14l0,-14l14,0c7.732,0 14,6.268 14,14c0,7.732 -6.268,14 -14,14Z" style="fill:#fc2513;fill-rule:nonzero;"/><path d="M308,392l0,-28l-28,0c0,15.464 12.536,28 28,28Z" style="fill:#fc2513;fill-rule:nonzero;"/><path d="M308,364l0,28l28,0c0,-15.464 -12.536,-28 -28,-28Z" style="fill:#fc2513;fill-rule:nonzero;"/><rect x="392" y="364" width="28" height="28" style="fill:#fc2513;"/><rect x="476" y="364" width="28" height="28" style="fill:#fc2513;"/><path d="M532,364l-28,0l0,28c15.464,0 28,-12.536 28,-28Z" style="fill:#fc2513;fill-rule:nonzero;"/><path d="M588,392l0,-28l-28,0c0,15.464 12.536,28 28,28Z" style="fill:#fc2513;fill-rule:nonzero;"/><path d="M602,392l-14,0l0,-14l0,-14l14,0c7.732,0 14,6.268 14,14c0,7.732 -6.268,14 -14,14Z" style="fill:#fc2513;fill-rule:nonzero;"/><rect x="840" y="364" width="28" height="28" style="fill:#fc2513;"/><rect x="868" y="364" width="28" height="28" style="fill:#fc2513;"/><rect x="896" y="364" width="28" height="28" style="fill:#fc2513;"/><rect x="924" y="364" width="28" height="28" style="fill:#fc2513;"/><path d="M994,364c7.732,0 14,6.268 14,14c0,7.732 -6.268,14 -14,14c-7.732,0 -14,-6.268 -14,-14c0,-7.732 6.268,-14 14,-14Z" style="fill:#fc2513;fill-rule:nonzero;"/><path d="M1064,378l0,14c0,0 -9.531,0 -14,-0.001c-3.49,0.001 -14,0 -14,0l0,-13.999c0,-7.732 6.268,-14 14,-14c7.732,0 14,6.268 14,14Z" style="fill:#fc2513;fill-rule:nonzero;"/><path d="M112,420l0,-28l-28,0c0,15.464 12.536,28 28,28Z" style="fill:#fc2513;fill-rule:nonzero;"/><path d="M126,420l-14,0l0,-14l0,-14l14,0c7.732,0 14,6.268 14,14c0,7.732 -6.268,14 -14,14Z" style="fill:#fc2513;fill-rule:nonzero;"/><path d="M168,406l0,-14l28,0l0,14c0,7.732 -6.268,14 -14,14c-7.732,0 -14,-6.268 -14,-14Z" style="fill:#fc2513;fill-rule:nonzero;"/><path d="M238,392l14,0l0,28l-14,0c-7.735,0 -14,-6.271 -14,-14c0,-7.73 6.265,-14 14,-14Z" style="fill:#fc2513;fill-rule:nonzero;"/><path d="M252,392l0,28l28,0c0,-15.464 -12.536,-28 -28,-28Z" style="fill:#fc2513;fill-rule:nonzero;"/><path d="M308,406l0,-14l28,0l0,14c0,7.732 -6.268,14 -14,14c-7.732,0 -14,-6.268 -14,-14Z" style="fill:#fc2513;fill-rule:nonzero;"/><path d="M364,420l28,0l0,-28c-15.464,0 -28,12.536 -28,28Z" style="fill:#fc2513;fill-rule:nonzero;"/><rect x="392" y="392" width="28" height="28" style="fill:#fc2513;"/><rect x="476" y="392" width="28" height="28" style="fill:#fc2513;"/><path d="M616,420l28,0l0,-28c-15.464,0 -28,12.536 -28,28Z" style="fill:#fc2513;fill-rule:nonzero;"/><path d="M644,392l0,28l28,0c0,-15.464 -12.536,-28 -28,-28Z" style="fill:#fc2513;fill-rule:nonzero;"/><path d="M714,392l14,0l0,28l-14,0c-7.735,0 -14,-6.271 -14,-14c0,-7.73 6.265,-14 14,-14Z" style="fill:#fc2513;fill-rule:nonzero;"/><path d="M728,392l0,28l28,0c0,-15.464 -12.536,-28 -28,-28Z" style="fill:#fc2513;fill-rule:nonzero;"/><path d="M784,420l28,0l0,-28c-15.464,0 -28,12.536 -28,28Z" style="fill:#fc2513;fill-rule:nonzero;"/><rect x="812" y="392" width="28" height="28" style="fill:#fc2513;"/><rect x="840" y="392" width="28" height="28" style="fill:#fc2513;"/><rect x="896" y="392" width="28" height="28" style="fill:#fc2513;"/><rect x="924" y="392" width="28" height="28" style="fill:#fc2513;"/><path d="M966,420l-14,0l0,-14l0,-14l14,0c7.732,0 14,6.268 14,14c0,7.732 -6.268,14 -14,14Z" style="fill:#fc2513;fill-rule:nonzero;"/><rect x="1036" y="392" width="28" height="28" style="fill:#fc2513;"/><path d="M280,448l0,-28l-28,0c0,15.464 12.536,28 28,28Z" style="fill:#fc2513;fill-rule:nonzero;"/><path d="M280,420l0,28l28,0c0,-15.464 -12.536,-28 -28,-28Z" style="fill:#fc2513;fill-rule:nonzero;"/><path d="M392,448l0,-28l-28,0c0,15.464 12.536,28 28,28Z" style="fill:#fc2513;fill-rule:nonzero;"/><rect x="392" y="420" width="28" height="28" style="fill:#fc2513;"/><path d="M434,448l-14,0l0,-14l0,-14l14,0c7.732,0 14,6.268 14,14c0,7.732 -6.268,14 -14,14Z" style="fill:#fc2513;fill-rule:nonzero;"/><path d="M476,434l0,-14l28,0l0,14c0,7.732 -6.268,14 -14,14c-7.732,0 -14,-6.268 -14,-14Z" style="fill:#fc2513;fill-rule:nonzero;"/><path d="M574,420c7.732,0 14,6.268 14,14c0,7.732 -6.268,14 -14,14c-7.732,0 -14,-6.268 -14,-14c0,-7.732 6.268,-14 14,-14Z" style="fill:#fc2513;fill-rule:nonzero;"/><path d="M644,448l0,-28l-28,0c0,15.464 12.536,28 28,28Z" style="fill:#fc2513;fill-rule:nonzero;"/><path d="M672,420l-28,0l0,28c15.464,0 28,-12.536 28,-28Z" style="fill:#fc2513;fill-rule:nonzero;"/><path d="M756,448l0,-28l-28,0c0,15.464 12.536,28 28,28Z" style="fill:#fc2513;fill-rule:nonzero;"/><rect x="756" y="420" width="28" height="28" style="fill:#fc2513;"/><rect x="784" y="420" width="28" height="28" style="fill:#fc2513;"/><rect x="840" y="420" width="28" height="28" style="fill:#fc2513;"/><rect x="896" y="420" width="28" height="28" style="fill:#fc2513;"/><rect x="924" y="420" width="28" height="28" style="fill:#fc2513;"/><rect x="1036" y="420" width="28" height="28" style="fill:#fc2513;"/><path d="M1064,420l0,28l28,0c0,-15.464 -12.536,-28 -28,-28Z" style="fill:#fc2513;fill-rule:nonzero;"/><path d="M126,448l14,0l0,28l-14,0c-7.735,0 -14,-6.271 -14,-14c0,-7.73 6.265,-14 14,-14Z" style="fill:#fc2513;fill-rule:nonzero;"/><rect x="140" y="448" width="28" height="28" style="fill:#fc2513;"/><path d="M168,448l0,28l28,0c0,-15.464 -12.536,-28 -28,-28Z" style="fill:#fc2513;fill-rule:nonzero;"/><path d="M238,448c7.732,0 14,6.268 14,14c0,7.732 -6.268,14 -14,14c-7.732,0 -14,-6.268 -14,-14c0,-7.732 6.268,-14 14,-14Z" style="fill:#fc2513;fill-rule:nonzero;"/><rect x="280" y="448" width="28" height="28" style="fill:#fc2513;"/><path d="M322,476l-14,0l0,-14l0,-14l14,0c7.732,0 14,6.268 14,14c0,7.732 -6.268,14 -14,14Z" style="fill:#fc2513;fill-rule:nonzero;"/><path d="M812,476l0,-28l-28,0c0,15.464 12.536,28 28,28Z" style="fill:#fc2513;fill-rule:nonzero;"/><rect x="812" y="448" width="28" height="28" style="fill:#fc2513;"/><rect x="840" y="448" width="28" height="28" style="fill:#fc2513;"/><rect x="896" y="448" width="28" height="28" style="fill:#fc2513;"/><rect x="924" y="448" width="28" height="28" style="fill:#fc2513;"/><rect x="952" y="448" width="28" height="28" style="fill:#fc2513;"/><path d="M980,448l0,28l28,0c0,-15.464 -12.536,-28 -28,-28Z" style="fill:#fc2513;fill-rule:nonzero;"/><path d="M1064,476l0,-28l-28,0c0,15.464 12.536,28 28,28Z" style="fill:#fc2513;fill-rule:nonzero;"/><rect x="1064" y="448" width="28" height="28" style="fill:#fc2513;"/><path d="M70,476c7.732,0 14,6.268 14,14c0,7.732 -6.268,14 -14,14c-7.732,0 -14,-6.268 -14,-14c0,-7.732 6.268,-14 14,-14Z" style="fill:#fc2513;fill-rule:nonzero;"/><path d="M168,504l0,-28l-28,0c0,15.464 12.536,28 28,28Z" style="fill:#fc2513;fill-rule:nonzero;"/><rect x="168" y="476" width="28" height="28" style="fill:#fc2513;"/><path d="M196,476l0,28l28,0c0,-15.464 -12.536,-28 -28,-28Z" style="fill:#fc2513;fill-rule:nonzero;"/><path d="M252,504l28,0l0,-28c-15.464,0 -28,12.536 -28,28Z" style="fill:#fc2513;fill-rule:nonzero;"/><rect x="280" y="476" width="28" height="28" style="fill:#fc2513;"/><path d="M364,490l0,14c0,0 -9.531,0 -14,-0.001c-3.49,0.001 -14,0 -14,0l0,-13.999c0,-7.732 6.268,-14 14,-14c7.732,0 14,6.268 14,14Z" style="fill:#fc2513;fill-rule:nonzero;"/><path d="M840,504l0,-28l-28,0c0,15.464 12.536,28 28,28Z" style="fill:#fc2513;fill-rule:nonzero;"/><rect x="840" y="476" width="28" height="28" style="fill:#fc2513;"/><rect x="896" y="476" width="28" height="28" style="fill:#fc2513;"/><path d="M980,504l0,-28l-28,0c0,15.464 12.536,28 28,28Z" style="fill:#fc2513;fill-rule:nonzero;"/><rect x="980" y="476" width="28" height="28" style="fill:#fc2513;"/><rect x="1064" y="476" width="28" height="28" style="fill:#fc2513;"/><path d="M112,518l0,14c0,0 -9.531,0 -14,-0.001c-3.49,0.001 -14,0 -14,0l0,-13.999c0,-7.732 6.268,-14 14,-14c7.732,0 14,6.268 14,14Z" style="fill:#fc2513;fill-rule:nonzero;"/><rect x="196" y="504" width="28" height="28" style="fill:#fc2513;"/><rect x="224" y="504" width="28" height="28" style="fill:#fc2513;"/><rect x="252" y="504" width="28" height="28" style="fill:#fc2513;"/><rect x="280" y="504" width="28" height="28" style="fill:#fc2513;"/><rect x="308" y="504" width="28" height="28" style="fill:#fc2513;"/><path d="M364,504l-28,0l0,28c15.464,0 28,-12.536 28,-28Z" style="fill:#fc2513;fill-rule:nonzero;"/><rect x="840" y="504" width="28" height="28" style="fill:#fc2513;"/><rect x="896" y="504" width="28" height="28" style="fill:#fc2513;"/><path d="M924,504l0,28l28,0c0,-15.464 -12.536,-28 -28,-28Z" style="fill:#fc2513;fill-rule:nonzero;"/><path d="M980,518l0,-14l28,0l0,14c0,7.732 -6.268,14 -14,14c-7.732,0 -14,-6.268 -14,-14Z" style="fill:#fc2513;fill-rule:nonzero;"/><rect x="1064" y="504" width="28" height="28" style="fill:#fc2513;"/><path d="M70,532l14,0l0,28l-14,0c-7.735,0 -14,-6.271 -14,-14c0,-7.73 6.265,-14 14,-14Z" style="fill:#fc2513;fill-rule:nonzero;"/><rect x="84" y="532" width="28" height="28" style="fill:#fc2513;"/><path d="M154,532c7.732,0 14,6.268 14,14c0,7.732 -6.268,14 -14,14c-7.732,0 -14,-6.268 -14,-14c0,-7.732 6.268,-14 14,-14Z" style="fill:#fc2513;fill-rule:nonzero;"/><path d="M196,546l0,-14l28,0l0,14c0,7.732 -6.268,14 -14,14c-7.732,0 -14,-6.268 -14,-14Z" style="fill:#fc2513;fill-rule:nonzero;"/><rect x="252" y="532" width="28" height="28" style="fill:#fc2513;"/><path d="M798,532l14,0l0,28l-14,0c-7.735,0 -14,-6.271 -14,-14c0,-7.73 6.265,-14 14,-14Z" style="fill:#fc2513;fill-rule:nonzero;"/><rect x="812" y="532" width="28" height="28" style="fill:#fc2513;"/><rect x="840" y="532" width="28" height="28" style="fill:#fc2513;"/><rect x="868" y="532" width="28" height="28" style="fill:#fc2513;"/><rect x="896" y="532" width="28" height="28" style="fill:#fc2513;"/><rect x="924" y="532" width="28" height="28" style="fill:#fc2513;"/><path d="M1036,546l0,14c0,0 -9.531,0 -14,-0.001c-3.49,0.001 -14,0 -14,0l0,-13.999c0,-7.732 6.268,-14 14,-14c7.732,0 14,6.268 14,14Z" style="fill:#fc2513;fill-rule:nonzero;"/><rect x="1064" y="532" width="28" height="28" style="fill:#fc2513;"/><rect x="84" y="560" width="28" height="28" style="fill:#fc2513;"/><path d="M112,560l0,28l28,0c0,-15.464 -12.536,-28 -28,-28Z" style="fill:#fc2513;fill-rule:nonzero;"/><path d="M238,560l14,0l0,28l-14,0c-7.735,0 -14,-6.271 -14,-14c0,-7.73 6.265,-14 14,-14Z" style="fill:#fc2513;fill-rule:nonzero;"/><rect x="252" y="560" width="28" height="28" style="fill:#fc2513;"/><path d="M336,574l0,14c0,0 -9.531,0 -14,-0.001c-3.49,0.001 -14,0 -14,0l0,-13.999c0,-7.732 6.268,-14 14,-14c7.732,0 14,6.268 14,14Z" style="fill:#fc2513;fill-rule:nonzero;"/><rect x="812" y="560" width="28" height="28" style="fill:#fc2513;"/><path d="M924,588l0,-28l-28,0c0,15.464 12.536,28 28,28Z" style="fill:#fc2513;fill-rule:nonzero;"/><path d="M952,560l-28,0l0,28c15.464,0 28,-12.536 28,-28Z" style="fill:#fc2513;fill-rule:nonzero;"/><path d="M980,588l28,0l0,-28c-15.464,0 -28,12.536 -28,28Z" style="fill:#fc2513;fill-rule:nonzero;"/><path d="M1036,560l-28,0l0,28c15.464,0 28,-12.536 28,-28Z" style="fill:#fc2513;fill-rule:nonzero;"/><rect x="1064" y="560" width="28" height="28" style="fill:#fc2513;"/><path d="M56,616l28,0l0,-28c-15.464,0 -28,12.536 -28,28Z" style="fill:#fc2513;fill-rule:nonzero;"/><rect x="84" y="588" width="28" height="28" style="fill:#fc2513;"/><rect x="112" y="588" width="28" height="28" style="fill:#fc2513;"/><rect x="140" y="588" width="28" height="28" style="fill:#fc2513;"/><rect x="168" y="588" width="28" height="28" style="fill:#fc2513;"/><path d="M196,588l0,28l28,0c0,-15.464 -12.536,-28 -28,-28Z" style="fill:#fc2513;fill-rule:nonzero;"/><rect x="252" y="588" width="28" height="28" style="fill:#fc2513;"/><rect x="280" y="588" width="28" height="28" style="fill:#fc2513;"/><rect x="308" y="588" width="28" height="28" style="fill:#fc2513;"/><path d="M336,588l0,28l28,0c0,-15.464 -12.536,-28 -28,-28Z" style="fill:#fc2513;fill-rule:nonzero;"/><path d="M812,602l0,-14l28,0l0,14c0,7.732 -6.268,14 -14,14c-7.732,0 -14,-6.268 -14,-14Z" style="fill:#fc2513;fill-rule:nonzero;"/><path d="M882,588c7.732,0 14,6.268 14,14c0,7.732 -6.268,14 -14,14c-7.732,0 -14,-6.268 -14,-14c0,-7.732 6.268,-14 14,-14Z" style="fill:#fc2513;fill-rule:nonzero;"/><rect x="980" y="588" width="28" height="28" style="fill:#fc2513;"/><path d="M1064,602l0,-14l28,0l0,14c0,7.732 -6.268,14 -14,14c-7.732,0 -14,-6.268 -14,-14Z" style="fill:#fc2513;fill-rule:nonzero;"/><rect x="56" y="616" width="28" height="28" style="fill:#fc2513;"/><path d="M196,644l0,-28l-28,0c0,15.464 12.536,28 28,28Z" style="fill:#fc2513;fill-rule:nonzero;"/><rect x="196" y="616" width="28" height="28" style="fill:#fc2513;"/><rect x="224" y="616" width="28" height="28" style="fill:#fc2513;"/><rect x="252" y="616" width="28" height="28" style="fill:#fc2513;"/><rect x="280" y="616" width="28" height="28" style="fill:#fc2513;"/><rect x="308" y="616" width="28" height="28" style="fill:#fc2513;"/><path d="M364,616l-28,0l0,28c15.464,0 28,-12.536 28,-28Z" style="fill:#fc2513;fill-rule:nonzero;"/><path d="M868,630l0,14c0,0 -9.531,0 -14,-0.001c-3.49,0.001 -14,0 -14,0l0,-13.999c0,-7.732 6.268,-14 14,-14c7.732,0 14,6.268 14,14Z" style="fill:#fc2513;fill-rule:nonzero;"/><path d="M910,616l14,0l0,28l-14,0c-7.735,0 -14,-6.271 -14,-14c0,-7.73 6.265,-14 14,-14Z" style="fill:#fc2513;fill-rule:nonzero;"/><path d="M924,616l0,28l28,0c0,-15.464 -12.536,-28 -28,-28Z" style="fill:#fc2513;fill-rule:nonzero;"/><path d="M1008,644l0,-28l-28,0c0,15.464 12.536,28 28,28Z" style="fill:#fc2513;fill-rule:nonzero;"/><rect x="1008" y="616" width="28" height="28" style="fill:#fc2513;"/><path d="M1036,616l0,28l28,0c0,-15.464 -12.536,-28 -28,-28Z" style="fill:#fc2513;fill-rule:nonzero;"/><path d="M56,658l0,-14l28,0l0,14c0,7.732 -6.268,14 -14,14c-7.732,0 -14,-6.268 -14,-14Z" style="fill:#fc2513;fill-rule:nonzero;"/><path d="M126,644c7.732,0 14,6.268 14,14c0,7.732 -6.268,14 -14,14c-7.732,0 -14,-6.268 -14,-14c0,-7.732 6.268,-14 14,-14Z" style="fill:#fc2513;fill-rule:nonzero;"/><rect x="196" y="644" width="28" height="28" style="fill:#fc2513;"/><path d="M280,658l0,-14l28,0l0,14c0,7.732 -6.268,14 -14,14c-7.732,0 -14,-6.268 -14,-14Z" style="fill:#fc2513;fill-rule:nonzero;"/><path d="M812,672l28,0l0,-28c-15.464,0 -28,12.536 -28,28Z" style="fill:#fc2513;fill-rule:nonzero;"/><path d="M868,644l-28,0l0,28c15.464,0 28,-12.536 28,-28Z" style="fill:#fc2513;fill-rule:nonzero;"/><rect x="924" y="644" width="28" height="28" style="fill:#fc2513;"/><rect x="1036" y="644" width="28" height="28" style="fill:#fc2513;"/><path d="M1064,644l0,28l28,0c0,-15.464 -12.536,-28 -28,-28Z" style="fill:#fc2513;fill-rule:nonzero;"/><path d="M98,672c7.732,0 14,6.268 14,14c0,7.732 -6.268,14 -14,14c-7.732,0 -14,-6.268 -14,-14c0,-7.732 6.268,-14 14,-14Z" style="fill:#fc2513;fill-rule:nonzero;"/><path d="M182,672l14,0l0,28l-14,0c-7.735,0 -14,-6.271 -14,-14c0,-7.73 6.265,-14 14,-14Z" style="fill:#fc2513;fill-rule:nonzero;"/><rect x="196" y="672" width="28" height="28" style="fill:#fc2513;"/><rect x="224" y="672" width="28" height="28" style="fill:#fc2513;"/><path d="M252,672l0,28l28,0c0,-15.464 -12.536,-28 -28,-28Z" style="fill:#fc2513;fill-rule:nonzero;"/><path d="M350,672c7.732,0 14,6.268 14,14c0,7.732 -6.268,14 -14,14c-7.732,0 -14,-6.268 -14,-14c0,-7.732 6.268,-14 14,-14Z" style="fill:#fc2513;fill-rule:nonzero;"/><path d="M798,672l14,0l0,28l-14,0c-7.735,0 -14,-6.271 -14,-14c0,-7.73 6.265,-14 14,-14Z" style="fill:#fc2513;fill-rule:nonzero;"/><path d="M840,672l-28,0l0,28c15.464,0 28,-12.536 28,-28Z" style="fill:#fc2513;fill-rule:nonzero;"/><path d="M896,700l28,0l0,-28c-15.464,0 -28,12.536 -28,28Z" style="fill:#fc2513;fill-rule:nonzero;"/><rect x="924" y="672" width="28" height="28" style="fill:#fc2513;"/><path d="M966,700l-14,0l0,-14l0,-14l14,0c7.732,0 14,6.268 14,14c0,7.732 -6.268,14 -14,14Z" style="fill:#fc2513;fill-rule:nonzero;"/><path d="M1064,700l0,-28l-28,0c0,15.464 12.536,28 28,28Z" style="fill:#fc2513;fill-rule:nonzero;"/><rect x="1064" y="672" width="28" height="28" style="fill:#fc2513;"/><path d="M70,700c7.732,0 14,6.268 14,14c0,7.732 -6.268,14 -14,14c-7.732,0 -14,-6.268 -14,-14c0,-7.732 6.268,-14 14,-14Z" style="fill:#fc2513;fill-rule:nonzero;"/><path d="M126,700l14,0l0,28l-14,0c-7.735,0 -14,-6.271 -14,-14c0,-7.73 6.265,-14 14,-14Z" style="fill:#fc2513;fill-rule:nonzero;"/><path d="M140,700l0,28l28,0c0,-15.464 -12.536,-28 -28,-28Z" style="fill:#fc2513;fill-rule:nonzero;"/><path d="M280,728l0,-28l-28,0c0,15.464 12.536,28 28,28Z" style="fill:#fc2513;fill-rule:nonzero;"/><rect x="280" y="700" width="28" height="28" style="fill:#fc2513;"/><path d="M308,700l0,28l28,0c0,-15.464 -12.536,-28 -28,-28Z" style="fill:#fc2513;fill-rule:nonzero;"/><path d="M406,700l14,0l0,28l-14,0c-7.735,0 -14,-6.271 -14,-14c0,-7.73 6.265,-14 14,-14Z" style="fill:#fc2513;fill-rule:nonzero;"/><rect x="420" y="700" width="28" height="28" style="fill:#fc2513;"/><rect x="448" y="700" width="28" height="28" style="fill:#fc2513;"/><path d="M490,728l-14,0l0,-14l0,-14l14,0c7.732,0 14,6.268 14,14c0,7.732 -6.268,14 -14,14Z" style="fill:#fc2513;fill-rule:nonzero;"/><path d="M560,714l0,14c0,0 -9.531,0 -14,-0.001c-3.49,0.001 -14,0 -14,0l0,-13.999c0,-7.732 6.268,-14 14,-14c7.732,0 14,6.268 14,14Z" style="fill:#fc2513;fill-rule:nonzero;"/><path d="M630,700l14,0l0,28l-14,0c-7.735,0 -14,-6.271 -14,-14c0,-7.73 6.265,-14 14,-14Z" style="fill:#fc2513;fill-rule:nonzero;"/><rect x="644" y="700" width="28" height="28" style="fill:#fc2513;"/><rect x="672" y="700" width="28" height="28" style="fill:#fc2513;"/><path d="M700,700l0,28l28,0c0,-15.464 -12.536,-28 -28,-28Z" style="fill:#fc2513;fill-rule:nonzero;"/><rect x="896" y="700" width="28" height="28" style="fill:#fc2513;"/><path d="M952,700l-28,0l0,28c15.464,0 28,-12.536 28,-28Z" style="fill:#fc2513;fill-rule:nonzero;"/><path d="M1008,714l0,14c0,0 -9.531,0 -14,-0.001c-3.49,0.001 -14,0 -14,0l0,-13.999c0,-7.732 6.268,-14 14,-14c7.732,0 14,6.268 14,14Z" style="fill:#fc2513;fill-rule:nonzero;"/><rect x="1064" y="700" width="28" height="28" style="fill:#fc2513;"/><path d="M168,756l0,-28l-28,0c0,15.464 12.536,28 28,28Z" style="fill:#fc2513;fill-rule:nonzero;"/><rect x="168" y="728" width="28" height="28" style="fill:#fc2513;"/><rect x="196" y="728" width="28" height="28" style="fill:#fc2513;"/><path d="M238,756l-14,0l0,-14l0,-14l14,0c7.732,0 14,6.268 14,14c0,7.732 -6.268,14 -14,14Z" style="fill:#fc2513;fill-rule:nonzero;"/><rect x="280" y="728" width="28" height="28" style="fill:#fc2513;"/><path d="M336,728l-28,0l0,28c15.464,0 28,-12.536 28,-28Z" style="fill:#fc2513;fill-rule:nonzero;"/><path d="M378,728c7.732,0 14,6.268 14,14c0,7.732 -6.268,14 -14,14c-7.732,0 -14,-6.268 -14,-14c0,-7.732 6.268,-14 14,-14Z" style="fill:#fc2513;fill-rule:nonzero;"/><rect x="420" y="728" width="28" height="28" style="fill:#fc2513;"/><path d="M532,742l0,-14l28,0l0,14c0,7.732 -6.268,14 -14,14c-7.732,0 -14,-6.268 -14,-14Z" style="fill:#fc2513;fill-rule:nonzero;"/><path d="M616,742l0,14c0,0 -9.531,0 -14,-0.001c-3.49,0.001 -14,0 -14,0l0,-13.999c0,-7.732 6.268,-14 14,-14c7.732,0 14,6.268 14,14Z" style="fill:#fc2513;fill-rule:nonzero;"/><rect x="672" y="728" width="28" height="28" style="fill:#fc2513;"/><path d="M728,728l-28,0l0,28c15.464,0 28,-12.536 28,-28Z" style="fill:#fc2513;fill-rule:nonzero;"/><path d="M770,728l14,0l0,28l-14,0c-7.735,0 -14,-6.271 -14,-14c0,-7.73 6.265,-14 14,-14Z" style="fill:#fc2513;fill-rule:nonzero;"/><path d="M798,756l-14,0l0,-14l0,-14l14,0c7.732,0 14,6.268 14,14c0,7.732 -6.268,14 -14,14Z" style="fill:#fc2513;fill-rule:nonzero;"/><path d="M868,742l0,14c0,0 -9.531,0 -14,-0.001c-3.49,0.001 -14,0 -14,0l0,-13.999c0,-7.732 6.268,-14 14,-14c7.732,0 14,6.268 14,14Z" style="fill:#fc2513;fill-rule:nonzero;"/><rect x="896" y="728" width="28" height="28" style="fill:#fc2513;"/><path d="M1008,756l0,-28l-28,0c0,15.464 12.536,28 28,28Z" style="fill:#fc2513;fill-rule:nonzero;"/><rect x="1008" y="728" width="28" height="28" style="fill:#fc2513;"/><rect x="1036" y="728" width="28" height="28" style="fill:#fc2513;"/><rect x="1064" y="728" width="28" height="28" style="fill:#fc2513;"/><path d="M112,770l0,14c0,0 -9.531,0 -14,-0.001c-3.49,0.001 -14,0 -14,0l0,-13.999c0,-7.732 6.268,-14 14,-14c7.732,0 14,6.268 14,14Z" style="fill:#fc2513;fill-rule:nonzero;"/><path d="M266,756l14,0l0,28l-14,0c-7.735,0 -14,-6.271 -14,-14c0,-7.73 6.265,-14 14,-14Z" style="fill:#fc2513;fill-rule:nonzero;"/><path d="M308,756l-28,0l0,28c15.464,0 28,-12.536 28,-28Z" style="fill:#fc2513;fill-rule:nonzero;"/><path d="M364,770l0,14c0,0 -9.531,0 -14,-0.001c-3.49,0.001 -14,0 -14,0l0,-13.999c0,-7.732 6.268,-14 14,-14c7.732,0 14,6.268 14,14Z" style="fill:#fc2513;fill-rule:nonzero;"/><rect x="420" y="756" width="28" height="28" style="fill:#fc2513;"/><rect x="448" y="756" width="28" height="28" style="fill:#fc2513;"/><rect x="476" y="756" width="28" height="28" style="fill:#fc2513;"/><path d="M518,784l-14,0l0,-14l0,-14l14,0c7.732,0 14,6.268 14,14c0,7.732 -6.268,14 -14,14Z" style="fill:#fc2513;fill-rule:nonzero;"/><rect x="588" y="756" width="28" height="28" style="fill:#fc2513;"/><path d="M616,756l0,28l28,0c0,-15.464 -12.536,-28 -28,-28Z" style="fill:#fc2513;fill-rule:nonzero;"/><rect x="672" y="756" width="28" height="28" style="fill:#fc2513;"/><path d="M812,784l28,0l0,-28c-15.464,0 -28,12.536 -28,28Z" style="fill:#fc2513;fill-rule:nonzero;"/><path d="M868,756l-28,0l0,28c15.464,0 28,-12.536 28,-28Z" style="fill:#fc2513;fill-rule:nonzero;"/><path d="M896,770l0,-14l28,0l0,14c0,7.732 -6.268,14 -14,14c-7.732,0 -14,-6.268 -14,-14Z" style="fill:#fc2513;fill-rule:nonzero;"/><rect x="1008" y="756" width="28" height="28" style="fill:#fc2513;"/><rect x="1064" y="756" width="28" height="28" style="fill:#fc2513;"/><path d="M70,784l14,0l0,28l-14,0c-7.735,0 -14,-6.271 -14,-14c0,-7.73 6.265,-14 14,-14Z" style="fill:#fc2513;fill-rule:nonzero;"/><path d="M112,784l-28,0l0,28c15.464,0 28,-12.536 28,-28Z" style="fill:#fc2513;fill-rule:nonzero;"/><path d="M140,812l28,0l0,-28c-15.464,0 -28,12.536 -28,28Z" style="fill:#fc2513;fill-rule:nonzero;"/><path d="M182,812l-14,0l0,-14l0,-14l14,0c7.732,0 14,6.268 14,14c0,7.732 -6.268,14 -14,14Z" style="fill:#fc2513;fill-rule:nonzero;"/><path d="M238,784c7.732,0 14,6.268 14,14c0,7.732 -6.268,14 -14,14c-7.732,0 -14,-6.268 -14,-14c0,-7.732 6.268,-14 14,-14Z" style="fill:#fc2513;fill-rule:nonzero;"/><path d="M308,812l28,0l0,-28c-15.464,0 -28,12.536 -28,28Z" style="fill:#fc2513;fill-rule:nonzero;"/><path d="M364,784l-28,0l0,28c15.464,0 28,-12.536 28,-28Z" style="fill:#fc2513;fill-rule:nonzero;"/><path d="M392,812l28,0l0,-28c-15.464,0 -28,12.536 -28,28Z" style="fill:#fc2513;fill-rule:nonzero;"/><rect x="420" y="784" width="28" height="28" style="fill:#fc2513;"/><rect x="448" y="784" width="28" height="28" style="fill:#fc2513;"/><path d="M504,784l-28,0l0,28c15.464,0 28,-12.536 28,-28Z" style="fill:#fc2513;fill-rule:nonzero;"/><path d="M560,798l0,14c0,0 -9.531,0 -14,-0.001c-3.49,0.001 -14,0 -14,0l0,-13.999c0,-7.732 6.268,-14 14,-14c7.732,0 14,6.268 14,14Z" style="fill:#fc2513;fill-rule:nonzero;"/><rect x="588" y="784" width="28" height="28" style="fill:#fc2513;"/><path d="M644,784l-28,0l0,28c15.464,0 28,-12.536 28,-28Z" style="fill:#fc2513;fill-rule:nonzero;"/><rect x="672" y="784" width="28" height="28" style="fill:#fc2513;"/><path d="M714,812l-14,0l0,-14l0,-14l14,0c7.732,0 14,6.268 14,14c0,7.732 -6.268,14 -14,14Z" style="fill:#fc2513;fill-rule:nonzero;"/><path d="M784,812l28,0l0,-28c-15.464,0 -28,12.536 -28,28Z" style="fill:#fc2513;fill-rule:nonzero;"/><rect x="812" y="784" width="28" height="28" style="fill:#fc2513;"/><path d="M938,784c7.732,0 14,6.268 14,14c0,7.732 -6.268,14 -14,14c-7.732,0 -14,-6.268 -14,-14c0,-7.732 6.268,-14 14,-14Z" style="fill:#fc2513;fill-rule:nonzero;"/><path d="M1008,798l0,-14l28,0l0,14c0,7.732 -6.268,14 -14,14c-7.732,0 -14,-6.268 -14,-14Z" style="fill:#fc2513;fill-rule:nonzero;"/><rect x="1064" y="784" width="28" height="28" style="fill:#fc2513;"/><path d="M126,812l14,0l0,28l-14,0c-7.735,0 -14,-6.271 -14,-14c0,-7.73 6.265,-14 14,-14Z" style="fill:#fc2513;fill-rule:nonzero;"/><rect x="140" y="812" width="28" height="28" style="fill:#fc2513;"/><path d="M224,826l0,14c0,0 -9.531,0 -14,-0.001c-3.49,0.001 -14,0 -14,0l0,-13.999c0,-7.732 6.268,-14 14,-14c7.732,0 14,6.268 14,14Z" style="fill:#fc2513;fill-rule:nonzero;"/><path d="M280,840l28,0l0,-28c-15.464,0 -28,12.536 -28,28Z" style="fill:#fc2513;fill-rule:nonzero;"/><path d="M336,812l-28,0l0,28c15.464,0 28,-12.536 28,-28Z" style="fill:#fc2513;fill-rule:nonzero;"/><path d="M364,840l28,0l0,-28c-15.464,0 -28,12.536 -28,28Z" style="fill:#fc2513;fill-rule:nonzero;"/><path d="M420,812l-28,0l0,28c15.464,0 28,-12.536 28,-28Z" style="fill:#fc2513;fill-rule:nonzero;"/><rect x="448" y="812" width="28" height="28" style="fill:#fc2513;"/><path d="M504,840l28,0l0,-28c-15.464,0 -28,12.536 -28,28Z" style="fill:#fc2513;fill-rule:nonzero;"/><rect x="532" y="812" width="28" height="28" style="fill:#fc2513;"/><rect x="560" y="812" width="28" height="28" style="fill:#fc2513;"/><path d="M616,812l-28,0l0,28c15.464,0 28,-12.536 28,-28Z" style="fill:#fc2513;fill-rule:nonzero;"/><path d="M672,826l0,-14l28,0l0,14c0,7.732 -6.268,14 -14,14c-7.732,0 -14,-6.268 -14,-14Z" style="fill:#fc2513;fill-rule:nonzero;"/><rect x="784" y="812" width="28" height="28" style="fill:#fc2513;"/><path d="M840,812l-28,0l0,28c15.464,0 28,-12.536 28,-28Z" style="fill:#fc2513;fill-rule:nonzero;"/><path d="M868,840l28,0l0,-28c-15.464,0 -28,12.536 -28,28Z" style="fill:#fc2513;fill-rule:nonzero;"/><path d="M896,812l0,28l28,0c0,-15.464 -12.536,-28 -28,-28Z" style="fill:#fc2513;fill-rule:nonzero;"/><path d="M1008,826l0,14c0,0 -9.531,0 -14,-0.001c-3.49,0.001 -14,0 -14,0l0,-13.999c0,-7.732 6.268,-14 14,-14c7.732,0 14,6.268 14,14Z" style="fill:#fc2513;fill-rule:nonzero;"/><path d="M1050,812l14,0l0,28l-14,0c-7.735,0 -14,-6.271 -14,-14c0,-7.73 6.265,-14 14,-14Z" style="fill:#fc2513;fill-rule:nonzero;"/><path d="M1092,812l-28,0l0,28c15.464,0 28,-12.536 28,-28Z" style="fill:#fc2513;fill-rule:nonzero;"/><path d="M70,840l14,0l0,28l-14,0c-7.735,0 -14,-6.271 -14,-14c0,-7.73 6.265,-14 14,-14Z" style="fill:#fc2513;fill-rule:nonzero;"/><path d="M98,868l-14,0l0,-14l0,-14l14,0c7.732,0 14,6.268 14,14c0,7.732 -6.268,14 -14,14Z" style="fill:#fc2513;fill-rule:nonzero;"/><path d="M168,868l0,-28l-28,0c0,15.464 12.536,28 28,28Z" style="fill:#fc2513;fill-rule:nonzero;"/><rect x="168" y="840" width="28" height="28" style="fill:#fc2513;"/><rect x="196" y="840" width="28" height="28" style="fill:#fc2513;"/><path d="M238,868l-14,0l0,-14l0,-14l14,0c7.732,0 14,6.268 14,14c0,7.732 -6.268,14 -14,14Z" style="fill:#fc2513;fill-rule:nonzero;"/><rect x="280" y="840" width="28" height="28" style="fill:#fc2513;"/><rect x="364" y="840" width="28" height="28" style="fill:#fc2513;"/><path d="M448,854l0,-14l28,0l0,14c0,7.732 -6.268,14 -14,14c-7.732,0 -14,-6.268 -14,-14Z" style="fill:#fc2513;fill-rule:nonzero;"/><path d="M504,854l0,-14l28,0l0,14c0,7.732 -6.268,14 -14,14c-7.732,0 -14,-6.268 -14,-14Z" style="fill:#fc2513;fill-rule:nonzero;"/><path d="M644,854l0,14c0,0 -9.531,0 -14,-0.001c-3.49,0.001 -14,0 -14,0l0,-13.999c0,-7.732 6.268,-14 14,-14c7.732,0 14,6.268 14,14Z" style="fill:#fc2513;fill-rule:nonzero;"/><path d="M714,840l14,0l0,28l-14,0c-7.735,0 -14,-6.271 -14,-14c0,-7.73 6.265,-14 14,-14Z" style="fill:#fc2513;fill-rule:nonzero;"/><path d="M728,840l0,28l28,0c0,-15.464 -12.536,-28 -28,-28Z" style="fill:#fc2513;fill-rule:nonzero;"/><rect x="784" y="840" width="28" height="28" style="fill:#fc2513;"/><path d="M840,868l28,0l0,-28c-15.464,0 -28,12.536 -28,28Z" style="fill:#fc2513;fill-rule:nonzero;"/><rect x="868" y="840" width="28" height="28" style="fill:#fc2513;"/><rect x="896" y="840" width="28" height="28" style="fill:#fc2513;"/><rect x="924" y="840" width="28" height="28" style="fill:#fc2513;"/><rect x="952" y="840" width="28" height="28" style="fill:#fc2513;"/><path d="M1008,840l-28,0l0,28c15.464,0 28,-12.536 28,-28Z" style="fill:#fc2513;fill-rule:nonzero;"/><rect x="280" y="868" width="28" height="28" style="fill:#fc2513;"/><path d="M322,896l-14,0l0,-14l0,-14l14,0c7.732,0 14,6.268 14,14c0,7.732 -6.268,14 -14,14Z" style="fill:#fc2513;fill-rule:nonzero;"/><rect x="364" y="868" width="28" height="28" style="fill:#fc2513;"/><path d="M406,896l-14,0l0,-14l0,-14l14,0c7.732,0 14,6.268 14,14c0,7.732 -6.268,14 -14,14Z" style="fill:#fc2513;fill-rule:nonzero;"/><path d="M490,868c7.732,0 14,6.268 14,14c0,7.732 -6.268,14 -14,14c-7.732,0 -14,-6.268 -14,-14c0,-7.732 6.268,-14 14,-14Z" style="fill:#fc2513;fill-rule:nonzero;"/><path d="M574,868c7.732,0 14,6.268 14,14c0,7.732 -6.268,14 -14,14c-7.732,0 -14,-6.268 -14,-14c0,-7.732 6.268,-14 14,-14Z" style="fill:#fc2513;fill-rule:nonzero;"/><path d="M644,896l0,-28l-28,0c0,15.464 12.536,28 28,28Z" style="fill:#fc2513;fill-rule:nonzero;"/><path d="M644,868l0,28l28,0c0,-15.464 -12.536,-28 -28,-28Z" style="fill:#fc2513;fill-rule:nonzero;"/><rect x="728" y="868" width="28" height="28" style="fill:#fc2513;"/><rect x="784" y="868" width="28" height="28" style="fill:#fc2513;"/><rect x="840" y="868" width="28" height="28" style="fill:#fc2513;"/><rect x="952" y="868" width="28" height="28" style="fill:#fc2513;"/><path d="M1008,896l28,0l0,-28c-15.464,0 -28,12.536 -28,28Z" style="fill:#fc2513;fill-rule:nonzero;"/><rect x="1036" y="868" width="28" height="28" style="fill:#fc2513;"/><path d="M1064,868l0,28l28,0c0,-15.464 -12.536,-28 -28,-28Z" style="fill:#fc2513;fill-rule:nonzero;"/><rect x="280" y="896" width="28" height="28" style="fill:#fc2513;"/><path d="M364,910l0,-14l28,0l0,14c0,7.732 -6.268,14 -14,14c-7.732,0 -14,-6.268 -14,-14Z" style="fill:#fc2513;fill-rule:nonzero;"/><path d="M434,896l14,0l0,28l-14,0c-7.735,0 -14,-6.271 -14,-14c0,-7.73 6.265,-14 14,-14Z" style="fill:#fc2513;fill-rule:nonzero;"/><path d="M448,896l0,28l28,0c0,-15.464 -12.536,-28 -28,-28Z" style="fill:#fc2513;fill-rule:nonzero;"/><path d="M644,910l0,-14l28,0l0,14c0,7.732 -6.268,14 -14,14c-7.732,0 -14,-6.268 -14,-14Z" style="fill:#fc2513;fill-rule:nonzero;"/><path d="M714,896l14,0l0,28l-14,0c-7.735,0 -14,-6.271 -14,-14c0,-7.73 6.265,-14 14,-14Z" style="fill:#fc2513;fill-rule:nonzero;"/><rect x="728" y="896" width="28" height="28" style="fill:#fc2513;"/><rect x="756" y="896" width="28" height="28" style="fill:#fc2513;"/><rect x="784" y="896" width="28" height="28" style="fill:#fc2513;"/><rect x="812" y="896" width="28" height="28" style="fill:#fc2513;"/><rect x="840" y="896" width="28" height="28" style="fill:#fc2513;"/><path d="M910,896c7.732,0 14,6.268 14,14c0,7.732 -6.268,14 -14,14c-7.732,0 -14,-6.268 -14,-14c0,-7.732 6.268,-14 14,-14Z" style="fill:#fc2513;fill-rule:nonzero;"/><rect x="952" y="896" width="28" height="28" style="fill:#fc2513;"/><path d="M1008,910l0,-14l28,0l0,14c0,7.732 -6.268,14 -14,14c-7.732,0 -14,-6.268 -14,-14Z" style="fill:#fc2513;fill-rule:nonzero;"/><rect x="1064" y="896" width="28" height="28" style="fill:#fc2513;"/><path d="M308,952l0,-28l-28,0c0,15.464 12.536,28 28,28Z" style="fill:#fc2513;fill-rule:nonzero;"/><path d="M308,924l0,28l28,0c0,-15.464 -12.536,-28 -28,-28Z" style="fill:#fc2513;fill-rule:nonzero;"/><path d="M420,938l0,14c0,0 -9.531,0 -14,-0.001c-3.49,0.001 -14,0 -14,0l0,-13.999c0,-7.732 6.268,-14 14,-14c7.732,0 14,6.268 14,14Z" style="fill:#fc2513;fill-rule:nonzero;"/><rect x="448" y="924" width="28" height="28" style="fill:#fc2513;"/><rect x="476" y="924" width="28" height="28" style="fill:#fc2513;"/><rect x="504" y="924" width="28" height="28" style="fill:#fc2513;"/><rect x="532" y="924" width="28" height="28" style="fill:#fc2513;"/><path d="M560,924l0,28l28,0c0,-15.464 -12.536,-28 -28,-28Z" style="fill:#fc2513;fill-rule:nonzero;"/><path d="M686,924c7.732,0 14,6.268 14,14c0,7.732 -6.268,14 -14,14c-7.732,0 -14,-6.268 -14,-14c0,-7.732 6.268,-14 14,-14Z" style="fill:#fc2513;fill-rule:nonzero;"/><rect x="728" y="924" width="28" height="28" style="fill:#fc2513;"/><path d="M812,952l0,-28l-28,0c0,15.464 12.536,28 28,28Z" style="fill:#fc2513;fill-rule:nonzero;"/><rect x="812" y="924" width="28" height="28" style="fill:#fc2513;"/><rect x="840" y="924" width="28" height="28" style="fill:#fc2513;"/><rect x="952" y="924" width="28" height="28" style="fill:#fc2513;"/><path d="M994,952l-14,0l0,-14l0,-14l14,0c7.732,0 14,6.268 14,14c0,7.732 -6.268,14 -14,14Z" style="fill:#fc2513;fill-rule:nonzero;"/><rect x="1064" y="924" width="28" height="28" style="fill:#fc2513;"/><path d="M336,980l0,-28l-28,0c0,15.464 12.536,28 28,28Z" style="fill:#fc2513;fill-rule:nonzero;"/><path d="M336,952l0,28l28,0c0,-15.464 -12.536,-28 -28,-28Z" style="fill:#fc2513;fill-rule:nonzero;"/><rect x="392" y="952" width="28" height="28" style="fill:#fc2513;"/><rect x="448" y="952" width="28" height="28" style="fill:#fc2513;"/><rect x="504" y="952" width="28" height="28" style="fill:#fc2513;"/><rect x="532" y="952" width="28" height="28" style="fill:#fc2513;"/><rect x="560" y="952" width="28" height="28" style="fill:#fc2513;"/><path d="M644,966l0,14c0,0 -9.531,0 -14,-0.001c-3.49,0.001 -14,0 -14,0l0,-13.999c0,-7.732 6.268,-14 14,-14c7.732,0 14,6.268 14,14Z" style="fill:#fc2513;fill-rule:nonzero;"/><path d="M714,952l14,0l0,28l-14,0c-7.735,0 -14,-6.271 -14,-14c0,-7.73 6.265,-14 14,-14Z" style="fill:#fc2513;fill-rule:nonzero;"/><rect x="728" y="952" width="28" height="28" style="fill:#fc2513;"/><rect x="812" y="952" width="28" height="28" style="fill:#fc2513;"/><rect x="840" y="952" width="28" height="28" style="fill:#fc2513;"/><rect x="868" y="952" width="28" height="28" style="fill:#fc2513;"/><rect x="896" y="952" width="28" height="28" style="fill:#fc2513;"/><rect x="924" y="952" width="28" height="28" style="fill:#fc2513;"/><rect x="952" y="952" width="28" height="28" style="fill:#fc2513;"/><path d="M1050,952l14,0l0,28l-14,0c-7.735,0 -14,-6.271 -14,-14c0,-7.73 6.265,-14 14,-14Z" style="fill:#fc2513;fill-rule:nonzero;"/><rect x="1064" y="952" width="28" height="28" style="fill:#fc2513;"/><path d="M364,1008l0,-28l-28,0c0,15.464 12.536,28 28,28Z" style="fill:#fc2513;fill-rule:nonzero;"/><rect x="364" y="980" width="28" height="28" style="fill:#fc2513;"/><rect x="392" y="980" width="28" height="28" style="fill:#fc2513;"/><rect x="448" y="980" width="28" height="28" style="fill:#fc2513;"/><rect x="476" y="980" width="28" height="28" style="fill:#fc2513;"/><rect x="504" y="980" width="28" height="28" style="fill:#fc2513;"/><rect x="532" y="980" width="28" height="28" style="fill:#fc2513;"/><rect x="560" y="980" width="28" height="28" style="fill:#fc2513;"/><rect x="588" y="980" width="28" height="28" style="fill:#fc2513;"/><rect x="616" y="980" width="28" height="28" style="fill:#fc2513;"/><rect x="728" y="980" width="28" height="28" style="fill:#fc2513;"/><path d="M812,994l0,-14l28,0l0,14c0,7.732 -6.268,14 -14,14c-7.732,0 -14,-6.268 -14,-14Z" style="fill:#fc2513;fill-rule:nonzero;"/><rect x="868" y="980" width="28" height="28" style="fill:#fc2513;"/><rect x="952" y="980" width="28" height="28" style="fill:#fc2513;"/><path d="M980,980l0,28l28,0c0,-15.464 -12.536,-28 -28,-28Z" style="fill:#fc2513;fill-rule:nonzero;"/><rect x="1064" y="980" width="28" height="28" style="fill:#fc2513;"/><path d="M294,1008l14,0l0,28l-14,0c-7.735,0 -14,-6.271 -14,-14c0,-7.73 6.265,-14 14,-14Z" style="fill:#fc2513;fill-rule:nonzero;"/><path d="M308,1008l0,28l28,0c0,-15.464 -12.536,-28 -28,-28Z" style="fill:#fc2513;fill-rule:nonzero;"/><path d="M392,1036l0,-28l-28,0c0,15.464 12.536,28 28,28Z" style="fill:#fc2513;fill-rule:nonzero;"/><rect x="392" y="1008" width="28" height="28" style="fill:#fc2513;"/><rect x="448" y="1008" width="28" height="28" style="fill:#fc2513;"/><rect x="504" y="1008" width="28" height="28" style="fill:#fc2513;"/><rect x="588" y="1008" width="28" height="28" style="fill:#fc2513;"/><rect x="616" y="1008" width="28" height="28" style="fill:#fc2513;"/><rect x="644" y="1008" width="28" height="28" style="fill:#fc2513;"/><path d="M686,1036l-14,0l0,-14l0,-14l14,0c7.732,0 14,6.268 14,14c0,7.732 -6.268,14 -14,14Z" style="fill:#fc2513;fill-rule:nonzero;"/><rect x="728" y="1008" width="28" height="28" style="fill:#fc2513;"/><path d="M770,1036l-14,0l0,-14l0,-14l14,0c7.732,0 14,6.268 14,14c0,7.732 -6.268,14 -14,14Z" style="fill:#fc2513;fill-rule:nonzero;"/><path d="M868,1022l0,-14l28,0l0,14c0,7.732 -6.268,14 -14,14c-7.732,0 -14,-6.268 -14,-14Z" style="fill:#fc2513;fill-rule:nonzero;"/><path d="M980,1036l0,-28l-28,0c0,15.464 12.536,28 28,28Z" style="fill:#fc2513;fill-rule:nonzero;"/><rect x="980" y="1008" width="28" height="28" style="fill:#fc2513;"/><path d="M1050,1008l14,0l0,28l-14,0c-7.735,0 -14,-6.271 -14,-14c0,-7.73 6.265,-14 14,-14Z" style="fill:#fc2513;fill-rule:nonzero;"/><path d="M1092,1008l-28,0l0,28c15.464,0 28,-12.536 28,-28Z" style="fill:#fc2513;fill-rule:nonzero;"/><rect x="308" y="1036" width="28" height="28" style="fill:#fc2513;"/><rect x="392" y="1036" width="28" height="28" style="fill:#fc2513;"/><rect x="420" y="1036" width="28" height="28" style="fill:#fc2513;"/><rect x="448" y="1036" width="28" height="28" style="fill:#fc2513;"/><rect x="476" y="1036" width="28" height="28" style="fill:#fc2513;"/><rect x="504" y="1036" width="28" height="28" style="fill:#fc2513;"/><path d="M532,1036l0,28l28,0c0,-15.464 -12.536,-28 -28,-28Z" style="fill:#fc2513;fill-rule:nonzero;"/><rect x="588" y="1036" width="28" height="28" style="fill:#fc2513;"/><path d="M714,1036l14,0l0,28l-14,0c-7.735,0 -14,-6.271 -14,-14c0,-7.73 6.265,-14 14,-14Z" style="fill:#fc2513;fill-rule:nonzero;"/><rect x="728" y="1036" width="28" height="28" style="fill:#fc2513;"/><path d="M798,1036c7.732,0 14,6.268 14,14c0,7.732 -6.268,14 -14,14c-7.732,0 -14,-6.268 -14,-14c0,-7.732 6.268,-14 14,-14Z" style="fill:#fc2513;fill-rule:nonzero;"/><path d="M980,1050l0,-14l28,0l0,14c0,7.732 -6.268,14 -14,14c-7.732,0 -14,-6.268 -14,-14Z" style="fill:#fc2513;fill-rule:nonzero;"/><path d="M308,1078l0,-14l28,0l0,14c0,7.732 -6.268,14 -14,14c-7.732,0 -14,-6.268 -14,-14Z" style="fill:#fc2513;fill-rule:nonzero;"/><path d="M420,1092l0,-28l-28,0c0,15.464 12.536,28 28,28Z" style="fill:#fc2513;fill-rule:nonzero;"/><rect x="420" y="1064" width="28" height="28" style="fill:#fc2513;"/><path d="M476,1064l-28,0l0,28c15.464,0 28,-12.536 28,-28Z" style="fill:#fc2513;fill-rule:nonzero;"/><path d="M532,1078l0,-14l28,0l0,14c0,7.732 -6.268,14 -14,14c-7.732,0 -14,-6.268 -14,-14Z" style="fill:#fc2513;fill-rule:nonzero;"/><path d="M588,1078l0,-14l28,0l0,14c0,7.732 -6.268,14 -14,14c-7.732,0 -14,-6.268 -14,-14Z" style="fill:#fc2513;fill-rule:nonzero;"/><path d="M658,1064l14,0l0,28l-14,0c-7.735,0 -14,-6.271 -14,-14c0,-7.73 6.265,-14 14,-14Z" style="fill:#fc2513;fill-rule:nonzero;"/><path d="M686,1092l-14,0l0,-14l0,-14l14,0c7.732,0 14,6.268 14,14c0,7.732 -6.268,14 -14,14Z" style="fill:#fc2513;fill-rule:nonzero;"/><path d="M756,1092l0,-28l-28,0c0,15.464 12.536,28 28,28Z" style="fill:#fc2513;fill-rule:nonzero;"/><path d="M770,1092l-14,0l0,-14l0,-14l14,0c7.732,0 14,6.268 14,14c0,7.732 -6.268,14 -14,14Z" style="fill:#fc2513;fill-rule:nonzero;"/><path d="M854,1064l14,0l0,28l-14,0c-7.735,0 -14,-6.271 -14,-14c0,-7.73 6.265,-14 14,-14Z" style="fill:#fc2513;fill-rule:nonzero;"/><rect x="868" y="1064" width="28" height="28" style="fill:#fc2513;"/><path d="M910,1092l-14,0l0,-14l0,-14l14,0c7.732,0 14,6.268 14,14c0,7.732 -6.268,14 -14,14Z" style="fill:#fc2513;fill-rule:nonzero;"/><path d="M966,1064c7.732,0 14,6.268 14,14c0,7.732 -6.268,14 -14,14c-7.732,0 -14,-6.268 -14,-14c0,-7.732 6.268,-14 14,-14Z" style="fill:#fc2513;fill-rule:nonzero;"/><path d="M1022,1064c7.732,0 14,6.268 14,14c0,7.732 -6.268,14 -14,14c-7.732,0 -14,-6.268 -14,-14c0,-7.732 6.268,-14 14,-14Z" style="fill:#fc2513;fill-rule:nonzero;"/><path d="M1078,1064c7.732,0 14,6.268 14,14c0,7.732 -6.268,14 -14,14c-7.732,0 -14,-6.268 -14,-14c0,-7.732 6.268,-14 14,-14Z" style="fill:#fc2513;fill-rule:nonzero;"/><g><path d="M185.084,85.416l-62.168,0c-8,0 -15.423,2.465 -21.518,6.66c-4.742,3.263 -8.679,7.573 -11.463,12.585c-2.893,5.208 -4.535,11.17 -4.535,17.505l0,63.643c0,20.274 16.829,36.769 37.524,36.769l31.076,0.006l31.076,-0.008c20.695,0 37.524,-16.495 37.524,-36.767l0,-63.643c0,-20.265 -16.829,-36.75 -37.516,-36.75Z" style="fill:none;fill-rule:nonzero;"/><path d="M185.084,56.016l-62.168,0c-30.297,0 -55.965,20.017 -64.172,47.377c-0.849,2.83 -1.511,5.739 -1.972,8.712c-0.507,3.281 -0.772,6.64 -0.772,10.061l0,63.643c0,36.493 30.027,66.169 66.916,66.169l31.084,0.006l31.084,-0.008c36.887,0 66.916,-29.676 66.916,-66.169l0,-63.641c0,-36.476 -30.027,-66.15 -66.916,-66.15Zm37.516,129.793c0,20.274 -16.829,36.769 -37.524,36.769l-31.076,0.006l-31.076,-0.008c-20.695,0 -37.524,-16.495 -37.524,-36.767l0,-63.643c0,-6.333 1.642,-12.295 4.533,-17.505c2.784,-5.012 6.721,-9.322 11.463,-12.585c6.095,-4.197 13.518,-6.66 21.518,-6.66l62.17,0c20.687,0 37.516,16.485 37.516,36.75l0,63.643Z" style="fill:#fc2513;fill-rule:nonzero;"/></g><g><path d="M1025.08,85.416l-62.168,0c-8,0 -15.423,2.465 -21.518,6.66c-4.742,3.263 -8.679,7.573 -11.463,12.585c-2.893,5.208 -4.535,11.17 -4.535,17.505l0,63.643c0,20.274 16.829,36.769 37.524,36.769l31.076,0.006l31.076,-0.008c20.695,0 37.524,-16.495 37.524,-36.767l0,-63.643c0,-20.265 -16.829,-36.75 -37.516,-36.75Z" style="fill:none;fill-rule:nonzero;"/><path d="M1025.08,56.016l-62.168,0c-30.297,0 -55.965,20.017 -64.172,47.377c-0.849,2.83 -1.511,5.739 -1.972,8.712c-0.507,3.281 -0.772,6.64 -0.772,10.061l0,63.643c0,36.493 30.027,66.169 66.916,66.169l31.084,0.006l31.084,-0.008c36.887,0 66.916,-29.676 66.916,-66.169l0,-63.641c0,-36.476 -30.027,-66.15 -66.916,-66.15Zm37.516,129.793c0,20.274 -16.829,36.769 -37.524,36.769l-31.076,0.006l-31.076,-0.008c-20.695,0 -37.524,-16.495 -37.524,-36.767l0,-63.643c0,-6.333 1.642,-12.295 4.533,-17.505c2.784,-5.012 6.721,-9.322 11.463,-12.585c6.095,-4.197 13.518,-6.66 21.518,-6.66l62.17,0c20.687,0 37.516,16.485 37.516,36.75l0,63.643Z" style="fill:#fc2513;fill-rule:nonzero;"/></g><g><path d="M185.084,925.416l-62.168,0c-8,0 -15.423,2.465 -21.518,6.66c-4.742,3.263 -8.679,7.573 -11.463,12.585c-2.893,5.208 -4.535,11.17 -4.535,17.505l0,63.643c0,20.274 16.829,36.769 37.524,36.769l31.076,0.006l31.076,-0.008c20.695,0 37.524,-16.495 37.524,-36.767l0,-63.643c0,-20.265 -16.829,-36.75 -37.516,-36.75Z" style="fill:none;fill-rule:nonzero;"/><path d="M185.084,896.016l-62.168,0c-30.297,0 -55.965,20.017 -64.172,47.377c-0.849,2.83 -1.511,5.739 -1.972,8.712c-0.507,3.281 -0.772,6.64 -0.772,10.061l0,63.643c0,36.493 30.027,66.169 66.916,66.169l31.084,0.006l31.084,-0.008c36.887,0 66.916,-29.676 66.916,-66.169l0,-63.641c0,-36.476 -30.027,-66.15 -66.916,-66.15Zm37.516,129.793c0,20.274 -16.829,36.769 -37.524,36.769l-31.076,0.006l-31.076,-0.008c-20.695,0 -37.524,-16.495 -37.524,-36.767l0,-63.643c0,-6.333 1.642,-12.295 4.533,-17.505c2.784,-5.012 6.721,-9.322 11.463,-12.585c6.095,-4.197 13.518,-6.66 21.518,-6.66l62.17,0c20.687,0 37.516,16.485 37.516,36.75l0,63.643Z" style="fill:#fc2513;fill-rule:nonzero;"/></g><g id="XMLID_1_"><path d="M134.975,196c-12.676,0 -22.987,-10.107 -22.987,-22.519l0,-38.974c0,-3.877 1.008,-7.526 2.773,-10.719c1.704,-3.073 4.117,-5.714 7.022,-7.706c3.733,-2.569 8.282,-4.082 13.179,-4.082l38.075,0c12.664,0 22.975,10.095 22.975,22.506l0,38.974c0,12.411 -10.31,22.519 -22.975,22.519l-19.037,0l-19.025,0l0,0.001Z" style="fill:#fc2513;fill-rule:nonzero;"/></g><g id="XMLID_1_1" serif:id="XMLID_1_"><path d="M974.975,196c-12.676,0 -22.987,-10.107 -22.987,-22.519l0,-38.974c0,-3.877 1.008,-7.526 2.773,-10.719c1.704,-3.073 4.117,-5.714 7.022,-7.706c3.733,-2.569 8.282,-4.082 13.179,-4.082l38.075,0c12.664,0 22.975,10.095 22.975,22.506l0,38.974c0,12.411 -10.31,22.519 -22.975,22.519l-19.037,0l-19.025,0l0,0.001Z" style="fill:#fc2513;fill-rule:nonzero;"/></g><g id="XMLID_1_2" serif:id="XMLID_1_"><path d="M134.975,1036c-12.676,0 -22.987,-10.107 -22.987,-22.519l0,-38.974c0,-3.877 1.008,-7.526 2.773,-10.719c1.704,-3.073 4.117,-5.714 7.022,-7.706c3.733,-2.569 8.282,-4.082 13.179,-4.082l38.075,0c12.664,0 22.975,10.095 22.975,22.506l0,38.974c0,12.411 -10.31,22.519 -22.975,22.519l-19.037,0l-19.025,0l0,0.001Z" style="fill:#fc2513;fill-rule:nonzero;"/></g></g><g><path d="M441.693,550.821l-33.755,10.178l27.07,121.042l34.59,-10.65l-11.887,-52.779l43.03,43.345l39.391,-11.802l-52.788,-48.986l25.054,-72.447l-38.615,11.547l-18.935,64.715l-13.155,-54.163Z" style="fill:#fc2513;"/><path d="M574.64,509.846l33.643,-10.246l34.48,73.013l-4.092,-82.251l38.978,-12.476l31.502,73.86l-1.154,-83.185l33.748,-10.202l-3.428,130.632l-38.36,11.808l-33.785,-80.546l5.474,89.453l-39.053,11.095l-57.953,-110.955Z" style="fill:#fc2513;"/><g><path d="M585.123,572.839c-13.808,3.137 -19.634,10.924 -23.422,22.479c-8.605,-8.739 -17.341,-13.219 -31.149,-10.082c-16.389,3.723 -26.81,19.027 -23.23,34.113c2.189,9.224 7.574,16.823 16.946,23.916c13.565,10.264 33.45,17.939 54.03,29.651c1.159,0.659 2.702,0.309 3.446,-0.783c21.377,-31.393 45.865,-52.396 39.625,-78.692c-3.58,-15.087 -19.84,-24.329 -36.246,-20.602Zm-6.228,94.94c-32.202,-17.967 -61.141,-26.116 -66.699,-49.537c-2.993,-12.613 5.719,-25.407 19.421,-28.519c11.624,-2.641 19.013,0.361 29.281,11.895c1.288,1.446 3.855,0.865 4.36,-0.991c4.024,-14.781 9.305,-20.661 20.929,-23.301c13.719,-3.117 27.316,4.609 30.309,17.222c5.556,23.414 -16.757,43.181 -37.601,73.231Z" style="fill:#fc2513;fill-rule:nonzero;stroke:#fc2513;stroke-width:19px;"/></g></g></svg>