<svg clip-rule="evenodd" fill-rule="evenodd" stroke-linejoin="round" stroke-miterlimit="2" viewBox="0 0 944 669" xmlns="http://www.w3.org/2000/svg"><g fill="#fc2513"><path d="m95.729 267.321-95.354 29.385 76.469 349.456 97.713-30.748-33.58-152.376 121.554 125.139 111.272-34.072-149.116-141.425 70.773-209.161-109.082 33.338-53.488 186.835-37.161-156.371z"/><path d="m471.283 149.022 95.038-29.581 97.4 210.794-11.56-237.463 110.109-36.021 88.989 213.239-3.26-240.16 95.331-29.455-9.682 377.144-108.361 34.091-95.438-232.543 15.462 258.259-110.319 32.032z"/><g fill-rule="nonzero"><path d="m500.896 330.888c-39.005 9.056-55.462 31.539-66.164 64.899-24.305-25.231-48.985-38.164-87.99-29.108-46.296 10.749-75.734 54.931-65.621 98.488 6.183 26.629 21.394 48.569 47.87 69.044 38.319 29.634 94.492 51.793 152.626 85.605 3.274 1.904 7.633.893 9.736-2.26 60.385-90.633 129.561-151.271 111.935-227.189-10.113-43.557-56.045-70.24-102.392-59.479zm-17.592 274.099c-90.966-51.872-172.716-75.399-188.415-143.017-8.455-36.414 16.156-73.351 54.861-82.337 32.836-7.624 53.709 1.041 82.716 34.341 3.637 4.176 10.888 2.498 12.315-2.859 11.367-42.674 26.286-59.65 59.123-67.273 38.754-8.998 77.161 13.307 85.616 49.722 15.695 67.599-47.334 124.666-106.216 211.423z" stroke="#fc2513" stroke-width="17.19"/><path d="m322.158 419.469c-8.38 11.294-11.467 25.18-8.467 38.1.607 2.614 3.45 4.187 6.35 3.513 2.9-.673 4.759-3.337 4.152-5.951-2.432-10.475-.029-21.288 6.767-30.447 1.694-2.283 1.097-5.3-1.334-6.74-2.431-1.441-5.774-.757-7.468 1.525z"/><path d="m505.1 362.793c-2.932.681-4.816 3.361-4.207 5.987.61 2.625 3.482 4.201 6.414 3.52 23.325-5.415 46.239 7.142 51.08 27.993.609 2.625 3.481 4.201 6.414 3.521 2.932-.681 4.816-3.361 4.206-5.987-6.058-26.092-34.727-41.809-63.907-35.034z"/></g></g></svg>