<?xml version="1.0" encoding="UTF-8" standalone="no"?><!DOCTYPE svg PUBLIC "-//W3C//DTD SVG 1.1//EN" "http://www.w3.org/Graphics/SVG/1.1/DTD/svg11.dtd"><svg width="100%" height="100%" viewBox="0 0 1125 1125" version="1.1" xmlns="http://www.w3.org/2000/svg" xmlns:xlink="http://www.w3.org/1999/xlink" xml:space="preserve" xmlns:serif="http://www.serif.com/" style="fill-rule:evenodd;clip-rule:evenodd;stroke-linejoin:round;stroke-miterlimit:2;"><rect x="0" y="0" width="1125" height="1125" style="fill:#fff;"/><g><path d="M275,75l25,0l0,-25c-13.807,0 -25,11.193 -25,25Z" style="fill:#fc2513;fill-rule:nonzero;"/><path d="M312.5,75l-12.5,0l0,-12.5l0,-12.5l12.5,0c6.903,0 12.5,5.596 12.5,12.5c0,6.903 -5.597,12.5 -12.5,12.5Z" style="fill:#fc2513;fill-rule:nonzero;"/><path d="M362.5,50l12.5,0l0,25l-12.5,0c-6.906,0 -12.5,-5.599 -12.5,-12.5c0,-6.902 5.594,-12.5 12.5,-12.5Z" style="fill:#fc2513;fill-rule:nonzero;"/><rect x="375" y="50" width="25" height="25" style="fill:#fc2513;"/><path d="M400,50l0,25l25,0c0,-13.807 -11.193,-25 -25,-25Z" style="fill:#fc2513;fill-rule:nonzero;"/><path d="M500,75l25,0l0,-25c-13.807,0 -25,11.193 -25,25Z" style="fill:#fc2513;fill-rule:nonzero;"/><path d="M525,50l0,25l25,0c0,-13.807 -11.193,-25 -25,-25Z" style="fill:#fc2513;fill-rule:nonzero;"/><path d="M687.5,50c6.904,0 12.5,5.596 12.5,12.5c0,6.904 -5.596,12.5 -12.5,12.5c-6.904,0 -12.5,-5.596 -12.5,-12.5c0,-6.904 5.596,-12.5 12.5,-12.5Z" style="fill:#fc2513;fill-rule:nonzero;"/><path d="M775,62.5l0,12.5c0,0 -8.51,0 -12.5,-0.001c-3.116,0.001 -12.5,0 -12.5,0l0,-12.499c0,-6.903 5.596,-12.5 12.5,-12.5c6.903,0 12.5,5.597 12.5,12.5Z" style="fill:#fc2513;fill-rule:nonzero;"/><path d="M812.5,50c6.904,0 12.5,5.596 12.5,12.5c0,6.904 -5.596,12.5 -12.5,12.5c-6.904,0 -12.5,-5.596 -12.5,-12.5c0,-6.904 5.596,-12.5 12.5,-12.5Z" style="fill:#fc2513;fill-rule:nonzero;"/><path d="M250,100l25,0l0,-25c-13.807,0 -25,11.193 -25,25Z" style="fill:#fc2513;fill-rule:nonzero;"/><rect x="275" y="75" width="25" height="25" style="fill:#fc2513;"/><rect x="375" y="75" width="25" height="25" style="fill:#fc2513;"/><rect x="400" y="75" width="25" height="25" style="fill:#fc2513;"/><rect x="425" y="75" width="25" height="25" style="fill:#fc2513;"/><path d="M450,75l0,25l25,0c0,-13.807 -11.193,-25 -25,-25Z" style="fill:#fc2513;fill-rule:nonzero;"/><path d="M525,100l0,-25l-25,0c0,13.807 11.193,25 25,25Z" style="fill:#fc2513;fill-rule:nonzero;"/><rect x="525" y="75" width="25" height="25" style="fill:#fc2513;"/><rect x="550" y="75" width="25" height="25" style="fill:#fc2513;"/><path d="M587.5,100l-12.5,0l0,-12.5l0,-12.5l12.5,0c6.903,0 12.5,5.596 12.5,12.5c0,6.903 -5.597,12.5 -12.5,12.5Z" style="fill:#fc2513;fill-rule:nonzero;"/><path d="M775,100l0,-25l-25,0c0,13.807 11.193,25 25,25Z" style="fill:#fc2513;fill-rule:nonzero;"/><path d="M775,75l0,25l25,0c0,-13.807 -11.193,-25 -25,-25Z" style="fill:#fc2513;fill-rule:nonzero;"/><rect x="250" y="100" width="25" height="25" style="fill:#fc2513;"/><rect x="275" y="100" width="25" height="25" style="fill:#fc2513;"/><path d="M300,100l0,25l25,0c0,-13.807 -11.193,-25 -25,-25Z" style="fill:#fc2513;fill-rule:nonzero;"/><rect x="375" y="100" width="25" height="25" style="fill:#fc2513;"/><path d="M450,125l0,-25l-25,0c0,13.807 11.193,25 25,25Z" style="fill:#fc2513;fill-rule:nonzero;"/><rect x="450" y="100" width="25" height="25" style="fill:#fc2513;"/><path d="M487.5,125l-12.5,0l0,-12.5l0,-12.5l12.5,0c6.903,0 12.5,5.596 12.5,12.5c0,6.903 -5.597,12.5 -12.5,12.5Z" style="fill:#fc2513;fill-rule:nonzero;"/><rect x="550" y="100" width="25" height="25" style="fill:#fc2513;"/><path d="M650,125l25,0l0,-25c-13.807,0 -25,11.193 -25,25Z" style="fill:#fc2513;fill-rule:nonzero;"/><path d="M687.5,125l-12.5,0l0,-12.5l0,-12.5l12.5,0c6.903,0 12.5,5.596 12.5,12.5c0,6.903 -5.597,12.5 -12.5,12.5Z" style="fill:#fc2513;fill-rule:nonzero;"/><path d="M750,112.5l0,12.5c0,0 -8.51,0 -12.5,-0.001c-3.116,0.001 -12.5,0 -12.5,0l0,-12.499c0,-6.903 5.596,-12.5 12.5,-12.5c6.903,0 12.5,5.597 12.5,12.5Z" style="fill:#fc2513;fill-rule:nonzero;"/><path d="M800,125l0,-25l-25,0c0,13.807 11.193,25 25,25Z" style="fill:#fc2513;fill-rule:nonzero;"/><rect x="800" y="100" width="25" height="25" style="fill:#fc2513;"/><path d="M825,100l0,25l25,0c0,-13.807 -11.193,-25 -25,-25Z" style="fill:#fc2513;fill-rule:nonzero;"/><rect x="250" y="125" width="25" height="25" style="fill:#fc2513;"/><path d="M300,137.5l0,-12.5l25,0l0,12.5c0,6.903 -5.597,12.5 -12.5,12.5c-6.904,0 -12.5,-5.597 -12.5,-12.5Z" style="fill:#fc2513;fill-rule:nonzero;"/><path d="M362.5,125l12.5,0l0,25l-12.5,0c-6.906,0 -12.5,-5.599 -12.5,-12.5c0,-6.902 5.594,-12.5 12.5,-12.5Z" style="fill:#fc2513;fill-rule:nonzero;"/><rect x="375" y="125" width="25" height="25" style="fill:#fc2513;"/><path d="M450,137.5l0,-12.5l25,0l0,12.5c0,6.903 -5.597,12.5 -12.5,12.5c-6.904,0 -12.5,-5.597 -12.5,-12.5Z" style="fill:#fc2513;fill-rule:nonzero;"/><path d="M537.5,125l12.5,0l0,25l-12.5,0c-6.906,0 -12.5,-5.599 -12.5,-12.5c0,-6.902 5.594,-12.5 12.5,-12.5Z" style="fill:#fc2513;fill-rule:nonzero;"/><rect x="550" y="125" width="25" height="25" style="fill:#fc2513;"/><rect x="575" y="125" width="25" height="25" style="fill:#fc2513;"/><rect x="600" y="125" width="25" height="25" style="fill:#fc2513;"/><rect x="625" y="125" width="25" height="25" style="fill:#fc2513;"/><rect x="650" y="125" width="25" height="25" style="fill:#fc2513;"/><path d="M725,137.5l0,-12.5l25,0l0,12.5c0,6.903 -5.597,12.5 -12.5,12.5c-6.904,0 -12.5,-5.597 -12.5,-12.5Z" style="fill:#fc2513;fill-rule:nonzero;"/><path d="M825,150l0,-25l-25,0c0,13.807 11.193,25 25,25Z" style="fill:#fc2513;fill-rule:nonzero;"/><rect x="825" y="125" width="25" height="25" style="fill:#fc2513;"/><path d="M862.5,150l-12.5,0l0,-12.5l0,-12.5l12.5,0c6.903,0 12.5,5.596 12.5,12.5c0,6.903 -5.597,12.5 -12.5,12.5Z" style="fill:#fc2513;fill-rule:nonzero;"/><rect x="250" y="150" width="25" height="25" style="fill:#fc2513;"/><path d="M287.5,175l-12.5,0l0,-12.5l0,-12.5l12.5,0c6.903,0 12.5,5.596 12.5,12.5c0,6.903 -5.597,12.5 -12.5,12.5Z" style="fill:#fc2513;fill-rule:nonzero;"/><path d="M400,175l0,-25l-25,0c0,13.807 11.193,25 25,25Z" style="fill:#fc2513;fill-rule:nonzero;"/><path d="M412.5,175l-12.5,0l0,-12.5l0,-12.5l12.5,0c6.903,0 12.5,5.596 12.5,12.5c0,6.903 -5.597,12.5 -12.5,12.5Z" style="fill:#fc2513;fill-rule:nonzero;"/><path d="M487.5,150l12.5,0l0,25l-12.5,0c-6.906,0 -12.5,-5.599 -12.5,-12.5c0,-6.902 5.594,-12.5 12.5,-12.5Z" style="fill:#fc2513;fill-rule:nonzero;"/><path d="M512.5,175l-12.5,0l0,-12.5l0,-12.5l12.5,0c6.903,0 12.5,5.596 12.5,12.5c0,6.903 -5.597,12.5 -12.5,12.5Z" style="fill:#fc2513;fill-rule:nonzero;"/><rect x="575" y="150" width="25" height="25" style="fill:#fc2513;"/><path d="M650,175l0,-25l-25,0c0,13.807 11.193,25 25,25Z" style="fill:#fc2513;fill-rule:nonzero;"/><path d="M675,150l-25,0l0,25c13.807,0 25,-11.193 25,-25Z" style="fill:#fc2513;fill-rule:nonzero;"/><rect x="250" y="175" width="25" height="25" style="fill:#fc2513;"/><path d="M325,187.5l0,12.5c0,0 -8.51,0 -12.5,-0.001c-3.116,0.001 -12.5,0 -12.5,0l0,-12.499c0,-6.903 5.596,-12.5 12.5,-12.5c6.903,0 12.5,5.596 12.5,12.5Z" style="fill:#fc2513;fill-rule:nonzero;"/><path d="M375,187.5l0,12.5c0,0 -8.51,0 -12.5,-0.001c-3.116,0.001 -12.5,0 -12.5,0l0,-12.499c0,-6.903 5.596,-12.5 12.5,-12.5c6.903,0 12.5,5.596 12.5,12.5Z" style="fill:#fc2513;fill-rule:nonzero;"/><path d="M437.5,175l12.5,0l0,25l-12.5,0c-6.906,0 -12.5,-5.599 -12.5,-12.5c0,-6.902 5.594,-12.5 12.5,-12.5Z" style="fill:#fc2513;fill-rule:nonzero;"/><path d="M450,175l0,25l25,0c0,-13.807 -11.193,-25 -25,-25Z" style="fill:#fc2513;fill-rule:nonzero;"/><path d="M550,200l25,0l0,-25c-13.807,0 -25,11.193 -25,25Z" style="fill:#fc2513;fill-rule:nonzero;"/><path d="M600,175l-25,0l0,25c13.807,0 25,-11.193 25,-25Z" style="fill:#fc2513;fill-rule:nonzero;"/><path d="M687.5,175l12.5,0l0,25l-12.5,0c-6.906,0 -12.5,-5.599 -12.5,-12.5c0,-6.902 5.594,-12.5 12.5,-12.5Z" style="fill:#fc2513;fill-rule:nonzero;"/><path d="M700,175l0,25l25,0c0,-13.807 -11.193,-25 -25,-25Z" style="fill:#fc2513;fill-rule:nonzero;"/><path d="M750,200l25,0l0,-25c-13.807,0 -25,11.193 -25,25Z" style="fill:#fc2513;fill-rule:nonzero;"/><rect x="775" y="175" width="25" height="25" style="fill:#fc2513;"/><path d="M800,175l0,25l25,0c0,-13.807 -11.193,-25 -25,-25Z" style="fill:#fc2513;fill-rule:nonzero;"/><path d="M250,212.5l0,-12.5l25,0l0,12.5c0,6.903 -5.597,12.5 -12.5,12.5c-6.904,0 -12.5,-5.597 -12.5,-12.5Z" style="fill:#fc2513;fill-rule:nonzero;"/><rect x="300" y="200" width="25" height="25" style="fill:#fc2513;"/><path d="M350,212.5l0,-12.5l25,0l0,12.5c0,6.903 -5.597,12.5 -12.5,12.5c-6.904,0 -12.5,-5.597 -12.5,-12.5Z" style="fill:#fc2513;fill-rule:nonzero;"/><path d="M412.5,200c6.904,0 12.5,5.596 12.5,12.5c0,6.904 -5.596,12.5 -12.5,12.5c-6.904,0 -12.5,-5.596 -12.5,-12.5c0,-6.904 5.596,-12.5 12.5,-12.5Z" style="fill:#fc2513;fill-rule:nonzero;"/><rect x="450" y="200" width="25" height="25" style="fill:#fc2513;"/><path d="M512.5,200c6.904,0 12.5,5.596 12.5,12.5c0,6.904 -5.596,12.5 -12.5,12.5c-6.904,0 -12.5,-5.596 -12.5,-12.5c0,-6.904 5.596,-12.5 12.5,-12.5Z" style="fill:#fc2513;fill-rule:nonzero;"/><rect x="550" y="200" width="25" height="25" style="fill:#fc2513;"/><path d="M625,212.5l0,12.5c0,0 -8.51,0 -12.5,-0.001c-3.116,0.001 -12.5,0 -12.5,0l0,-12.499c0,-6.903 5.596,-12.5 12.5,-12.5c6.903,0 12.5,5.596 12.5,12.5Z" style="fill:#fc2513;fill-rule:nonzero;"/><path d="M662.5,200c6.904,0 12.5,5.596 12.5,12.5c0,6.904 -5.596,12.5 -12.5,12.5c-6.904,0 -12.5,-5.596 -12.5,-12.5c0,-6.904 5.596,-12.5 12.5,-12.5Z" style="fill:#fc2513;fill-rule:nonzero;"/><path d="M700,212.5l0,-12.5l25,0l0,12.5c0,6.903 -5.597,12.5 -12.5,12.5c-6.904,0 -12.5,-5.597 -12.5,-12.5Z" style="fill:#fc2513;fill-rule:nonzero;"/><path d="M750,212.5l0,-12.5l25,0l0,12.5c0,6.903 -5.597,12.5 -12.5,12.5c-6.904,0 -12.5,-5.597 -12.5,-12.5Z" style="fill:#fc2513;fill-rule:nonzero;"/><rect x="800" y="200" width="25" height="25" style="fill:#fc2513;"/><path d="M875,212.5l0,12.5c0,0 -8.51,0 -12.5,-0.001c-3.116,0.001 -12.5,0 -12.5,0l0,-12.499c0,-6.903 5.596,-12.5 12.5,-12.5c6.903,0 12.5,5.596 12.5,12.5Z" style="fill:#fc2513;fill-rule:nonzero;"/><path d="M275,250l25,0l0,-25c-13.807,0 -25,11.193 -25,25Z" style="fill:#fc2513;fill-rule:nonzero;"/><rect x="300" y="225" width="25" height="25" style="fill:#fc2513;"/><path d="M325,225l0,25l25,0c0,-13.807 -11.193,-25 -25,-25Z" style="fill:#fc2513;fill-rule:nonzero;"/><rect x="450" y="225" width="25" height="25" style="fill:#fc2513;"/><path d="M537.5,225l12.5,0l0,25l-12.5,0c-6.906,0 -12.5,-5.599 -12.5,-12.5c0,-6.902 5.594,-12.5 12.5,-12.5Z" style="fill:#fc2513;fill-rule:nonzero;"/><rect x="550" y="225" width="25" height="25" style="fill:#fc2513;"/><rect x="575" y="225" width="25" height="25" style="fill:#fc2513;"/><rect x="600" y="225" width="25" height="25" style="fill:#fc2513;"/><path d="M625,225l0,25l25,0c0,-13.807 -11.193,-25 -25,-25Z" style="fill:#fc2513;fill-rule:nonzero;"/><path d="M750,237.5l0,12.5c0,0 -8.51,0 -12.5,-0.001c-3.116,0.001 -12.5,0 -12.5,0l0,-12.499c0,-6.903 5.596,-12.5 12.5,-12.5c6.903,0 12.5,5.596 12.5,12.5Z" style="fill:#fc2513;fill-rule:nonzero;"/><path d="M800,237.5l0,-12.5l25,0l0,12.5c0,6.903 -5.597,12.5 -12.5,12.5c-6.904,0 -12.5,-5.597 -12.5,-12.5Z" style="fill:#fc2513;fill-rule:nonzero;"/><rect x="850" y="225" width="25" height="25" style="fill:#fc2513;"/><path d="M112.5,250c6.904,0 12.5,5.596 12.5,12.5c0,6.904 -5.596,12.5 -12.5,12.5c-6.903,0 -12.5,-5.596 -12.5,-12.5c0,-6.904 5.597,-12.5 12.5,-12.5Z" style="fill:#fc2513;fill-rule:nonzero;"/><path d="M175,275l25,0l0,-25c-13.807,0 -25,11.193 -25,25Z" style="fill:#fc2513;fill-rule:nonzero;"/><rect x="200" y="250" width="25" height="25" style="fill:#fc2513;"/><rect x="225" y="250" width="25" height="25" style="fill:#fc2513;"/><rect x="250" y="250" width="25" height="25" style="fill:#fc2513;"/><rect x="275" y="250" width="25" height="25" style="fill:#fc2513;"/><rect x="300" y="250" width="25" height="25" style="fill:#fc2513;"/><rect x="325" y="250" width="25" height="25" style="fill:#fc2513;"/><rect x="350" y="250" width="25" height="25" style="fill:#fc2513;"/><path d="M375,250l0,25l25,0c0,-13.807 -11.193,-25 -25,-25Z" style="fill:#fc2513;fill-rule:nonzero;"/><path d="M437.5,250l12.5,0l0,25l-12.5,0c-6.906,0 -12.5,-5.599 -12.5,-12.5c0,-6.902 5.594,-12.5 12.5,-12.5Z" style="fill:#fc2513;fill-rule:nonzero;"/><rect x="450" y="250" width="25" height="25" style="fill:#fc2513;"/><rect x="475" y="250" width="25" height="25" style="fill:#fc2513;"/><path d="M512.5,275l-12.5,0l0,-12.5l0,-12.5l12.5,0c6.903,0 12.5,5.596 12.5,12.5c0,6.903 -5.597,12.5 -12.5,12.5Z" style="fill:#fc2513;fill-rule:nonzero;"/><rect x="600" y="250" width="25" height="25" style="fill:#fc2513;"/><path d="M650,250l-25,0l0,25c13.807,0 25,-11.193 25,-25Z" style="fill:#fc2513;fill-rule:nonzero;"/><path d="M687.5,250l12.5,0l0,25l-12.5,0c-6.906,0 -12.5,-5.599 -12.5,-12.5c0,-6.902 5.594,-12.5 12.5,-12.5Z" style="fill:#fc2513;fill-rule:nonzero;"/><rect x="700" y="250" width="25" height="25" style="fill:#fc2513;"/><rect x="725" y="250" width="25" height="25" style="fill:#fc2513;"/><path d="M750,250l0,25l25,0c0,-13.807 -11.193,-25 -25,-25Z" style="fill:#fc2513;fill-rule:nonzero;"/><path d="M875,275l0,-25l-25,0c0,13.807 11.193,25 25,25Z" style="fill:#fc2513;fill-rule:nonzero;"/><path d="M887.5,275l-12.5,0l0,-12.5l0,-12.5l12.5,0c6.903,0 12.5,5.596 12.5,12.5c0,6.903 -5.597,12.5 -12.5,12.5Z" style="fill:#fc2513;fill-rule:nonzero;"/><path d="M925,275l25,0l0,-25c-13.807,0 -25,11.193 -25,25Z" style="fill:#fc2513;fill-rule:nonzero;"/><rect x="950" y="250" width="25" height="25" style="fill:#fc2513;"/><rect x="975" y="250" width="25" height="25" style="fill:#fc2513;"/><rect x="1000" y="250" width="25" height="25" style="fill:#fc2513;"/><path d="M1037.5,275l-12.5,0l0,-12.5l0,-12.5l12.5,0c6.903,0 12.5,5.596 12.5,12.5c0,6.903 -5.597,12.5 -12.5,12.5Z" style="fill:#fc2513;fill-rule:nonzero;"/><path d="M125,300l25,0l0,-25c-13.807,0 -25,11.193 -25,25Z" style="fill:#fc2513;fill-rule:nonzero;"/><rect x="150" y="275" width="25" height="25" style="fill:#fc2513;"/><path d="M200,275l-25,0l0,25c13.807,0 25,-11.193 25,-25Z" style="fill:#fc2513;fill-rule:nonzero;"/><rect x="300" y="275" width="25" height="25" style="fill:#fc2513;"/><rect x="325" y="275" width="25" height="25" style="fill:#fc2513;"/><path d="M400,300l0,-25l-25,0c0,13.807 11.193,25 25,25Z" style="fill:#fc2513;fill-rule:nonzero;"/><path d="M412.5,300l-12.5,0l0,-12.5l0,-12.5l12.5,0c6.903,0 12.5,5.596 12.5,12.5c0,6.903 -5.597,12.5 -12.5,12.5Z" style="fill:#fc2513;fill-rule:nonzero;"/><path d="M550,300l25,0l0,-25c-13.807,0 -25,11.193 -25,25Z" style="fill:#fc2513;fill-rule:nonzero;"/><rect x="575" y="275" width="25" height="25" style="fill:#fc2513;"/><rect x="600" y="275" width="25" height="25" style="fill:#fc2513;"/><rect x="725" y="275" width="25" height="25" style="fill:#fc2513;"/><path d="M775,275l-25,0l0,25c13.807,0 25,-11.193 25,-25Z" style="fill:#fc2513;fill-rule:nonzero;"/><path d="M850,287.5l0,12.5c0,0 -8.51,0 -12.5,-0.001c-3.116,0.001 -12.5,0 -12.5,0l0,-12.499c0,-6.903 5.596,-12.5 12.5,-12.5c6.903,0 12.5,5.596 12.5,12.5Z" style="fill:#fc2513;fill-rule:nonzero;"/><path d="M900,300l25,0l0,-25c-13.807,0 -25,11.193 -25,25Z" style="fill:#fc2513;fill-rule:nonzero;"/><rect x="925" y="275" width="25" height="25" style="fill:#fc2513;"/><path d="M62.5,300c6.904,0 12.5,5.596 12.5,12.5c0,6.904 -5.596,12.5 -12.5,12.5c-6.904,0 -12.5,-5.596 -12.5,-12.5c0,-6.904 5.596,-12.5 12.5,-12.5Z" style="fill:#fc2513;fill-rule:nonzero;"/><path d="M100,325l25,0l0,-25c-13.807,0 -25,11.193 -25,25Z" style="fill:#fc2513;fill-rule:nonzero;"/><rect x="125" y="300" width="25" height="25" style="fill:#fc2513;"/><rect x="150" y="300" width="25" height="25" style="fill:#fc2513;"/><path d="M212.5,300l12.5,0l0,25l-12.5,0c-6.906,0 -12.5,-5.599 -12.5,-12.5c0,-6.902 5.594,-12.5 12.5,-12.5Z" style="fill:#fc2513;fill-rule:nonzero;"/><path d="M225,300l0,25l25,0c0,-13.807 -11.193,-25 -25,-25Z" style="fill:#fc2513;fill-rule:nonzero;"/><path d="M287.5,300l12.5,0l0,25l-12.5,0c-6.906,0 -12.5,-5.599 -12.5,-12.5c0,-6.902 5.594,-12.5 12.5,-12.5Z" style="fill:#fc2513;fill-rule:nonzero;"/><rect x="300" y="300" width="25" height="25" style="fill:#fc2513;"/><rect x="325" y="300" width="25" height="25" style="fill:#fc2513;"/><path d="M362.5,325l-12.5,0l0,-12.5l0,-12.5l12.5,0c6.903,0 12.5,5.596 12.5,12.5c0,6.903 -5.597,12.5 -12.5,12.5Z" style="fill:#fc2513;fill-rule:nonzero;"/><rect x="550" y="300" width="25" height="25" style="fill:#fc2513;"/><path d="M600,312.5l0,-12.5l25,0l0,12.5c0,6.903 -5.597,12.5 -12.5,12.5c-6.904,0 -12.5,-5.597 -12.5,-12.5Z" style="fill:#fc2513;fill-rule:nonzero;"/><path d="M700,312.5l0,12.5c0,0 -8.51,0 -12.5,-0.001c-3.116,0.001 -12.5,0 -12.5,0l0,-12.499c0,-6.903 5.596,-12.5 12.5,-12.5c6.903,0 12.5,5.596 12.5,12.5Z" style="fill:#fc2513;fill-rule:nonzero;"/><path d="M725,312.5l0,-12.5l25,0l0,12.5c0,6.903 -5.597,12.5 -12.5,12.5c-6.904,0 -12.5,-5.597 -12.5,-12.5Z" style="fill:#fc2513;fill-rule:nonzero;"/><path d="M800,325l25,0l0,-25c-13.807,0 -25,11.193 -25,25Z" style="fill:#fc2513;fill-rule:nonzero;"/><rect x="825" y="300" width="25" height="25" style="fill:#fc2513;"/><path d="M925,325l0,-25l-25,0c0,13.807 11.193,25 25,25Z" style="fill:#fc2513;fill-rule:nonzero;"/><path d="M950,300l-25,0l0,25c13.807,0 25,-11.193 25,-25Z" style="fill:#fc2513;fill-rule:nonzero;"/><path d="M975,325l25,0l0,-25c-13.807,0 -25,11.193 -25,25Z" style="fill:#fc2513;fill-rule:nonzero;"/><path d="M1012.5,325l-12.5,0l0,-12.5l0,-12.5l12.5,0c6.903,0 12.5,5.596 12.5,12.5c0,6.903 -5.597,12.5 -12.5,12.5Z" style="fill:#fc2513;fill-rule:nonzero;"/><path d="M1062.5,300c6.904,0 12.5,5.596 12.5,12.5c0,6.904 -5.596,12.5 -12.5,12.5c-6.903,0 -12.5,-5.596 -12.5,-12.5c0,-6.904 5.597,-12.5 12.5,-12.5Z" style="fill:#fc2513;fill-rule:nonzero;"/><rect x="100" y="325" width="25" height="25" style="fill:#fc2513;"/><rect x="125" y="325" width="25" height="25" style="fill:#fc2513;"/><path d="M175,325l-25,0l0,25c13.807,0 25,-11.193 25,-25Z" style="fill:#fc2513;fill-rule:nonzero;"/><rect x="225" y="325" width="25" height="25" style="fill:#fc2513;"/><path d="M262.5,350l-12.5,0l0,-12.5l0,-12.5l12.5,0c6.903,0 12.5,5.596 12.5,12.5c0,6.903 -5.597,12.5 -12.5,12.5Z" style="fill:#fc2513;fill-rule:nonzero;"/><rect x="300" y="325" width="25" height="25" style="fill:#fc2513;"/><path d="M350,325l-25,0l0,25c13.807,0 25,-11.193 25,-25Z" style="fill:#fc2513;fill-rule:nonzero;"/><path d="M387.5,325l12.5,0l0,25l-12.5,0c-6.906,0 -12.5,-5.599 -12.5,-12.5c0,-6.902 5.594,-12.5 12.5,-12.5Z" style="fill:#fc2513;fill-rule:nonzero;"/><rect x="400" y="325" width="25" height="25" style="fill:#fc2513;"/><path d="M437.5,350l-12.5,0l0,-12.5l0,-12.5l12.5,0c6.903,0 12.5,5.596 12.5,12.5c0,6.903 -5.597,12.5 -12.5,12.5Z" style="fill:#fc2513;fill-rule:nonzero;"/><path d="M500,350l25,0l0,-25c-13.807,0 -25,11.193 -25,25Z" style="fill:#fc2513;fill-rule:nonzero;"/><rect x="525" y="325" width="25" height="25" style="fill:#fc2513;"/><rect x="550" y="325" width="25" height="25" style="fill:#fc2513;"/><path d="M587.5,350l-12.5,0l0,-12.5l0,-12.5l12.5,0c6.903,0 12.5,5.596 12.5,12.5c0,6.903 -5.597,12.5 -12.5,12.5Z" style="fill:#fc2513;fill-rule:nonzero;"/><path d="M637.5,325c6.904,0 12.5,5.596 12.5,12.5c0,6.904 -5.596,12.5 -12.5,12.5c-6.904,0 -12.5,-5.596 -12.5,-12.5c0,-6.904 5.596,-12.5 12.5,-12.5Z" style="fill:#fc2513;fill-rule:nonzero;"/><rect x="675" y="325" width="25" height="25" style="fill:#fc2513;"/><path d="M700,325l0,25l25,0c0,-13.807 -11.193,-25 -25,-25Z" style="fill:#fc2513;fill-rule:nonzero;"/><path d="M825,350l0,-25l-25,0c0,13.807 11.193,25 25,25Z" style="fill:#fc2513;fill-rule:nonzero;"/><rect x="825" y="325" width="25" height="25" style="fill:#fc2513;"/><rect x="850" y="325" width="25" height="25" style="fill:#fc2513;"/><path d="M887.5,350l-12.5,0l0,-12.5l0,-12.5l12.5,0c6.903,0 12.5,5.596 12.5,12.5c0,6.903 -5.597,12.5 -12.5,12.5Z" style="fill:#fc2513;fill-rule:nonzero;"/><rect x="975" y="325" width="25" height="25" style="fill:#fc2513;"/><path d="M1050,337.5l0,12.5c0,0 -8.51,0 -12.5,-0.001c-3.116,0.001 -12.5,0 -12.5,0l0,-12.499c0,-6.903 5.596,-12.5 12.5,-12.5c6.903,0 12.5,5.596 12.5,12.5Z" style="fill:#fc2513;fill-rule:nonzero;"/><path d="M87.5,350l12.5,0l0,25l-12.5,0c-6.906,0 -12.5,-5.599 -12.5,-12.5c0,-6.902 5.594,-12.5 12.5,-12.5Z" style="fill:#fc2513;fill-rule:nonzero;"/><rect x="100" y="350" width="25" height="25" style="fill:#fc2513;"/><path d="M212.5,350l12.5,0l0,25l-12.5,0c-6.906,0 -12.5,-5.599 -12.5,-12.5c0,-6.902 5.594,-12.5 12.5,-12.5Z" style="fill:#fc2513;fill-rule:nonzero;"/><rect x="225" y="350" width="25" height="25" style="fill:#fc2513;"/><path d="M287.5,350l12.5,0l0,25l-12.5,0c-6.906,0 -12.5,-5.599 -12.5,-12.5c0,-6.902 5.594,-12.5 12.5,-12.5Z" style="fill:#fc2513;fill-rule:nonzero;"/><path d="M325,350l-25,0l0,25c13.807,0 25,-11.193 25,-25Z" style="fill:#fc2513;fill-rule:nonzero;"/><path d="M375,362.5l0,12.5c0,0 -8.51,0 -12.5,-0.001c-3.116,0.001 -12.5,0 -12.5,0l0,-12.499c0,-6.903 5.596,-12.5 12.5,-12.5c6.903,0 12.5,5.596 12.5,12.5Z" style="fill:#fc2513;fill-rule:nonzero;"/><rect x="400" y="350" width="25" height="25" style="fill:#fc2513;"/><rect x="500" y="350" width="25" height="25" style="fill:#fc2513;"/><path d="M550,362.5l0,-12.5l25,0l0,12.5c0,6.903 -5.597,12.5 -12.5,12.5c-6.904,0 -12.5,-5.597 -12.5,-12.5Z" style="fill:#fc2513;fill-rule:nonzero;"/><path d="M650,375l25,0l0,-25c-13.807,0 -25,11.193 -25,25Z" style="fill:#fc2513;fill-rule:nonzero;"/><rect x="675" y="350" width="25" height="25" style="fill:#fc2513;"/><rect x="700" y="350" width="25" height="25" style="fill:#fc2513;"/><path d="M750,375l25,0l0,-25c-13.807,0 -25,11.193 -25,25Z" style="fill:#fc2513;fill-rule:nonzero;"/><path d="M787.5,375l-12.5,0l0,-12.5l0,-12.5l12.5,0c6.903,0 12.5,5.596 12.5,12.5c0,6.903 -5.597,12.5 -12.5,12.5Z" style="fill:#fc2513;fill-rule:nonzero;"/><path d="M912.5,350c6.904,0 12.5,5.596 12.5,12.5c0,6.904 -5.596,12.5 -12.5,12.5c-6.904,0 -12.5,-5.596 -12.5,-12.5c0,-6.904 5.596,-12.5 12.5,-12.5Z" style="fill:#fc2513;fill-rule:nonzero;"/><path d="M975,362.5l0,-12.5l25,0l0,12.5c0,6.903 -5.597,12.5 -12.5,12.5c-6.904,0 -12.5,-5.597 -12.5,-12.5Z" style="fill:#fc2513;fill-rule:nonzero;"/><path d="M1025,362.5l0,-12.5l25,0l0,12.5c0,6.903 -5.597,12.5 -12.5,12.5c-6.904,0 -12.5,-5.597 -12.5,-12.5Z" style="fill:#fc2513;fill-rule:nonzero;"/><rect x="100" y="375" width="25" height="25" style="fill:#fc2513;"/><rect x="125" y="375" width="25" height="25" style="fill:#fc2513;"/><rect x="150" y="375" width="25" height="25" style="fill:#fc2513;"/><path d="M187.5,400l-12.5,0l0,-12.5l0,-12.5l12.5,0c6.903,0 12.5,5.596 12.5,12.5c0,6.903 -5.597,12.5 -12.5,12.5Z" style="fill:#fc2513;fill-rule:nonzero;"/><path d="M250,400l0,-25l-25,0c0,13.807 11.193,25 25,25Z" style="fill:#fc2513;fill-rule:nonzero;"/><path d="M250,375l0,25l25,0c0,-13.807 -11.193,-25 -25,-25Z" style="fill:#fc2513;fill-rule:nonzero;"/><path d="M350,387.5l0,-12.5l25,0l0,12.5c0,6.903 -5.597,12.5 -12.5,12.5c-6.904,0 -12.5,-5.597 -12.5,-12.5Z" style="fill:#fc2513;fill-rule:nonzero;"/><path d="M400,387.5l0,-12.5l25,0l0,12.5c0,6.903 -5.597,12.5 -12.5,12.5c-6.904,0 -12.5,-5.597 -12.5,-12.5Z" style="fill:#fc2513;fill-rule:nonzero;"/><path d="M487.5,375l12.5,0l0,25l-12.5,0c-6.906,0 -12.5,-5.599 -12.5,-12.5c0,-6.902 5.594,-12.5 12.5,-12.5Z" style="fill:#fc2513;fill-rule:nonzero;"/><path d="M525,375l-25,0l0,25c13.807,0 25,-11.193 25,-25Z" style="fill:#fc2513;fill-rule:nonzero;"/><path d="M675,400l0,-25l-25,0c0,13.807 11.193,25 25,25Z" style="fill:#fc2513;fill-rule:nonzero;"/><rect x="675" y="375" width="25" height="25" style="fill:#fc2513;"/><rect x="700" y="375" width="25" height="25" style="fill:#fc2513;"/><rect x="750" y="375" width="25" height="25" style="fill:#fc2513;"/><path d="M812.5,375c6.904,0 12.5,5.596 12.5,12.5c0,6.904 -5.596,12.5 -12.5,12.5c-6.904,0 -12.5,-5.596 -12.5,-12.5c0,-6.904 5.596,-12.5 12.5,-12.5Z" style="fill:#fc2513;fill-rule:nonzero;"/><path d="M875,387.5l0,12.5c0,0 -8.51,0 -12.5,-0.001c-3.116,0.001 -12.5,0 -12.5,0l0,-12.499c0,-6.903 5.596,-12.5 12.5,-12.5c6.903,0 12.5,5.596 12.5,12.5Z" style="fill:#fc2513;fill-rule:nonzero;"/><path d="M937.5,375c6.904,0 12.5,5.596 12.5,12.5c0,6.904 -5.596,12.5 -12.5,12.5c-6.904,0 -12.5,-5.596 -12.5,-12.5c0,-6.904 5.596,-12.5 12.5,-12.5Z" style="fill:#fc2513;fill-rule:nonzero;"/><path d="M1075,387.5l0,12.5c0,0 -8.51,0 -12.5,-0.001c-3.116,0.001 -12.5,0 -12.5,0l0,-12.499c0,-6.903 5.596,-12.5 12.5,-12.5c6.903,0 12.5,5.596 12.5,12.5Z" style="fill:#fc2513;fill-rule:nonzero;"/><path d="M62.5,400c6.904,0 12.5,5.596 12.5,12.5c0,6.904 -5.596,12.5 -12.5,12.5c-6.904,0 -12.5,-5.596 -12.5,-12.5c0,-6.904 5.596,-12.5 12.5,-12.5Z" style="fill:#fc2513;fill-rule:nonzero;"/><path d="M100,412.5l0,-12.5l25,0l0,12.5c0,6.903 -5.597,12.5 -12.5,12.5c-6.904,0 -12.5,-5.597 -12.5,-12.5Z" style="fill:#fc2513;fill-rule:nonzero;"/><path d="M150,412.5l0,-12.5l25,0l0,12.5c0,6.903 -5.597,12.5 -12.5,12.5c-6.904,0 -12.5,-5.597 -12.5,-12.5Z" style="fill:#fc2513;fill-rule:nonzero;"/><path d="M212.5,400c6.904,0 12.5,5.596 12.5,12.5c0,6.904 -5.596,12.5 -12.5,12.5c-6.904,0 -12.5,-5.596 -12.5,-12.5c0,-6.904 5.596,-12.5 12.5,-12.5Z" style="fill:#fc2513;fill-rule:nonzero;"/><rect x="250" y="400" width="25" height="25" style="fill:#fc2513;"/><path d="M287.5,425l-12.5,0l0,-12.5l0,-12.5l12.5,0c6.903,0 12.5,5.596 12.5,12.5c0,6.903 -5.597,12.5 -12.5,12.5Z" style="fill:#fc2513;fill-rule:nonzero;"/><path d="M575,425l25,0l0,-25c-13.807,0 -25,11.193 -25,25Z" style="fill:#fc2513;fill-rule:nonzero;"/><rect x="600" y="400" width="25" height="25" style="fill:#fc2513;"/><path d="M625,400l0,25l25,0c0,-13.807 -11.193,-25 -25,-25Z" style="fill:#fc2513;fill-rule:nonzero;"/><path d="M700,425l0,-25l-25,0c0,13.807 11.193,25 25,25Z" style="fill:#fc2513;fill-rule:nonzero;"/><rect x="700" y="400" width="25" height="25" style="fill:#fc2513;"/><rect x="750" y="400" width="25" height="25" style="fill:#fc2513;"/><path d="M787.5,425l-12.5,0l0,-12.5l0,-12.5l12.5,0c6.903,0 12.5,5.596 12.5,12.5c0,6.903 -5.597,12.5 -12.5,12.5Z" style="fill:#fc2513;fill-rule:nonzero;"/><path d="M825,425l25,0l0,-25c-13.807,0 -25,11.193 -25,25Z" style="fill:#fc2513;fill-rule:nonzero;"/><rect x="850" y="400" width="25" height="25" style="fill:#fc2513;"/><rect x="875" y="400" width="25" height="25" style="fill:#fc2513;"/><path d="M912.5,425l-12.5,0l0,-12.5l0,-12.5l12.5,0c6.903,0 12.5,5.596 12.5,12.5c0,6.903 -5.597,12.5 -12.5,12.5Z" style="fill:#fc2513;fill-rule:nonzero;"/><path d="M962.5,400c6.904,0 12.5,5.596 12.5,12.5c0,6.904 -5.596,12.5 -12.5,12.5c-6.904,0 -12.5,-5.596 -12.5,-12.5c0,-6.904 5.596,-12.5 12.5,-12.5Z" style="fill:#fc2513;fill-rule:nonzero;"/><path d="M1050,412.5l0,-12.5l25,0l0,12.5c0,6.903 -5.597,12.5 -12.5,12.5c-6.904,0 -12.5,-5.597 -12.5,-12.5Z" style="fill:#fc2513;fill-rule:nonzero;"/><path d="M87.5,425c6.904,0 12.5,5.596 12.5,12.5c0,6.904 -5.596,12.5 -12.5,12.5c-6.903,0 -12.5,-5.596 -12.5,-12.5c0,-6.904 5.597,-12.5 12.5,-12.5Z" style="fill:#fc2513;fill-rule:nonzero;"/><rect x="250" y="425" width="25" height="25" style="fill:#fc2513;"/><path d="M350,450l25,0l0,-25c-13.807,0 -25,11.193 -25,25Z" style="fill:#fc2513;fill-rule:nonzero;"/><rect x="375" y="425" width="25" height="25" style="fill:#fc2513;"/><path d="M412.5,450l-12.5,0l0,-12.5l0,-12.5l12.5,0c6.903,0 12.5,5.596 12.5,12.5c0,6.903 -5.597,12.5 -12.5,12.5Z" style="fill:#fc2513;fill-rule:nonzero;"/><path d="M487.5,425c6.904,0 12.5,5.596 12.5,12.5c0,6.904 -5.596,12.5 -12.5,12.5c-6.904,0 -12.5,-5.596 -12.5,-12.5c0,-6.904 5.596,-12.5 12.5,-12.5Z" style="fill:#fc2513;fill-rule:nonzero;"/><path d="M537.5,425l12.5,0l0,25l-12.5,0c-6.906,0 -12.5,-5.599 -12.5,-12.5c0,-6.902 5.594,-12.5 12.5,-12.5Z" style="fill:#fc2513;fill-rule:nonzero;"/><rect x="550" y="425" width="25" height="25" style="fill:#fc2513;"/><path d="M600,425l-25,0l0,25c13.807,0 25,-11.193 25,-25Z" style="fill:#fc2513;fill-rule:nonzero;"/><path d="M650,450l0,-25l-25,0c0,13.807 11.193,25 25,25Z" style="fill:#fc2513;fill-rule:nonzero;"/><path d="M662.5,450l-12.5,0l0,-12.5l0,-12.5l12.5,0c6.903,0 12.5,5.596 12.5,12.5c0,6.903 -5.597,12.5 -12.5,12.5Z" style="fill:#fc2513;fill-rule:nonzero;"/><path d="M725,450l0,-25l-25,0c0,13.807 11.193,25 25,25Z" style="fill:#fc2513;fill-rule:nonzero;"/><rect x="725" y="425" width="25" height="25" style="fill:#fc2513;"/><path d="M775,425l-25,0l0,25c13.807,0 25,-11.193 25,-25Z" style="fill:#fc2513;fill-rule:nonzero;"/><path d="M800,450l25,0l0,-25c-13.807,0 -25,11.193 -25,25Z" style="fill:#fc2513;fill-rule:nonzero;"/><rect x="825" y="425" width="25" height="25" style="fill:#fc2513;"/><rect x="850" y="425" width="25" height="25" style="fill:#fc2513;"/><path d="M900,425l-25,0l0,25c13.807,0 25,-11.193 25,-25Z" style="fill:#fc2513;fill-rule:nonzero;"/><path d="M950,437.5l0,12.5c0,0 -8.51,0 -12.5,-0.001c-3.116,0.001 -12.5,0 -12.5,0l0,-12.499c0,-6.903 5.596,-12.5 12.5,-12.5c6.903,0 12.5,5.596 12.5,12.5Z" style="fill:#fc2513;fill-rule:nonzero;"/><path d="M987.5,425c6.904,0 12.5,5.596 12.5,12.5c0,6.904 -5.596,12.5 -12.5,12.5c-6.904,0 -12.5,-5.596 -12.5,-12.5c0,-6.904 5.596,-12.5 12.5,-12.5Z" style="fill:#fc2513;fill-rule:nonzero;"/><path d="M1050,437.5l0,12.5c0,0 -8.51,0 -12.5,-0.001c-3.116,0.001 -12.5,0 -12.5,0l0,-12.499c0,-6.903 5.596,-12.5 12.5,-12.5c6.903,0 12.5,5.596 12.5,12.5Z" style="fill:#fc2513;fill-rule:nonzero;"/><path d="M62.5,450c6.904,0 12.5,5.596 12.5,12.5c0,6.904 -5.596,12.5 -12.5,12.5c-6.904,0 -12.5,-5.596 -12.5,-12.5c0,-6.904 5.596,-12.5 12.5,-12.5Z" style="fill:#fc2513;fill-rule:nonzero;"/><path d="M137.5,450l12.5,0l0,25l-12.5,0c-6.906,0 -12.5,-5.599 -12.5,-12.5c0,-6.902 5.594,-12.5 12.5,-12.5Z" style="fill:#fc2513;fill-rule:nonzero;"/><path d="M150,450l0,25l25,0c0,-13.807 -11.193,-25 -25,-25Z" style="fill:#fc2513;fill-rule:nonzero;"/><path d="M212.5,450c6.904,0 12.5,5.596 12.5,12.5c0,6.904 -5.596,12.5 -12.5,12.5c-6.904,0 -12.5,-5.596 -12.5,-12.5c0,-6.904 5.596,-12.5 12.5,-12.5Z" style="fill:#fc2513;fill-rule:nonzero;"/><rect x="250" y="450" width="25" height="25" style="fill:#fc2513;"/><path d="M312.5,450c6.904,0 12.5,5.596 12.5,12.5c0,6.904 -5.596,12.5 -12.5,12.5c-6.904,0 -12.5,-5.596 -12.5,-12.5c0,-6.904 5.596,-12.5 12.5,-12.5Z" style="fill:#fc2513;fill-rule:nonzero;"/><rect x="350" y="450" width="25" height="25" style="fill:#fc2513;"/><rect x="800" y="450" width="25" height="25" style="fill:#fc2513;"/><rect x="850" y="450" width="25" height="25" style="fill:#fc2513;"/><path d="M900,475l25,0l0,-25c-13.807,0 -25,11.193 -25,25Z" style="fill:#fc2513;fill-rule:nonzero;"/><rect x="925" y="450" width="25" height="25" style="fill:#fc2513;"/><path d="M1000,475l25,0l0,-25c-13.807,0 -25,11.193 -25,25Z" style="fill:#fc2513;fill-rule:nonzero;"/><rect x="1025" y="450" width="25" height="25" style="fill:#fc2513;"/><path d="M1050,450l0,25l25,0c0,-13.807 -11.193,-25 -25,-25Z" style="fill:#fc2513;fill-rule:nonzero;"/><path d="M100,487.5l0,12.5c0,0 -8.51,0 -12.5,-0.001c-3.116,0.001 -12.5,0 -12.5,0l0,-12.499c0,-6.903 5.596,-12.5 12.5,-12.5c6.903,0 12.5,5.596 12.5,12.5Z" style="fill:#fc2513;fill-rule:nonzero;"/><rect x="150" y="475" width="25" height="25" style="fill:#fc2513;"/><path d="M175,475l0,25l25,0c0,-13.807 -11.193,-25 -25,-25Z" style="fill:#fc2513;fill-rule:nonzero;"/><path d="M237.5,475l12.5,0l0,25l-12.5,0c-6.906,0 -12.5,-5.599 -12.5,-12.5c0,-6.902 5.594,-12.5 12.5,-12.5Z" style="fill:#fc2513;fill-rule:nonzero;"/><rect x="250" y="475" width="25" height="25" style="fill:#fc2513;"/><path d="M275,475l0,25l25,0c0,-13.807 -11.193,-25 -25,-25Z" style="fill:#fc2513;fill-rule:nonzero;"/><path d="M337.5,475l12.5,0l0,25l-12.5,0c-6.906,0 -12.5,-5.599 -12.5,-12.5c0,-6.902 5.594,-12.5 12.5,-12.5Z" style="fill:#fc2513;fill-rule:nonzero;"/><rect x="350" y="475" width="25" height="25" style="fill:#fc2513;"/><path d="M825,500l0,-25l-25,0c0,13.807 11.193,25 25,25Z" style="fill:#fc2513;fill-rule:nonzero;"/><rect x="825" y="475" width="25" height="25" style="fill:#fc2513;"/><path d="M875,475l-25,0l0,25c13.807,0 25,-11.193 25,-25Z" style="fill:#fc2513;fill-rule:nonzero;"/><rect x="900" y="475" width="25" height="25" style="fill:#fc2513;"/><rect x="925" y="475" width="25" height="25" style="fill:#fc2513;"/><path d="M975,500l25,0l0,-25c-13.807,0 -25,11.193 -25,25Z" style="fill:#fc2513;fill-rule:nonzero;"/><rect x="1000" y="475" width="25" height="25" style="fill:#fc2513;"/><rect x="1025" y="475" width="25" height="25" style="fill:#fc2513;"/><rect x="1050" y="475" width="25" height="25" style="fill:#fc2513;"/><path d="M50,525l25,0l0,-25c-13.807,0 -25,11.193 -25,25Z" style="fill:#fc2513;fill-rule:nonzero;"/><rect x="75" y="500" width="25" height="25" style="fill:#fc2513;"/><path d="M100,500l0,25l25,0c0,-13.807 -11.193,-25 -25,-25Z" style="fill:#fc2513;fill-rule:nonzero;"/><rect x="150" y="500" width="25" height="25" style="fill:#fc2513;"/><rect x="175" y="500" width="25" height="25" style="fill:#fc2513;"/><path d="M212.5,525l-12.5,0l0,-12.5l0,-12.5l12.5,0c6.903,0 12.5,5.596 12.5,12.5c0,6.903 -5.597,12.5 -12.5,12.5Z" style="fill:#fc2513;fill-rule:nonzero;"/><path d="M300,525l0,-25l-25,0c0,13.807 11.193,25 25,25Z" style="fill:#fc2513;fill-rule:nonzero;"/><path d="M312.5,525l-12.5,0l0,-12.5l0,-12.5l12.5,0c6.903,0 12.5,5.596 12.5,12.5c0,6.903 -5.597,12.5 -12.5,12.5Z" style="fill:#fc2513;fill-rule:nonzero;"/><rect x="350" y="500" width="25" height="25" style="fill:#fc2513;"/><path d="M775,512.5l0,12.5c0,0 -8.51,0 -12.5,-0.001c-3.116,0.001 -12.5,0 -12.5,0l0,-12.499c0,-6.903 5.596,-12.5 12.5,-12.5c6.903,0 12.5,5.596 12.5,12.5Z" style="fill:#fc2513;fill-rule:nonzero;"/><path d="M825,512.5l0,-12.5l25,0l0,12.5c0,6.903 -5.597,12.5 -12.5,12.5c-6.904,0 -12.5,-5.597 -12.5,-12.5Z" style="fill:#fc2513;fill-rule:nonzero;"/><path d="M925,525l0,-25l-25,0c0,13.807 11.193,25 25,25Z" style="fill:#fc2513;fill-rule:nonzero;"/><rect x="925" y="500" width="25" height="25" style="fill:#fc2513;"/><rect x="950" y="500" width="25" height="25" style="fill:#fc2513;"/><rect x="975" y="500" width="25" height="25" style="fill:#fc2513;"/><path d="M1025,500l-25,0l0,25c13.807,0 25,-11.193 25,-25Z" style="fill:#fc2513;fill-rule:nonzero;"/><rect x="1050" y="500" width="25" height="25" style="fill:#fc2513;"/><rect x="50" y="525" width="25" height="25" style="fill:#fc2513;"/><rect x="75" y="525" width="25" height="25" style="fill:#fc2513;"/><rect x="100" y="525" width="25" height="25" style="fill:#fc2513;"/><rect x="125" y="525" width="25" height="25" style="fill:#fc2513;"/><path d="M175,525l-25,0l0,25c13.807,0 25,-11.193 25,-25Z" style="fill:#fc2513;fill-rule:nonzero;"/><path d="M275,537.5l0,12.5c0,0 -8.51,0 -12.5,-0.001c-3.116,0.001 -12.5,0 -12.5,0l0,-12.499c0,-6.903 5.596,-12.5 12.5,-12.5c6.903,0 12.5,5.596 12.5,12.5Z" style="fill:#fc2513;fill-rule:nonzero;"/><rect x="350" y="525" width="25" height="25" style="fill:#fc2513;"/><rect x="750" y="525" width="25" height="25" style="fill:#fc2513;"/><path d="M812.5,525c6.904,0 12.5,5.596 12.5,12.5c0,6.904 -5.596,12.5 -12.5,12.5c-6.904,0 -12.5,-5.596 -12.5,-12.5c0,-6.904 5.596,-12.5 12.5,-12.5Z" style="fill:#fc2513;fill-rule:nonzero;"/><path d="M975,537.5l0,-12.5l25,0l0,12.5c0,6.903 -5.597,12.5 -12.5,12.5c-6.904,0 -12.5,-5.597 -12.5,-12.5Z" style="fill:#fc2513;fill-rule:nonzero;"/><path d="M1050,537.5l0,-12.5l25,0l0,12.5c0,6.903 -5.597,12.5 -12.5,12.5c-6.904,0 -12.5,-5.597 -12.5,-12.5Z" style="fill:#fc2513;fill-rule:nonzero;"/><path d="M75,575l0,-25l-25,0c0,13.807 11.193,25 25,25Z" style="fill:#fc2513;fill-rule:nonzero;"/><path d="M100,550l-25,0l0,25c13.807,0 25,-11.193 25,-25Z" style="fill:#fc2513;fill-rule:nonzero;"/><rect x="125" y="550" width="25" height="25" style="fill:#fc2513;"/><path d="M175,575l25,0l0,-25c-13.807,0 -25,11.193 -25,25Z" style="fill:#fc2513;fill-rule:nonzero;"/><rect x="200" y="550" width="25" height="25" style="fill:#fc2513;"/><rect x="225" y="550" width="25" height="25" style="fill:#fc2513;"/><path d="M275,550l-25,0l0,25c13.807,0 25,-11.193 25,-25Z" style="fill:#fc2513;fill-rule:nonzero;"/><path d="M312.5,550l12.5,0l0,25l-12.5,0c-6.906,0 -12.5,-5.599 -12.5,-12.5c0,-6.902 5.594,-12.5 12.5,-12.5Z" style="fill:#fc2513;fill-rule:nonzero;"/><rect x="325" y="550" width="25" height="25" style="fill:#fc2513;"/><rect x="350" y="550" width="25" height="25" style="fill:#fc2513;"/><rect x="750" y="550" width="25" height="25" style="fill:#fc2513;"/><path d="M775,550l0,25l25,0c0,-13.807 -11.193,-25 -25,-25Z" style="fill:#fc2513;fill-rule:nonzero;"/><path d="M875,562.5l0,12.5c0,0 -8.51,0 -12.5,-0.001c-3.116,0.001 -12.5,0 -12.5,0l0,-12.499c0,-6.903 5.596,-12.5 12.5,-12.5c6.903,0 12.5,5.596 12.5,12.5Z" style="fill:#fc2513;fill-rule:nonzero;"/><path d="M900,575l25,0l0,-25c-13.807,0 -25,11.193 -25,25Z" style="fill:#fc2513;fill-rule:nonzero;"/><rect x="925" y="550" width="25" height="25" style="fill:#fc2513;"/><path d="M962.5,575l-12.5,0l0,-12.5l0,-12.5l12.5,0c6.903,0 12.5,5.596 12.5,12.5c0,6.903 -5.597,12.5 -12.5,12.5Z" style="fill:#fc2513;fill-rule:nonzero;"/><path d="M1025,562.5l0,12.5c0,0 -8.51,0 -12.5,-0.001c-3.116,0.001 -12.5,0 -12.5,0l0,-12.499c0,-6.903 5.596,-12.5 12.5,-12.5c6.903,0 12.5,5.596 12.5,12.5Z" style="fill:#fc2513;fill-rule:nonzero;"/><rect x="125" y="575" width="25" height="25" style="fill:#fc2513;"/><rect x="175" y="575" width="25" height="25" style="fill:#fc2513;"/><path d="M225,587.5l0,-12.5l25,0l0,12.5c0,6.903 -5.597,12.5 -12.5,12.5c-6.904,0 -12.5,-5.597 -12.5,-12.5Z" style="fill:#fc2513;fill-rule:nonzero;"/><path d="M287.5,575c6.904,0 12.5,5.596 12.5,12.5c0,6.904 -5.596,12.5 -12.5,12.5c-6.904,0 -12.5,-5.596 -12.5,-12.5c0,-6.904 5.596,-12.5 12.5,-12.5Z" style="fill:#fc2513;fill-rule:nonzero;"/><rect x="325" y="575" width="25" height="25" style="fill:#fc2513;"/><path d="M375,575l-25,0l0,25c13.807,0 25,-11.193 25,-25Z" style="fill:#fc2513;fill-rule:nonzero;"/><path d="M775,600l0,-25l-25,0c0,13.807 11.193,25 25,25Z" style="fill:#fc2513;fill-rule:nonzero;"/><path d="M800,575l-25,0l0,25c13.807,0 25,-11.193 25,-25Z" style="fill:#fc2513;fill-rule:nonzero;"/><path d="M825,600l25,0l0,-25c-13.807,0 -25,11.193 -25,25Z" style="fill:#fc2513;fill-rule:nonzero;"/><path d="M875,575l-25,0l0,25c13.807,0 25,-11.193 25,-25Z" style="fill:#fc2513;fill-rule:nonzero;"/><path d="M925,600l0,-25l-25,0c0,13.807 11.193,25 25,25Z" style="fill:#fc2513;fill-rule:nonzero;"/><path d="M950,575l-25,0l0,25c13.807,0 25,-11.193 25,-25Z" style="fill:#fc2513;fill-rule:nonzero;"/><path d="M1025,600l0,-25l-25,0c0,13.807 11.193,25 25,25Z" style="fill:#fc2513;fill-rule:nonzero;"/><rect x="1025" y="575" width="25" height="25" style="fill:#fc2513;"/><path d="M1050,575l0,25l25,0c0,-13.807 -11.193,-25 -25,-25Z" style="fill:#fc2513;fill-rule:nonzero;"/><path d="M50,625l25,0l0,-25c-13.807,0 -25,11.193 -25,25Z" style="fill:#fc2513;fill-rule:nonzero;"/><path d="M75,600l0,25l25,0c0,-13.807 -11.193,-25 -25,-25Z" style="fill:#fc2513;fill-rule:nonzero;"/><rect x="125" y="600" width="25" height="25" style="fill:#fc2513;"/><rect x="150" y="600" width="25" height="25" style="fill:#fc2513;"/><rect x="175" y="600" width="25" height="25" style="fill:#fc2513;"/><path d="M212.5,625l-12.5,0l0,-12.5l0,-12.5l12.5,0c6.903,0 12.5,5.596 12.5,12.5c0,6.903 -5.597,12.5 -12.5,12.5Z" style="fill:#fc2513;fill-rule:nonzero;"/><path d="M275,612.5l0,12.5c0,0 -8.51,0 -12.5,-0.001c-3.116,0.001 -12.5,0 -12.5,0l0,-12.499c0,-6.903 5.596,-12.5 12.5,-12.5c6.903,0 12.5,5.596 12.5,12.5Z" style="fill:#fc2513;fill-rule:nonzero;"/><rect x="325" y="600" width="25" height="25" style="fill:#fc2513;"/><path d="M825,612.5l0,-12.5l25,0l0,12.5c0,6.903 -5.597,12.5 -12.5,12.5c-6.904,0 -12.5,-5.597 -12.5,-12.5Z" style="fill:#fc2513;fill-rule:nonzero;"/><path d="M1050,612.5l0,-12.5l25,0l0,12.5c0,6.903 -5.597,12.5 -12.5,12.5c-6.904,0 -12.5,-5.597 -12.5,-12.5Z" style="fill:#fc2513;fill-rule:nonzero;"/><rect x="50" y="625" width="25" height="25" style="fill:#fc2513;"/><rect x="75" y="625" width="25" height="25" style="fill:#fc2513;"/><rect x="100" y="625" width="25" height="25" style="fill:#fc2513;"/><rect x="125" y="625" width="25" height="25" style="fill:#fc2513;"/><path d="M175,625l-25,0l0,25c13.807,0 25,-11.193 25,-25Z" style="fill:#fc2513;fill-rule:nonzero;"/><path d="M275,650l0,-25l-25,0c0,13.807 11.193,25 25,25Z" style="fill:#fc2513;fill-rule:nonzero;"/><rect x="275" y="625" width="25" height="25" style="fill:#fc2513;"/><rect x="300" y="625" width="25" height="25" style="fill:#fc2513;"/><path d="M350,625l-25,0l0,25c13.807,0 25,-11.193 25,-25Z" style="fill:#fc2513;fill-rule:nonzero;"/><path d="M775,637.5l0,12.5c0,0 -8.51,0 -12.5,-0.001c-3.116,0.001 -12.5,0 -12.5,0l0,-12.499c0,-6.903 5.596,-12.5 12.5,-12.5c6.903,0 12.5,5.596 12.5,12.5Z" style="fill:#fc2513;fill-rule:nonzero;"/><path d="M812.5,625c6.904,0 12.5,5.596 12.5,12.5c0,6.904 -5.596,12.5 -12.5,12.5c-6.904,0 -12.5,-5.596 -12.5,-12.5c0,-6.904 5.596,-12.5 12.5,-12.5Z" style="fill:#fc2513;fill-rule:nonzero;"/><path d="M887.5,625l12.5,0l0,25l-12.5,0c-6.906,0 -12.5,-5.599 -12.5,-12.5c0,-6.902 5.594,-12.5 12.5,-12.5Z" style="fill:#fc2513;fill-rule:nonzero;"/><path d="M900,625l0,25l25,0c0,-13.807 -11.193,-25 -25,-25Z" style="fill:#fc2513;fill-rule:nonzero;"/><path d="M1000,637.5l0,12.5c0,0 -8.51,0 -12.5,-0.001c-3.116,0.001 -12.5,0 -12.5,0l0,-12.499c0,-6.903 5.596,-12.5 12.5,-12.5c6.903,0 12.5,5.596 12.5,12.5Z" style="fill:#fc2513;fill-rule:nonzero;"/><rect x="50" y="650" width="25" height="25" style="fill:#fc2513;"/><rect x="75" y="650" width="25" height="25" style="fill:#fc2513;"/><path d="M125,650l-25,0l0,25c13.807,0 25,-11.193 25,-25Z" style="fill:#fc2513;fill-rule:nonzero;"/><path d="M212.5,650c6.904,0 12.5,5.596 12.5,12.5c0,6.904 -5.596,12.5 -12.5,12.5c-6.904,0 -12.5,-5.596 -12.5,-12.5c0,-6.904 5.596,-12.5 12.5,-12.5Z" style="fill:#fc2513;fill-rule:nonzero;"/><path d="M300,675l0,-25l-25,0c0,13.807 11.193,25 25,25Z" style="fill:#fc2513;fill-rule:nonzero;"/><path d="M325,650l-25,0l0,25c13.807,0 25,-11.193 25,-25Z" style="fill:#fc2513;fill-rule:nonzero;"/><rect x="750" y="650" width="25" height="25" style="fill:#fc2513;"/><path d="M862.5,650c6.904,0 12.5,5.596 12.5,12.5c0,6.904 -5.596,12.5 -12.5,12.5c-6.904,0 -12.5,-5.596 -12.5,-12.5c0,-6.904 5.596,-12.5 12.5,-12.5Z" style="fill:#fc2513;fill-rule:nonzero;"/><rect x="900" y="650" width="25" height="25" style="fill:#fc2513;"/><path d="M1000,675l0,-25l-25,0c0,13.807 11.193,25 25,25Z" style="fill:#fc2513;fill-rule:nonzero;"/><rect x="1000" y="650" width="25" height="25" style="fill:#fc2513;"/><path d="M1025,650l0,25l25,0c0,-13.807 -11.193,-25 -25,-25Z" style="fill:#fc2513;fill-rule:nonzero;"/><rect x="50" y="675" width="25" height="25" style="fill:#fc2513;"/><path d="M187.5,675c6.904,0 12.5,5.596 12.5,12.5c0,6.904 -5.596,12.5 -12.5,12.5c-6.904,0 -12.5,-5.596 -12.5,-12.5c0,-6.904 5.596,-12.5 12.5,-12.5Z" style="fill:#fc2513;fill-rule:nonzero;"/><path d="M337.5,675l12.5,0l0,25l-12.5,0c-6.906,0 -12.5,-5.599 -12.5,-12.5c0,-6.902 5.594,-12.5 12.5,-12.5Z" style="fill:#fc2513;fill-rule:nonzero;"/><path d="M350,675l0,25l25,0c0,-13.807 -11.193,-25 -25,-25Z" style="fill:#fc2513;fill-rule:nonzero;"/><path d="M462.5,675c6.904,0 12.5,5.596 12.5,12.5c0,6.904 -5.596,12.5 -12.5,12.5c-6.904,0 -12.5,-5.596 -12.5,-12.5c0,-6.904 5.596,-12.5 12.5,-12.5Z" style="fill:#fc2513;fill-rule:nonzero;"/><path d="M500,700l25,0l0,-25c-13.807,0 -25,11.193 -25,25Z" style="fill:#fc2513;fill-rule:nonzero;"/><rect x="525" y="675" width="25" height="25" style="fill:#fc2513;"/><rect x="550" y="675" width="25" height="25" style="fill:#fc2513;"/><rect x="575" y="675" width="25" height="25" style="fill:#fc2513;"/><path d="M612.5,700l-12.5,0l0,-12.5l0,-12.5l12.5,0c6.903,0 12.5,5.596 12.5,12.5c0,6.903 -5.597,12.5 -12.5,12.5Z" style="fill:#fc2513;fill-rule:nonzero;"/><path d="M662.5,675l12.5,0l0,25l-12.5,0c-6.906,0 -12.5,-5.599 -12.5,-12.5c0,-6.902 5.594,-12.5 12.5,-12.5Z" style="fill:#fc2513;fill-rule:nonzero;"/><path d="M675,675l0,25l25,0c0,-13.807 -11.193,-25 -25,-25Z" style="fill:#fc2513;fill-rule:nonzero;"/><path d="M725,700l25,0l0,-25c-13.807,0 -25,11.193 -25,25Z" style="fill:#fc2513;fill-rule:nonzero;"/><rect x="750" y="675" width="25" height="25" style="fill:#fc2513;"/><rect x="775" y="675" width="25" height="25" style="fill:#fc2513;"/><rect x="800" y="675" width="25" height="25" style="fill:#fc2513;"/><path d="M825,675l0,25l25,0c0,-13.807 -11.193,-25 -25,-25Z" style="fill:#fc2513;fill-rule:nonzero;"/><rect x="900" y="675" width="25" height="25" style="fill:#fc2513;"/><path d="M925,675l0,25l25,0c0,-13.807 -11.193,-25 -25,-25Z" style="fill:#fc2513;fill-rule:nonzero;"/><path d="M1025,687.5l0,-12.5l25,0l0,12.5c0,6.903 -5.597,12.5 -12.5,12.5c-6.904,0 -12.5,-5.597 -12.5,-12.5Z" style="fill:#fc2513;fill-rule:nonzero;"/><rect x="50" y="700" width="25" height="25" style="fill:#fc2513;"/><path d="M125,725l25,0l0,-25c-13.807,0 -25,11.193 -25,25Z" style="fill:#fc2513;fill-rule:nonzero;"/><path d="M162.5,725l-12.5,0l0,-12.5l0,-12.5l12.5,0c6.903,0 12.5,5.596 12.5,12.5c0,6.903 -5.597,12.5 -12.5,12.5Z" style="fill:#fc2513;fill-rule:nonzero;"/><path d="M212.5,700c6.904,0 12.5,5.596 12.5,12.5c0,6.904 -5.596,12.5 -12.5,12.5c-6.904,0 -12.5,-5.596 -12.5,-12.5c0,-6.904 5.596,-12.5 12.5,-12.5Z" style="fill:#fc2513;fill-rule:nonzero;"/><path d="M287.5,700c6.904,0 12.5,5.596 12.5,12.5c0,6.904 -5.596,12.5 -12.5,12.5c-6.904,0 -12.5,-5.596 -12.5,-12.5c0,-6.904 5.596,-12.5 12.5,-12.5Z" style="fill:#fc2513;fill-rule:nonzero;"/><rect x="350" y="700" width="25" height="25" style="fill:#fc2513;"/><rect x="375" y="700" width="25" height="25" style="fill:#fc2513;"/><path d="M400,700l0,25l25,0c0,-13.807 -11.193,-25 -25,-25Z" style="fill:#fc2513;fill-rule:nonzero;"/><path d="M525,725l0,-25l-25,0c0,13.807 11.193,25 25,25Z" style="fill:#fc2513;fill-rule:nonzero;"/><rect x="525" y="700" width="25" height="25" style="fill:#fc2513;"/><rect x="550" y="700" width="25" height="25" style="fill:#fc2513;"/><rect x="575" y="700" width="25" height="25" style="fill:#fc2513;"/><rect x="675" y="700" width="25" height="25" style="fill:#fc2513;"/><rect x="700" y="700" width="25" height="25" style="fill:#fc2513;"/><rect x="725" y="700" width="25" height="25" style="fill:#fc2513;"/><rect x="750" y="700" width="25" height="25" style="fill:#fc2513;"/><rect x="825" y="700" width="25" height="25" style="fill:#fc2513;"/><rect x="850" y="700" width="25" height="25" style="fill:#fc2513;"/><rect x="875" y="700" width="25" height="25" style="fill:#fc2513;"/><rect x="900" y="700" width="25" height="25" style="fill:#fc2513;"/><rect x="925" y="700" width="25" height="25" style="fill:#fc2513;"/><path d="M962.5,725l-12.5,0l0,-12.5l0,-12.5l12.5,0c6.903,0 12.5,5.596 12.5,12.5c0,6.903 -5.597,12.5 -12.5,12.5Z" style="fill:#fc2513;fill-rule:nonzero;"/><path d="M1012.5,700c6.904,0 12.5,5.596 12.5,12.5c0,6.904 -5.596,12.5 -12.5,12.5c-6.904,0 -12.5,-5.596 -12.5,-12.5c0,-6.904 5.596,-12.5 12.5,-12.5Z" style="fill:#fc2513;fill-rule:nonzero;"/><path d="M1075,712.5l0,12.5c0,0 -8.51,0 -12.5,-0.001c-3.116,0.001 -12.5,0 -12.5,0l0,-12.499c0,-6.903 5.596,-12.5 12.5,-12.5c6.903,0 12.5,5.596 12.5,12.5Z" style="fill:#fc2513;fill-rule:nonzero;"/><rect x="50" y="725" width="25" height="25" style="fill:#fc2513;"/><path d="M75,725l0,25l25,0c0,-13.807 -11.193,-25 -25,-25Z" style="fill:#fc2513;fill-rule:nonzero;"/><path d="M125,737.5l0,-12.5l25,0l0,12.5c0,6.903 -5.597,12.5 -12.5,12.5c-6.904,0 -12.5,-5.597 -12.5,-12.5Z" style="fill:#fc2513;fill-rule:nonzero;"/><path d="M187.5,725c6.904,0 12.5,5.596 12.5,12.5c0,6.904 -5.596,12.5 -12.5,12.5c-6.904,0 -12.5,-5.596 -12.5,-12.5c0,-6.904 5.596,-12.5 12.5,-12.5Z" style="fill:#fc2513;fill-rule:nonzero;"/><path d="M237.5,725c6.904,0 12.5,5.596 12.5,12.5c0,6.904 -5.596,12.5 -12.5,12.5c-6.904,0 -12.5,-5.596 -12.5,-12.5c0,-6.904 5.596,-12.5 12.5,-12.5Z" style="fill:#fc2513;fill-rule:nonzero;"/><path d="M312.5,725l12.5,0l0,25l-12.5,0c-6.906,0 -12.5,-5.599 -12.5,-12.5c0,-6.902 5.594,-12.5 12.5,-12.5Z" style="fill:#fc2513;fill-rule:nonzero;"/><rect x="325" y="725" width="25" height="25" style="fill:#fc2513;"/><rect x="350" y="725" width="25" height="25" style="fill:#fc2513;"/><rect x="375" y="725" width="25" height="25" style="fill:#fc2513;"/><rect x="400" y="725" width="25" height="25" style="fill:#fc2513;"/><rect x="425" y="725" width="25" height="25" style="fill:#fc2513;"/><rect x="450" y="725" width="25" height="25" style="fill:#fc2513;"/><path d="M475,725l0,25l25,0c0,-13.807 -11.193,-25 -25,-25Z" style="fill:#fc2513;fill-rule:nonzero;"/><rect x="525" y="725" width="25" height="25" style="fill:#fc2513;"/><rect x="575" y="725" width="25" height="25" style="fill:#fc2513;"/><path d="M612.5,750l-12.5,0l0,-12.5l0,-12.5l12.5,0c6.903,0 12.5,5.596 12.5,12.5c0,6.903 -5.597,12.5 -12.5,12.5Z" style="fill:#fc2513;fill-rule:nonzero;"/><rect x="675" y="725" width="25" height="25" style="fill:#fc2513;"/><rect x="750" y="725" width="25" height="25" style="fill:#fc2513;"/><path d="M812.5,725l12.5,0l0,25l-12.5,0c-6.906,0 -12.5,-5.599 -12.5,-12.5c0,-6.902 5.594,-12.5 12.5,-12.5Z" style="fill:#fc2513;fill-rule:nonzero;"/><path d="M850,725l-25,0l0,25c13.807,0 25,-11.193 25,-25Z" style="fill:#fc2513;fill-rule:nonzero;"/><rect x="900" y="725" width="25" height="25" style="fill:#fc2513;"/><path d="M987.5,725c6.904,0 12.5,5.596 12.5,12.5c0,6.904 -5.596,12.5 -12.5,12.5c-6.904,0 -12.5,-5.596 -12.5,-12.5c0,-6.904 5.596,-12.5 12.5,-12.5Z" style="fill:#fc2513;fill-rule:nonzero;"/><path d="M1025,750l25,0l0,-25c-13.807,0 -25,11.193 -25,25Z" style="fill:#fc2513;fill-rule:nonzero;"/><rect x="1050" y="725" width="25" height="25" style="fill:#fc2513;"/><path d="M75,775l0,-25l-25,0c0,13.807 11.193,25 25,25Z" style="fill:#fc2513;fill-rule:nonzero;"/><rect x="75" y="750" width="25" height="25" style="fill:#fc2513;"/><path d="M100,750l0,25l25,0c0,-13.807 -11.193,-25 -25,-25Z" style="fill:#fc2513;fill-rule:nonzero;"/><path d="M162.5,750c6.904,0 12.5,5.596 12.5,12.5c0,6.904 -5.596,12.5 -12.5,12.5c-6.904,0 -12.5,-5.596 -12.5,-12.5c0,-6.904 5.596,-12.5 12.5,-12.5Z" style="fill:#fc2513;fill-rule:nonzero;"/><path d="M212.5,750c6.904,0 12.5,5.596 12.5,12.5c0,6.904 -5.596,12.5 -12.5,12.5c-6.904,0 -12.5,-5.596 -12.5,-12.5c0,-6.904 5.596,-12.5 12.5,-12.5Z" style="fill:#fc2513;fill-rule:nonzero;"/><path d="M287.5,750c6.904,0 12.5,5.596 12.5,12.5c0,6.904 -5.596,12.5 -12.5,12.5c-6.904,0 -12.5,-5.596 -12.5,-12.5c0,-6.904 5.596,-12.5 12.5,-12.5Z" style="fill:#fc2513;fill-rule:nonzero;"/><rect x="325" y="750" width="25" height="25" style="fill:#fc2513;"/><rect x="350" y="750" width="25" height="25" style="fill:#fc2513;"/><rect x="375" y="750" width="25" height="25" style="fill:#fc2513;"/><path d="M425,750l-25,0l0,25c13.807,0 25,-11.193 25,-25Z" style="fill:#fc2513;fill-rule:nonzero;"/><rect x="475" y="750" width="25" height="25" style="fill:#fc2513;"/><rect x="525" y="750" width="25" height="25" style="fill:#fc2513;"/><rect x="550" y="750" width="25" height="25" style="fill:#fc2513;"/><rect x="575" y="750" width="25" height="25" style="fill:#fc2513;"/><rect x="675" y="750" width="25" height="25" style="fill:#fc2513;"/><rect x="700" y="750" width="25" height="25" style="fill:#fc2513;"/><rect x="725" y="750" width="25" height="25" style="fill:#fc2513;"/><path d="M775,750l-25,0l0,25c13.807,0 25,-11.193 25,-25Z" style="fill:#fc2513;fill-rule:nonzero;"/><path d="M850,775l25,0l0,-25c-13.807,0 -25,11.193 -25,25Z" style="fill:#fc2513;fill-rule:nonzero;"/><rect x="875" y="750" width="25" height="25" style="fill:#fc2513;"/><rect x="900" y="750" width="25" height="25" style="fill:#fc2513;"/><path d="M925,750l0,25l25,0c0,-13.807 -11.193,-25 -25,-25Z" style="fill:#fc2513;fill-rule:nonzero;"/><path d="M1050,775l0,-25l-25,0c0,13.807 11.193,25 25,25Z" style="fill:#fc2513;fill-rule:nonzero;"/><rect x="1050" y="750" width="25" height="25" style="fill:#fc2513;"/><rect x="100" y="775" width="25" height="25" style="fill:#fc2513;"/><path d="M137.5,800l-12.5,0l0,-12.5l0,-12.5l12.5,0c6.903,0 12.5,5.596 12.5,12.5c0,6.903 -5.597,12.5 -12.5,12.5Z" style="fill:#fc2513;fill-rule:nonzero;"/><path d="M187.5,775c6.904,0 12.5,5.596 12.5,12.5c0,6.904 -5.596,12.5 -12.5,12.5c-6.904,0 -12.5,-5.596 -12.5,-12.5c0,-6.904 5.596,-12.5 12.5,-12.5Z" style="fill:#fc2513;fill-rule:nonzero;"/><path d="M225,800l25,0l0,-25c-13.807,0 -25,11.193 -25,25Z" style="fill:#fc2513;fill-rule:nonzero;"/><path d="M262.5,800l-12.5,0l0,-12.5l0,-12.5l12.5,0c6.903,0 12.5,5.596 12.5,12.5c0,6.903 -5.597,12.5 -12.5,12.5Z" style="fill:#fc2513;fill-rule:nonzero;"/><path d="M300,800l25,0l0,-25c-13.807,0 -25,11.193 -25,25Z" style="fill:#fc2513;fill-rule:nonzero;"/><rect x="325" y="775" width="25" height="25" style="fill:#fc2513;"/><rect x="350" y="775" width="25" height="25" style="fill:#fc2513;"/><rect x="375" y="775" width="25" height="25" style="fill:#fc2513;"/><path d="M425,800l25,0l0,-25c-13.807,0 -25,11.193 -25,25Z" style="fill:#fc2513;fill-rule:nonzero;"/><rect x="450" y="775" width="25" height="25" style="fill:#fc2513;"/><rect x="475" y="775" width="25" height="25" style="fill:#fc2513;"/><rect x="500" y="775" width="25" height="25" style="fill:#fc2513;"/><path d="M550,775l-25,0l0,25c13.807,0 25,-11.193 25,-25Z" style="fill:#fc2513;fill-rule:nonzero;"/><rect x="575" y="775" width="25" height="25" style="fill:#fc2513;"/><rect x="600" y="775" width="25" height="25" style="fill:#fc2513;"/><rect x="625" y="775" width="25" height="25" style="fill:#fc2513;"/><rect x="650" y="775" width="25" height="25" style="fill:#fc2513;"/><rect x="675" y="775" width="25" height="25" style="fill:#fc2513;"/><path d="M787.5,775l12.5,0l0,25l-12.5,0c-6.906,0 -12.5,-5.599 -12.5,-12.5c0,-6.902 5.594,-12.5 12.5,-12.5Z" style="fill:#fc2513;fill-rule:nonzero;"/><path d="M812.5,800l-12.5,0l0,-12.5l0,-12.5l12.5,0c6.903,0 12.5,5.596 12.5,12.5c0,6.903 -5.597,12.5 -12.5,12.5Z" style="fill:#fc2513;fill-rule:nonzero;"/><path d="M875,800l0,-25l-25,0c0,13.807 11.193,25 25,25Z" style="fill:#fc2513;fill-rule:nonzero;"/><rect x="875" y="775" width="25" height="25" style="fill:#fc2513;"/><rect x="900" y="775" width="25" height="25" style="fill:#fc2513;"/><rect x="925" y="775" width="25" height="25" style="fill:#fc2513;"/><path d="M987.5,775l12.5,0l0,25l-12.5,0c-6.906,0 -12.5,-5.599 -12.5,-12.5c0,-6.902 5.594,-12.5 12.5,-12.5Z" style="fill:#fc2513;fill-rule:nonzero;"/><path d="M1012.5,800l-12.5,0l0,-12.5l0,-12.5l12.5,0c6.903,0 12.5,5.596 12.5,12.5c0,6.903 -5.597,12.5 -12.5,12.5Z" style="fill:#fc2513;fill-rule:nonzero;"/><rect x="1050" y="775" width="25" height="25" style="fill:#fc2513;"/><path d="M62.5,800l12.5,0l0,25l-12.5,0c-6.906,0 -12.5,-5.599 -12.5,-12.5c0,-6.902 5.594,-12.5 12.5,-12.5Z" style="fill:#fc2513;fill-rule:nonzero;"/><rect x="75" y="800" width="25" height="25" style="fill:#fc2513;"/><rect x="100" y="800" width="25" height="25" style="fill:#fc2513;"/><path d="M212.5,800l12.5,0l0,25l-12.5,0c-6.906,0 -12.5,-5.599 -12.5,-12.5c0,-6.902 5.594,-12.5 12.5,-12.5Z" style="fill:#fc2513;fill-rule:nonzero;"/><path d="M250,800l-25,0l0,25c13.807,0 25,-11.193 25,-25Z" style="fill:#fc2513;fill-rule:nonzero;"/><path d="M287.5,800l12.5,0l0,25l-12.5,0c-6.906,0 -12.5,-5.599 -12.5,-12.5c0,-6.902 5.594,-12.5 12.5,-12.5Z" style="fill:#fc2513;fill-rule:nonzero;"/><path d="M325,800l-25,0l0,25c13.807,0 25,-11.193 25,-25Z" style="fill:#fc2513;fill-rule:nonzero;"/><path d="M375,825l0,-25l-25,0c0,13.807 11.193,25 25,25Z" style="fill:#fc2513;fill-rule:nonzero;"/><rect x="375" y="800" width="25" height="25" style="fill:#fc2513;"/><rect x="400" y="800" width="25" height="25" style="fill:#fc2513;"/><rect x="425" y="800" width="25" height="25" style="fill:#fc2513;"/><rect x="500" y="800" width="25" height="25" style="fill:#fc2513;"/><path d="M550,825l25,0l0,-25c-13.807,0 -25,11.193 -25,25Z" style="fill:#fc2513;fill-rule:nonzero;"/><rect x="575" y="800" width="25" height="25" style="fill:#fc2513;"/><rect x="675" y="800" width="25" height="25" style="fill:#fc2513;"/><path d="M725,825l25,0l0,-25c-13.807,0 -25,11.193 -25,25Z" style="fill:#fc2513;fill-rule:nonzero;"/><path d="M762.5,825l-12.5,0l0,-12.5l0,-12.5l12.5,0c6.903,0 12.5,5.596 12.5,12.5c0,6.903 -5.597,12.5 -12.5,12.5Z" style="fill:#fc2513;fill-rule:nonzero;"/><path d="M850,812.5l0,12.5c0,0 -8.51,0 -12.5,-0.001c-3.116,0.001 -12.5,0 -12.5,0l0,-12.499c0,-6.903 5.596,-12.5 12.5,-12.5c6.903,0 12.5,5.596 12.5,12.5Z" style="fill:#fc2513;fill-rule:nonzero;"/><rect x="925" y="800" width="25" height="25" style="fill:#fc2513;"/><path d="M962.5,825l-12.5,0l0,-12.5l0,-12.5l12.5,0c6.903,0 12.5,5.596 12.5,12.5c0,6.903 -5.597,12.5 -12.5,12.5Z" style="fill:#fc2513;fill-rule:nonzero;"/><path d="M1050,812.5l0,-12.5l25,0l0,12.5c0,6.903 -5.597,12.5 -12.5,12.5c-6.904,0 -12.5,-5.597 -12.5,-12.5Z" style="fill:#fc2513;fill-rule:nonzero;"/><rect x="100" y="825" width="25" height="25" style="fill:#fc2513;"/><path d="M137.5,850l-12.5,0l0,-12.5l0,-12.5l12.5,0c6.903,0 12.5,5.596 12.5,12.5c0,6.903 -5.597,12.5 -12.5,12.5Z" style="fill:#fc2513;fill-rule:nonzero;"/><path d="M275,837.5l0,12.5c0,0 -8.51,0 -12.5,-0.001c-3.116,0.001 -12.5,0 -12.5,0l0,-12.499c0,-6.903 5.596,-12.5 12.5,-12.5c6.903,0 12.5,5.596 12.5,12.5Z" style="fill:#fc2513;fill-rule:nonzero;"/><path d="M350,837.5l0,12.5c0,0 -8.51,0 -12.5,-0.001c-3.116,0.001 -12.5,0 -12.5,0l0,-12.499c0,-6.903 5.596,-12.5 12.5,-12.5c6.903,0 12.5,5.596 12.5,12.5Z" style="fill:#fc2513;fill-rule:nonzero;"/><path d="M425,850l0,-25l-25,0c0,13.807 11.193,25 25,25Z" style="fill:#fc2513;fill-rule:nonzero;"/><rect x="425" y="825" width="25" height="25" style="fill:#fc2513;"/><path d="M450,825l0,25l25,0c0,-13.807 -11.193,-25 -25,-25Z" style="fill:#fc2513;fill-rule:nonzero;"/><rect x="500" y="825" width="25" height="25" style="fill:#fc2513;"/><rect x="525" y="825" width="25" height="25" style="fill:#fc2513;"/><rect x="550" y="825" width="25" height="25" style="fill:#fc2513;"/><path d="M600,825l-25,0l0,25c13.807,0 25,-11.193 25,-25Z" style="fill:#fc2513;fill-rule:nonzero;"/><path d="M625,850l25,0l0,-25c-13.807,0 -25,11.193 -25,25Z" style="fill:#fc2513;fill-rule:nonzero;"/><rect x="650" y="825" width="25" height="25" style="fill:#fc2513;"/><rect x="675" y="825" width="25" height="25" style="fill:#fc2513;"/><path d="M725,837.5l0,-12.5l25,0l0,12.5c0,6.903 -5.597,12.5 -12.5,12.5c-6.904,0 -12.5,-5.597 -12.5,-12.5Z" style="fill:#fc2513;fill-rule:nonzero;"/><path d="M812.5,825l12.5,0l0,25l-12.5,0c-6.906,0 -12.5,-5.599 -12.5,-12.5c0,-6.902 5.594,-12.5 12.5,-12.5Z" style="fill:#fc2513;fill-rule:nonzero;"/><rect x="825" y="825" width="25" height="25" style="fill:#fc2513;"/><path d="M850,825l0,25l25,0c0,-13.807 -11.193,-25 -25,-25Z" style="fill:#fc2513;fill-rule:nonzero;"/><rect x="925" y="825" width="25" height="25" style="fill:#fc2513;"/><path d="M1000,837.5l0,12.5c0,0 -8.51,0 -12.5,-0.001c-3.116,0.001 -12.5,0 -12.5,0l0,-12.499c0,-6.903 5.596,-12.5 12.5,-12.5c6.903,0 12.5,5.596 12.5,12.5Z" style="fill:#fc2513;fill-rule:nonzero;"/><path d="M1050,837.5l0,12.5c0,0 -8.51,0 -12.5,-0.001c-3.116,0.001 -12.5,0 -12.5,0l0,-12.499c0,-6.903 5.596,-12.5 12.5,-12.5c6.903,0 12.5,5.596 12.5,12.5Z" style="fill:#fc2513;fill-rule:nonzero;"/><path d="M62.5,850l12.5,0l0,25l-12.5,0c-6.906,0 -12.5,-5.599 -12.5,-12.5c0,-6.902 5.594,-12.5 12.5,-12.5Z" style="fill:#fc2513;fill-rule:nonzero;"/><rect x="75" y="850" width="25" height="25" style="fill:#fc2513;"/><path d="M125,850l-25,0l0,25c13.807,0 25,-11.193 25,-25Z" style="fill:#fc2513;fill-rule:nonzero;"/><path d="M187.5,850l12.5,0l0,25l-12.5,0c-6.906,0 -12.5,-5.599 -12.5,-12.5c0,-6.902 5.594,-12.5 12.5,-12.5Z" style="fill:#fc2513;fill-rule:nonzero;"/><path d="M212.5,875l-12.5,0l0,-12.5l0,-12.5l12.5,0c6.903,0 12.5,5.596 12.5,12.5c0,6.903 -5.597,12.5 -12.5,12.5Z" style="fill:#fc2513;fill-rule:nonzero;"/><rect x="250" y="850" width="25" height="25" style="fill:#fc2513;"/><path d="M350,875l0,-25l-25,0c0,13.807 11.193,25 25,25Z" style="fill:#fc2513;fill-rule:nonzero;"/><rect x="350" y="850" width="25" height="25" style="fill:#fc2513;"/><path d="M375,850l0,25l25,0c0,-13.807 -11.193,-25 -25,-25Z" style="fill:#fc2513;fill-rule:nonzero;"/><path d="M450,862.5l0,-12.5l25,0l0,12.5c0,6.903 -5.597,12.5 -12.5,12.5c-6.904,0 -12.5,-5.597 -12.5,-12.5Z" style="fill:#fc2513;fill-rule:nonzero;"/><rect x="500" y="850" width="25" height="25" style="fill:#fc2513;"/><rect x="625" y="850" width="25" height="25" style="fill:#fc2513;"/><path d="M700,875l0,-25l-25,0c0,13.807 11.193,25 25,25Z" style="fill:#fc2513;fill-rule:nonzero;"/><path d="M700,850l0,25l25,0c0,-13.807 -11.193,-25 -25,-25Z" style="fill:#fc2513;fill-rule:nonzero;"/><path d="M775,862.5l0,12.5c0,0 -8.51,0 -12.5,-0.001c-3.116,0.001 -12.5,0 -12.5,0l0,-12.499c0,-6.903 5.596,-12.5 12.5,-12.5c6.903,0 12.5,5.596 12.5,12.5Z" style="fill:#fc2513;fill-rule:nonzero;"/><path d="M850,875l0,-25l-25,0c0,13.807 11.193,25 25,25Z" style="fill:#fc2513;fill-rule:nonzero;"/><rect x="850" y="850" width="25" height="25" style="fill:#fc2513;"/><rect x="875" y="850" width="25" height="25" style="fill:#fc2513;"/><rect x="900" y="850" width="25" height="25" style="fill:#fc2513;"/><rect x="925" y="850" width="25" height="25" style="fill:#fc2513;"/><rect x="950" y="850" width="25" height="25" style="fill:#fc2513;"/><rect x="975" y="850" width="25" height="25" style="fill:#fc2513;"/><path d="M1025,862.5l0,-12.5l25,0l0,12.5c0,6.903 -5.597,12.5 -12.5,12.5c-6.904,0 -12.5,-5.597 -12.5,-12.5Z" style="fill:#fc2513;fill-rule:nonzero;"/><rect x="250" y="875" width="25" height="25" style="fill:#fc2513;"/><path d="M375,900l0,-25l-25,0c0,13.807 11.193,25 25,25Z" style="fill:#fc2513;fill-rule:nonzero;"/><rect x="375" y="875" width="25" height="25" style="fill:#fc2513;"/><rect x="500" y="875" width="25" height="25" style="fill:#fc2513;"/><path d="M525,875l0,25l25,0c0,-13.807 -11.193,-25 -25,-25Z" style="fill:#fc2513;fill-rule:nonzero;"/><path d="M600,887.5l0,12.5c0,0 -8.51,0 -12.5,-0.001c-3.116,0.001 -12.5,0 -12.5,0l0,-12.499c0,-6.903 5.596,-12.5 12.5,-12.5c6.903,0 12.5,5.596 12.5,12.5Z" style="fill:#fc2513;fill-rule:nonzero;"/><rect x="625" y="875" width="25" height="25" style="fill:#fc2513;"/><path d="M725,900l0,-25l-25,0c0,13.807 11.193,25 25,25Z" style="fill:#fc2513;fill-rule:nonzero;"/><rect x="725" y="875" width="25" height="25" style="fill:#fc2513;"/><rect x="750" y="875" width="25" height="25" style="fill:#fc2513;"/><path d="M775,875l0,25l25,0c0,-13.807 -11.193,-25 -25,-25Z" style="fill:#fc2513;fill-rule:nonzero;"/><rect x="850" y="875" width="25" height="25" style="fill:#fc2513;"/><rect x="950" y="875" width="25" height="25" style="fill:#fc2513;"/><rect x="975" y="875" width="25" height="25" style="fill:#fc2513;"/><path d="M1012.5,900l-12.5,0l0,-12.5l0,-12.5l12.5,0c6.903,0 12.5,5.596 12.5,12.5c0,6.903 -5.597,12.5 -12.5,12.5Z" style="fill:#fc2513;fill-rule:nonzero;"/><path d="M1075,887.5l0,12.5c0,0 -8.51,0 -12.5,-0.001c-3.116,0.001 -12.5,0 -12.5,0l0,-12.499c0,-6.903 5.596,-12.5 12.5,-12.5c6.903,0 12.5,5.596 12.5,12.5Z" style="fill:#fc2513;fill-rule:nonzero;"/><rect x="250" y="900" width="25" height="25" style="fill:#fc2513;"/><rect x="275" y="900" width="25" height="25" style="fill:#fc2513;"/><path d="M300,900l0,25l25,0c0,-13.807 -11.193,-25 -25,-25Z" style="fill:#fc2513;fill-rule:nonzero;"/><rect x="375" y="900" width="25" height="25" style="fill:#fc2513;"/><path d="M412.5,925l-12.5,0l0,-12.5l0,-12.5l12.5,0c6.903,0 12.5,5.596 12.5,12.5c0,6.903 -5.597,12.5 -12.5,12.5Z" style="fill:#fc2513;fill-rule:nonzero;"/><path d="M475,912.5l0,12.5c0,0 -8.51,0 -12.5,-0.001c-3.116,0.001 -12.5,0 -12.5,0l0,-12.499c0,-6.903 5.596,-12.5 12.5,-12.5c6.903,0 12.5,5.596 12.5,12.5Z" style="fill:#fc2513;fill-rule:nonzero;"/><rect x="500" y="900" width="25" height="25" style="fill:#fc2513;"/><path d="M550,900l-25,0l0,25c13.807,0 25,-11.193 25,-25Z" style="fill:#fc2513;fill-rule:nonzero;"/><path d="M600,925l0,-25l-25,0c0,13.807 11.193,25 25,25Z" style="fill:#fc2513;fill-rule:nonzero;"/><rect x="600" y="900" width="25" height="25" style="fill:#fc2513;"/><rect x="625" y="900" width="25" height="25" style="fill:#fc2513;"/><path d="M725,912.5l0,-12.5l25,0l0,12.5c0,6.903 -5.597,12.5 -12.5,12.5c-6.904,0 -12.5,-5.597 -12.5,-12.5Z" style="fill:#fc2513;fill-rule:nonzero;"/><path d="M800,925l0,-25l-25,0c0,13.807 11.193,25 25,25Z" style="fill:#fc2513;fill-rule:nonzero;"/><path d="M812.5,925l-12.5,0l0,-12.5l0,-12.5l12.5,0c6.903,0 12.5,5.596 12.5,12.5c0,6.903 -5.597,12.5 -12.5,12.5Z" style="fill:#fc2513;fill-rule:nonzero;"/><rect x="850" y="900" width="25" height="25" style="fill:#fc2513;"/><path d="M912.5,900c6.904,0 12.5,5.596 12.5,12.5c0,6.904 -5.596,12.5 -12.5,12.5c-6.904,0 -12.5,-5.596 -12.5,-12.5c0,-6.904 5.596,-12.5 12.5,-12.5Z" style="fill:#fc2513;fill-rule:nonzero;"/><rect x="950" y="900" width="25" height="25" style="fill:#fc2513;"/><rect x="1050" y="900" width="25" height="25" style="fill:#fc2513;"/><path d="M250,937.5l0,-12.5l25,0l0,12.5c0,6.903 -5.597,12.5 -12.5,12.5c-6.904,0 -12.5,-5.597 -12.5,-12.5Z" style="fill:#fc2513;fill-rule:nonzero;"/><path d="M325,950l0,-25l-25,0c0,13.807 11.193,25 25,25Z" style="fill:#fc2513;fill-rule:nonzero;"/><path d="M325,925l0,25l25,0c0,-13.807 -11.193,-25 -25,-25Z" style="fill:#fc2513;fill-rule:nonzero;"/><rect x="375" y="925" width="25" height="25" style="fill:#fc2513;"/><rect x="450" y="925" width="25" height="25" style="fill:#fc2513;"/><rect x="500" y="925" width="25" height="25" style="fill:#fc2513;"/><path d="M575,937.5l0,12.5c0,0 -8.51,0 -12.5,-0.001c-3.116,0.001 -12.5,0 -12.5,0l0,-12.499c0,-6.903 5.596,-12.5 12.5,-12.5c6.903,0 12.5,5.596 12.5,12.5Z" style="fill:#fc2513;fill-rule:nonzero;"/><rect x="625" y="925" width="25" height="25" style="fill:#fc2513;"/><path d="M650,925l0,25l25,0c0,-13.807 -11.193,-25 -25,-25Z" style="fill:#fc2513;fill-rule:nonzero;"/><path d="M825,950l25,0l0,-25c-13.807,0 -25,11.193 -25,25Z" style="fill:#fc2513;fill-rule:nonzero;"/><rect x="850" y="925" width="25" height="25" style="fill:#fc2513;"/><rect x="950" y="925" width="25" height="25" style="fill:#fc2513;"/><path d="M987.5,950l-12.5,0l0,-12.5l0,-12.5l12.5,0c6.903,0 12.5,5.596 12.5,12.5c0,6.903 -5.597,12.5 -12.5,12.5Z" style="fill:#fc2513;fill-rule:nonzero;"/><path d="M1037.5,925l12.5,0l0,25l-12.5,0c-6.906,0 -12.5,-5.599 -12.5,-12.5c0,-6.902 5.594,-12.5 12.5,-12.5Z" style="fill:#fc2513;fill-rule:nonzero;"/><path d="M1075,925l-25,0l0,25c13.807,0 25,-11.193 25,-25Z" style="fill:#fc2513;fill-rule:nonzero;"/><rect x="325" y="950" width="25" height="25" style="fill:#fc2513;"/><rect x="375" y="950" width="25" height="25" style="fill:#fc2513;"/><path d="M425,975l25,0l0,-25c-13.807,0 -25,11.193 -25,25Z" style="fill:#fc2513;fill-rule:nonzero;"/><path d="M475,950l-25,0l0,25c13.807,0 25,-11.193 25,-25Z" style="fill:#fc2513;fill-rule:nonzero;"/><rect x="500" y="950" width="25" height="25" style="fill:#fc2513;"/><rect x="550" y="950" width="25" height="25" style="fill:#fc2513;"/><rect x="625" y="950" width="25" height="25" style="fill:#fc2513;"/><rect x="650" y="950" width="25" height="25" style="fill:#fc2513;"/><rect x="675" y="950" width="25" height="25" style="fill:#fc2513;"/><path d="M700,950l0,25l25,0c0,-13.807 -11.193,-25 -25,-25Z" style="fill:#fc2513;fill-rule:nonzero;"/><path d="M750,975l25,0l0,-25c-13.807,0 -25,11.193 -25,25Z" style="fill:#fc2513;fill-rule:nonzero;"/><path d="M787.5,975l-12.5,0l0,-12.5l0,-12.5l12.5,0c6.903,0 12.5,5.596 12.5,12.5c0,6.903 -5.597,12.5 -12.5,12.5Z" style="fill:#fc2513;fill-rule:nonzero;"/><path d="M850,975l0,-25l-25,0c0,13.807 11.193,25 25,25Z" style="fill:#fc2513;fill-rule:nonzero;"/><rect x="850" y="950" width="25" height="25" style="fill:#fc2513;"/><rect x="875" y="950" width="25" height="25" style="fill:#fc2513;"/><rect x="900" y="950" width="25" height="25" style="fill:#fc2513;"/><rect x="925" y="950" width="25" height="25" style="fill:#fc2513;"/><rect x="950" y="950" width="25" height="25" style="fill:#fc2513;"/><path d="M287.5,975l12.5,0l0,25l-12.5,0c-6.906,0 -12.5,-5.599 -12.5,-12.5c0,-6.902 5.594,-12.5 12.5,-12.5Z" style="fill:#fc2513;fill-rule:nonzero;"/><rect x="300" y="975" width="25" height="25" style="fill:#fc2513;"/><rect x="325" y="975" width="25" height="25" style="fill:#fc2513;"/><rect x="375" y="975" width="25" height="25" style="fill:#fc2513;"/><rect x="425" y="975" width="25" height="25" style="fill:#fc2513;"/><path d="M525,1000l0,-25l-25,0c0,13.807 11.193,25 25,25Z" style="fill:#fc2513;fill-rule:nonzero;"/><rect x="525" y="975" width="25" height="25" style="fill:#fc2513;"/><rect x="550" y="975" width="25" height="25" style="fill:#fc2513;"/><path d="M587.5,1000l-12.5,0l0,-12.5l0,-12.5l12.5,0c6.903,0 12.5,5.596 12.5,12.5c0,6.903 -5.597,12.5 -12.5,12.5Z" style="fill:#fc2513;fill-rule:nonzero;"/><rect x="625" y="975" width="25" height="25" style="fill:#fc2513;"/><rect x="700" y="975" width="25" height="25" style="fill:#fc2513;"/><rect x="725" y="975" width="25" height="25" style="fill:#fc2513;"/><path d="M775,975l-25,0l0,25c13.807,0 25,-11.193 25,-25Z" style="fill:#fc2513;fill-rule:nonzero;"/><rect x="850" y="975" width="25" height="25" style="fill:#fc2513;"/><path d="M950,1000l0,-25l-25,0c0,13.807 11.193,25 25,25Z" style="fill:#fc2513;fill-rule:nonzero;"/><rect x="950" y="975" width="25" height="25" style="fill:#fc2513;"/><path d="M975,975l0,25l25,0c0,-13.807 -11.193,-25 -25,-25Z" style="fill:#fc2513;fill-rule:nonzero;"/><path d="M1025,1000l25,0l0,-25c-13.807,0 -25,11.193 -25,25Z" style="fill:#fc2513;fill-rule:nonzero;"/><path d="M1050,975l0,25l25,0c0,-13.807 -11.193,-25 -25,-25Z" style="fill:#fc2513;fill-rule:nonzero;"/><path d="M262.5,1000c6.904,0 12.5,5.596 12.5,12.5c0,6.904 -5.596,12.5 -12.5,12.5c-6.904,0 -12.5,-5.596 -12.5,-12.5c0,-6.904 5.596,-12.5 12.5,-12.5Z" style="fill:#fc2513;fill-rule:nonzero;"/><path d="M325,1012.5l0,-12.5l25,0l0,12.5c0,6.903 -5.597,12.5 -12.5,12.5c-6.904,0 -12.5,-5.597 -12.5,-12.5Z" style="fill:#fc2513;fill-rule:nonzero;"/><path d="M375,1012.5l0,-12.5l25,0l0,12.5c0,6.903 -5.597,12.5 -12.5,12.5c-6.904,0 -12.5,-5.597 -12.5,-12.5Z" style="fill:#fc2513;fill-rule:nonzero;"/><rect x="425" y="1000" width="25" height="25" style="fill:#fc2513;"/><path d="M625,1012.5l0,-12.5l25,0l0,12.5c0,6.903 -5.597,12.5 -12.5,12.5c-6.904,0 -12.5,-5.597 -12.5,-12.5Z" style="fill:#fc2513;fill-rule:nonzero;"/><rect x="700" y="1000" width="25" height="25" style="fill:#fc2513;"/><rect x="725" y="1000" width="25" height="25" style="fill:#fc2513;"/><path d="M787.5,1000l12.5,0l0,25l-12.5,0c-6.906,0 -12.5,-5.599 -12.5,-12.5c0,-6.902 5.594,-12.5 12.5,-12.5Z" style="fill:#fc2513;fill-rule:nonzero;"/><path d="M812.5,1025l-12.5,0l0,-12.5l0,-12.5l12.5,0c6.903,0 12.5,5.596 12.5,12.5c0,6.903 -5.597,12.5 -12.5,12.5Z" style="fill:#fc2513;fill-rule:nonzero;"/><rect x="850" y="1000" width="25" height="25" style="fill:#fc2513;"/><path d="M975,1025l0,-25l-25,0c0,13.807 11.193,25 25,25Z" style="fill:#fc2513;fill-rule:nonzero;"/><rect x="975" y="1000" width="25" height="25" style="fill:#fc2513;"/><rect x="1000" y="1000" width="25" height="25" style="fill:#fc2513;"/><rect x="1025" y="1000" width="25" height="25" style="fill:#fc2513;"/><path d="M1075,1000l-25,0l0,25c13.807,0 25,-11.193 25,-25Z" style="fill:#fc2513;fill-rule:nonzero;"/><path d="M450,1050l0,-25l-25,0c0,13.807 11.193,25 25,25Z" style="fill:#fc2513;fill-rule:nonzero;"/><path d="M450,1025l0,25l25,0c0,-13.807 -11.193,-25 -25,-25Z" style="fill:#fc2513;fill-rule:nonzero;"/><path d="M537.5,1025l12.5,0l0,25l-12.5,0c-6.906,0 -12.5,-5.599 -12.5,-12.5c0,-6.902 5.594,-12.5 12.5,-12.5Z" style="fill:#fc2513;fill-rule:nonzero;"/><path d="M550,1025l0,25l25,0c0,-13.807 -11.193,-25 -25,-25Z" style="fill:#fc2513;fill-rule:nonzero;"/><path d="M612.5,1025c6.904,0 12.5,5.597 12.5,12.5c0,6.904 -5.596,12.5 -12.5,12.5c-6.904,0 -12.5,-5.596 -12.5,-12.5c0,-6.903 5.596,-12.5 12.5,-12.5Z" style="fill:#fc2513;fill-rule:nonzero;"/><path d="M662.5,1025l12.5,0l0,25l-12.5,0c-6.906,0 -12.5,-5.599 -12.5,-12.5c0,-6.902 5.594,-12.5 12.5,-12.5Z" style="fill:#fc2513;fill-rule:nonzero;"/><rect x="675" y="1025" width="25" height="25" style="fill:#fc2513;"/><rect x="700" y="1025" width="25" height="25" style="fill:#fc2513;"/><rect x="725" y="1025" width="25" height="25" style="fill:#fc2513;"/><rect x="850" y="1025" width="25" height="25" style="fill:#fc2513;"/><path d="M950,1037.5l0,12.5c0,0 -8.51,0 -12.5,-0.001c-3.116,0.001 -12.5,0 -12.5,0l0,-12.499c0,-6.903 5.596,-12.5 12.5,-12.5c6.903,0 12.5,5.597 12.5,12.5Z" style="fill:#fc2513;fill-rule:nonzero;"/><path d="M287.5,1050l12.5,0l0,25l-12.5,0c-6.906,0 -12.5,-5.599 -12.5,-12.5c0,-6.902 5.594,-12.5 12.5,-12.5Z" style="fill:#fc2513;fill-rule:nonzero;"/><path d="M312.5,1075l-12.5,0l0,-12.5l0,-12.5l12.5,0c6.903,0 12.5,5.596 12.5,12.5c0,6.903 -5.597,12.5 -12.5,12.5Z" style="fill:#fc2513;fill-rule:nonzero;"/><path d="M450,1062.5l0,-12.5l25,0l0,12.5c0,6.903 -5.597,12.5 -12.5,12.5c-6.904,0 -12.5,-5.597 -12.5,-12.5Z" style="fill:#fc2513;fill-rule:nonzero;"/><path d="M512.5,1050c6.904,0 12.5,5.597 12.5,12.5c0,6.904 -5.596,12.5 -12.5,12.5c-6.904,0 -12.5,-5.596 -12.5,-12.5c0,-6.903 5.596,-12.5 12.5,-12.5Z" style="fill:#fc2513;fill-rule:nonzero;"/><path d="M550,1062.5l0,-12.5l25,0l0,12.5c0,6.903 -5.597,12.5 -12.5,12.5c-6.904,0 -12.5,-5.597 -12.5,-12.5Z" style="fill:#fc2513;fill-rule:nonzero;"/><path d="M725,1062.5l0,-12.5l25,0l0,12.5c0,6.903 -5.597,12.5 -12.5,12.5c-6.904,0 -12.5,-5.597 -12.5,-12.5Z" style="fill:#fc2513;fill-rule:nonzero;"/><path d="M850,1062.5l0,-12.5l25,0l0,12.5c0,6.903 -5.597,12.5 -12.5,12.5c-6.904,0 -12.5,-5.597 -12.5,-12.5Z" style="fill:#fc2513;fill-rule:nonzero;"/><path d="M912.5,1050l12.5,0l0,25l-12.5,0c-6.906,0 -12.5,-5.599 -12.5,-12.5c0,-6.902 5.594,-12.5 12.5,-12.5Z" style="fill:#fc2513;fill-rule:nonzero;"/><path d="M950,1050l-25,0l0,25c13.807,0 25,-11.193 25,-25Z" style="fill:#fc2513;fill-rule:nonzero;"/><path d="M1062.5,1050c6.904,0 12.5,5.597 12.5,12.5c0,6.904 -5.596,12.5 -12.5,12.5c-6.903,0 -12.5,-5.596 -12.5,-12.5c0,-6.903 5.597,-12.5 12.5,-12.5Z" style="fill:#fc2513;fill-rule:nonzero;"/><g><path d="M165.253,76.264l-55.506,0c-7.144,0 -13.771,2.201 -19.214,5.947c-4.233,2.913 -7.749,6.761 -10.234,11.236c-2.583,4.65 -4.049,9.974 -4.049,15.63l0,56.824c0,18.102 15.025,32.83 33.504,32.83l27.746,0.005l27.746,-0.007c18.478,0 33.504,-14.728 33.504,-32.828l0,-56.824c0,-18.094 -15.026,-32.813 -33.497,-32.813Z" style="fill:none;fill-rule:nonzero;"/><path d="M165.253,50.014l-55.506,0c-27.052,0 -49.97,17.873 -57.297,42.301c-0.758,2.527 -1.349,5.124 -1.761,7.779c-0.453,2.929 -0.689,5.929 -0.689,8.983l0,56.824c0,32.583 26.81,59.08 59.747,59.08l27.753,0.005l27.753,-0.007c32.935,0 59.747,-26.497 59.747,-59.08l0,-56.822c0,-32.568 -26.81,-59.063 -59.747,-59.063Zm33.497,115.887c0,18.102 -15.025,32.83 -33.504,32.83l-27.746,0.005l-27.746,-0.007c-18.478,0 -33.504,-14.728 -33.504,-32.828l0,-56.824c0,-5.655 1.466,-10.978 4.048,-15.63c2.485,-4.474 6,-8.323 10.234,-11.236c5.442,-3.747 12.07,-5.947 19.213,-5.947l55.508,0c18.471,0 33.497,14.719 33.497,32.813l0,56.824Z" style="fill:#fc2513;fill-rule:nonzero;"/></g><g><path d="M1015.25,76.264l-55.506,0c-7.144,0 -13.771,2.201 -19.214,5.947c-4.233,2.913 -7.749,6.761 -10.234,11.236c-2.583,4.65 -4.049,9.974 -4.049,15.63l0,56.824c0,18.102 15.025,32.83 33.504,32.83l27.746,0.005l27.746,-0.007c18.478,0 33.504,-14.728 33.504,-32.828l0,-56.824c0,-18.094 -15.025,-32.813 -33.497,-32.813Z" style="fill:none;fill-rule:nonzero;"/><path d="M1015.25,50.014l-55.506,0c-27.052,0 -49.97,17.873 -57.297,42.301c-0.758,2.527 -1.349,5.124 -1.761,7.779c-0.453,2.929 -0.689,5.929 -0.689,8.983l0,56.824c0,32.583 26.81,59.08 59.747,59.08l27.753,0.005l27.753,-0.007c32.935,0 59.747,-26.497 59.747,-59.08l0,-56.822c0,-32.568 -26.81,-59.063 -59.747,-59.063Zm33.497,115.887c0,18.102 -15.026,32.83 -33.504,32.83l-27.746,0.005l-27.746,-0.007c-18.479,0 -33.504,-14.728 -33.504,-32.828l0,-56.824c0,-5.655 1.466,-10.978 4.048,-15.63c2.485,-4.474 6,-8.323 10.234,-11.236c5.442,-3.747 12.069,-5.947 19.213,-5.947l55.508,0c18.471,0 33.497,14.719 33.497,32.813l0,56.824Z" style="fill:#fc2513;fill-rule:nonzero;"/></g><g><path d="M165.253,926.264l-55.506,0c-7.144,0 -13.771,2.202 -19.214,5.947c-4.233,2.913 -7.749,6.761 -10.234,11.236c-2.583,4.65 -4.049,9.973 -4.049,15.63l0,56.824c0,18.102 15.025,32.83 33.504,32.83l27.746,0.005l27.746,-0.007c18.478,0 33.504,-14.728 33.504,-32.828l0,-56.825c0,-18.093 -15.026,-32.812 -33.497,-32.812Z" style="fill:none;fill-rule:nonzero;"/><path d="M165.253,900.014l-55.506,0c-27.052,0 -49.97,17.873 -57.297,42.301c-0.758,2.527 -1.349,5.124 -1.761,7.779c-0.453,2.929 -0.689,5.929 -0.689,8.982l0,56.825c0,32.583 26.81,59.08 59.747,59.08l27.753,0.005l27.753,-0.007c32.935,0 59.747,-26.497 59.747,-59.08l0,-56.822c0,-32.568 -26.81,-59.063 -59.747,-59.063Zm33.497,115.887c0,18.102 -15.025,32.83 -33.504,32.83l-27.746,0.005l-27.746,-0.007c-18.478,0 -33.504,-14.728 -33.504,-32.828l0,-56.825c0,-5.654 1.466,-10.977 4.048,-15.629c2.485,-4.475 6,-8.323 10.234,-11.236c5.442,-3.747 12.07,-5.947 19.213,-5.947l55.508,0c18.471,0 33.497,14.719 33.497,32.813l0,56.824Z" style="fill:#fc2513;fill-rule:nonzero;"/></g><g id="XMLID_1_"><path d="M120.513,175c-11.317,0 -20.523,-9.024 -20.523,-20.106l-0.001,-34.799c0.001,-3.462 0.9,-6.719 2.476,-9.57c1.522,-2.744 3.676,-5.102 6.27,-6.881c3.332,-2.293 7.395,-3.644 11.767,-3.644l33.995,0c11.307,0 20.513,9.013 20.513,20.095l0,34.798c0,11.082 -9.205,20.106 -20.513,20.106l-16.997,0l-16.987,0l0,0.001Z" style="fill:#fc2513;fill-rule:nonzero;"/></g><g id="XMLID_1_1" serif:id="XMLID_1_"><path d="M970.513,175c-11.317,0 -20.524,-9.024 -20.524,-20.106l0,-34.799c0,-3.462 0.9,-6.719 2.476,-9.57c1.522,-2.744 3.676,-5.102 6.27,-6.881c3.332,-2.293 7.394,-3.644 11.767,-3.644l33.995,0c11.307,0 20.514,9.013 20.514,20.095l0,34.798c0,11.082 -9.206,20.106 -20.514,20.106l-16.997,0l-16.987,0l0,0.001Z" style="fill:#fc2513;fill-rule:nonzero;"/></g><g id="XMLID_1_2" serif:id="XMLID_1_"><path d="M120.513,1025c-11.317,0 -20.523,-9.024 -20.523,-20.106l-0.001,-34.798c0.001,-3.462 0.9,-6.721 2.476,-9.571c1.522,-2.744 3.676,-5.102 6.27,-6.881c3.332,-2.293 7.395,-3.644 11.767,-3.644l33.995,0c11.307,0 20.513,9.014 20.513,20.095l0,34.798c0,11.082 -9.205,20.106 -20.513,20.106l-16.997,0l-16.987,0l0,0.001Z" style="fill:#fc2513;fill-rule:nonzero;"/></g></g><g><path d="M429.834,543.166l-31.96,9.442l25.631,112.283l32.749,-9.879l-11.255,-48.96l40.741,40.208l37.295,-10.948l-49.979,-45.441l23.721,-67.205l-36.561,10.712l-17.927,60.031l-12.455,-50.243Z" style="fill:#fc2513;"/><path d="M555.707,505.156l31.854,-9.505l32.645,67.73l-3.875,-76.299l36.905,-11.574l29.826,68.516l-1.092,-77.166l31.952,-9.464l-3.246,121.18l-36.319,10.954l-31.987,-74.719l5.182,82.981l-36.975,10.292l-54.87,-102.926Z" style="fill:#fc2513;"/><g><path d="M565.632,563.591c-13.073,2.91 -18.589,10.134 -22.175,20.852c-8.147,-8.107 -16.419,-12.262 -29.492,-9.352c-15.517,3.454 -25.383,17.65 -21.994,31.645c2.072,8.556 7.171,15.605 16.045,22.184c12.843,9.522 31.67,16.642 51.155,27.506c1.097,0.612 2.558,0.287 3.263,-0.726c20.239,-29.122 43.425,-48.605 37.517,-72.998c-3.39,-13.995 -18.785,-22.569 -34.319,-19.111Zm-5.896,88.07c-30.488,-16.667 -57.888,-24.226 -63.15,-45.952c-2.834,-11.701 5.415,-23.569 18.387,-26.456c11.006,-2.45 18.002,0.335 27.724,11.034c1.219,1.342 3.649,0.803 4.128,-0.918c3.809,-13.712 8.81,-19.166 19.815,-21.616c12.99,-2.891 25.862,4.276 28.696,15.976c5.261,21.72 -15.864,40.056 -35.6,67.932Z" style="fill:#fc2513;fill-rule:nonzero;stroke:#fc2513;stroke-width:19px;"/></g></g></svg>