<?xml version="1.0" encoding="UTF-8" standalone="no"?><!DOCTYPE svg PUBLIC "-//W3C//DTD SVG 1.1//EN" "http://www.w3.org/Graphics/SVG/1.1/DTD/svg11.dtd"><svg width="100%" height="100%" viewBox="0 0 1125 1125" version="1.1" xmlns="http://www.w3.org/2000/svg" xmlns:xlink="http://www.w3.org/1999/xlink" xml:space="preserve" xmlns:serif="http://www.serif.com/" style="fill-rule:evenodd;clip-rule:evenodd;stroke-linejoin:round;stroke-miterlimit:2;"><rect x="0" y="0" width="1125" height="1125" style="fill:#fff;"/><g><path d="M262.5,50c6.904,0 12.5,5.596 12.5,12.5c0,6.904 -5.596,12.5 -12.5,12.5c-6.904,0 -12.5,-5.596 -12.5,-12.5c0,-6.904 5.596,-12.5 12.5,-12.5Z" style="fill:#fc2513;fill-rule:nonzero;"/><path d="M325,62.5l0,12.5c0,0 -8.51,0 -12.5,-0.001c-3.116,0.001 -12.5,0 -12.5,0l0,-12.499c0,-6.903 5.596,-12.5 12.5,-12.5c6.903,0 12.5,5.597 12.5,12.5Z" style="fill:#fc2513;fill-rule:nonzero;"/><path d="M362.5,50l12.5,0l0,25l-12.5,0c-6.906,0 -12.5,-5.599 -12.5,-12.5c0,-6.902 5.594,-12.5 12.5,-12.5Z" style="fill:#fc2513;fill-rule:nonzero;"/><rect x="375" y="50" width="25" height="25" style="fill:#fc2513;"/><rect x="400" y="50" width="25" height="25" style="fill:#fc2513;"/><rect x="425" y="50" width="25" height="25" style="fill:#fc2513;"/><rect x="450" y="50" width="25" height="25" style="fill:#fc2513;"/><path d="M487.5,75l-12.5,0l0,-12.5l0,-12.5l12.5,0c6.903,0 12.5,5.596 12.5,12.5c0,6.903 -5.597,12.5 -12.5,12.5Z" style="fill:#fc2513;fill-rule:nonzero;"/><path d="M575,62.5l0,12.5c0,0 -8.51,0 -12.5,-0.001c-3.116,0.001 -12.5,0 -12.5,0l0,-12.499c0,-6.903 5.596,-12.5 12.5,-12.5c6.903,0 12.5,5.597 12.5,12.5Z" style="fill:#fc2513;fill-rule:nonzero;"/><path d="M612.5,50l12.5,0l0,25l-12.5,0c-6.906,0 -12.5,-5.599 -12.5,-12.5c0,-6.902 5.594,-12.5 12.5,-12.5Z" style="fill:#fc2513;fill-rule:nonzero;"/><path d="M637.5,75l-12.5,0l0,-12.5l0,-12.5l12.5,0c6.903,0 12.5,5.596 12.5,12.5c0,6.903 -5.597,12.5 -12.5,12.5Z" style="fill:#fc2513;fill-rule:nonzero;"/><path d="M762.5,50l12.5,0l0,25l-12.5,0c-6.906,0 -12.5,-5.599 -12.5,-12.5c0,-6.902 5.594,-12.5 12.5,-12.5Z" style="fill:#fc2513;fill-rule:nonzero;"/><path d="M787.5,75l-12.5,0l0,-12.5l0,-12.5l12.5,0c6.903,0 12.5,5.596 12.5,12.5c0,6.903 -5.597,12.5 -12.5,12.5Z" style="fill:#fc2513;fill-rule:nonzero;"/><path d="M875,62.5l0,12.5c0,0 -8.51,0 -12.5,-0.001c-3.116,0.001 -12.5,0 -12.5,0l0,-12.499c0,-6.903 5.596,-12.5 12.5,-12.5c6.903,0 12.5,5.597 12.5,12.5Z" style="fill:#fc2513;fill-rule:nonzero;"/><path d="M275,100l25,0l0,-25c-13.807,0 -25,11.193 -25,25Z" style="fill:#fc2513;fill-rule:nonzero;"/><path d="M325,75l-25,0l0,25c13.807,0 25,-11.193 25,-25Z" style="fill:#fc2513;fill-rule:nonzero;"/><rect x="375" y="75" width="25" height="25" style="fill:#fc2513;"/><path d="M425,75l-25,0l0,25c13.807,0 25,-11.193 25,-25Z" style="fill:#fc2513;fill-rule:nonzero;"/><path d="M537.5,75l12.5,0l0,25l-12.5,0c-6.906,0 -12.5,-5.599 -12.5,-12.5c0,-6.902 5.594,-12.5 12.5,-12.5Z" style="fill:#fc2513;fill-rule:nonzero;"/><rect x="550" y="75" width="25" height="25" style="fill:#fc2513;"/><path d="M575,75l0,25l25,0c0,-13.807 -11.193,-25 -25,-25Z" style="fill:#fc2513;fill-rule:nonzero;"/><path d="M675,100l25,0l0,-25c-13.807,0 -25,11.193 -25,25Z" style="fill:#fc2513;fill-rule:nonzero;"/><path d="M712.5,100l-12.5,0l0,-12.5l0,-12.5l12.5,0c6.903,0 12.5,5.596 12.5,12.5c0,6.903 -5.597,12.5 -12.5,12.5Z" style="fill:#fc2513;fill-rule:nonzero;"/><path d="M812.5,75c6.904,0 12.5,5.597 12.5,12.5c0,6.904 -5.596,12.5 -12.5,12.5c-6.904,0 -12.5,-5.596 -12.5,-12.5c0,-6.903 5.596,-12.5 12.5,-12.5Z" style="fill:#fc2513;fill-rule:nonzero;"/><path d="M850,87.5l0,-12.5l25,0l0,12.5c0,6.903 -5.597,12.5 -12.5,12.5c-6.904,0 -12.5,-5.597 -12.5,-12.5Z" style="fill:#fc2513;fill-rule:nonzero;"/><path d="M262.5,100l12.5,0l0,25l-12.5,0c-6.906,0 -12.5,-5.599 -12.5,-12.5c0,-6.902 5.594,-12.5 12.5,-12.5Z" style="fill:#fc2513;fill-rule:nonzero;"/><rect x="275" y="100" width="25" height="25" style="fill:#fc2513;"/><path d="M325,125l25,0l0,-25c-13.807,0 -25,11.193 -25,25Z" style="fill:#fc2513;fill-rule:nonzero;"/><rect x="350" y="100" width="25" height="25" style="fill:#fc2513;"/><path d="M400,100l-25,0l0,25c13.807,0 25,-11.193 25,-25Z" style="fill:#fc2513;fill-rule:nonzero;"/><path d="M437.5,100l12.5,0l0,25l-12.5,0c-6.906,0 -12.5,-5.599 -12.5,-12.5c0,-6.902 5.594,-12.5 12.5,-12.5Z" style="fill:#fc2513;fill-rule:nonzero;"/><path d="M462.5,125l-12.5,0l0,-12.5l0,-12.5l12.5,0c6.903,0 12.5,5.596 12.5,12.5c0,6.903 -5.597,12.5 -12.5,12.5Z" style="fill:#fc2513;fill-rule:nonzero;"/><path d="M575,125l0,-25l-25,0c0,13.807 11.193,25 25,25Z" style="fill:#fc2513;fill-rule:nonzero;"/><rect x="575" y="100" width="25" height="25" style="fill:#fc2513;"/><path d="M612.5,125l-12.5,0l0,-12.5l0,-12.5l12.5,0c6.903,0 12.5,5.596 12.5,12.5c0,6.903 -5.597,12.5 -12.5,12.5Z" style="fill:#fc2513;fill-rule:nonzero;"/><path d="M675,112.5l0,-12.5l25,0l0,12.5c0,6.903 -5.597,12.5 -12.5,12.5c-6.904,0 -12.5,-5.597 -12.5,-12.5Z" style="fill:#fc2513;fill-rule:nonzero;"/><path d="M737.5,100l12.5,0l0,25l-12.5,0c-6.906,0 -12.5,-5.599 -12.5,-12.5c0,-6.902 5.594,-12.5 12.5,-12.5Z" style="fill:#fc2513;fill-rule:nonzero;"/><path d="M750,100l0,25l25,0c0,-13.807 -11.193,-25 -25,-25Z" style="fill:#fc2513;fill-rule:nonzero;"/><rect x="275" y="125" width="25" height="25" style="fill:#fc2513;"/><rect x="300" y="125" width="25" height="25" style="fill:#fc2513;"/><rect x="325" y="125" width="25" height="25" style="fill:#fc2513;"/><path d="M375,125l-25,0l0,25c13.807,0 25,-11.193 25,-25Z" style="fill:#fc2513;fill-rule:nonzero;"/><path d="M412.5,125c6.904,0 12.5,5.596 12.5,12.5c0,6.904 -5.596,12.5 -12.5,12.5c-6.904,0 -12.5,-5.596 -12.5,-12.5c0,-6.904 5.596,-12.5 12.5,-12.5Z" style="fill:#fc2513;fill-rule:nonzero;"/><path d="M475,150l25,0l0,-25c-13.807,0 -25,11.193 -25,25Z" style="fill:#fc2513;fill-rule:nonzero;"/><path d="M512.5,150l-12.5,0l0,-12.5l0,-12.5l12.5,0c6.903,0 12.5,5.596 12.5,12.5c0,6.903 -5.597,12.5 -12.5,12.5Z" style="fill:#fc2513;fill-rule:nonzero;"/><rect x="575" y="125" width="25" height="25" style="fill:#fc2513;"/><rect x="750" y="125" width="25" height="25" style="fill:#fc2513;"/><path d="M812.5,125l12.5,0l0,25l-12.5,0c-6.906,0 -12.5,-5.599 -12.5,-12.5c0,-6.902 5.594,-12.5 12.5,-12.5Z" style="fill:#fc2513;fill-rule:nonzero;"/><path d="M825,125l0,25l25,0c0,-13.807 -11.193,-25 -25,-25Z" style="fill:#fc2513;fill-rule:nonzero;"/><path d="M262.5,150l12.5,0l0,25l-12.5,0c-6.906,0 -12.5,-5.599 -12.5,-12.5c0,-6.902 5.594,-12.5 12.5,-12.5Z" style="fill:#fc2513;fill-rule:nonzero;"/><rect x="275" y="150" width="25" height="25" style="fill:#fc2513;"/><rect x="300" y="150" width="25" height="25" style="fill:#fc2513;"/><path d="M350,150l-25,0l0,25c13.807,0 25,-11.193 25,-25Z" style="fill:#fc2513;fill-rule:nonzero;"/><path d="M450,162.5l0,12.5c0,0 -8.51,0 -12.5,-0.001c-3.116,0.001 -12.5,0 -12.5,0l0,-12.499c0,-6.903 5.596,-12.5 12.5,-12.5c6.903,0 12.5,5.596 12.5,12.5Z" style="fill:#fc2513;fill-rule:nonzero;"/><rect x="475" y="150" width="25" height="25" style="fill:#fc2513;"/><rect x="575" y="150" width="25" height="25" style="fill:#fc2513;"/><path d="M600,150l0,25l25,0c0,-13.807 -11.193,-25 -25,-25Z" style="fill:#fc2513;fill-rule:nonzero;"/><path d="M687.5,150c6.904,0 12.5,5.596 12.5,12.5c0,6.904 -5.596,12.5 -12.5,12.5c-6.904,0 -12.5,-5.596 -12.5,-12.5c0,-6.904 5.596,-12.5 12.5,-12.5Z" style="fill:#fc2513;fill-rule:nonzero;"/><rect x="750" y="150" width="25" height="25" style="fill:#fc2513;"/><path d="M850,175l0,-25l-25,0c0,13.807 11.193,25 25,25Z" style="fill:#fc2513;fill-rule:nonzero;"/><path d="M850,150l0,25l25,0c0,-13.807 -11.193,-25 -25,-25Z" style="fill:#fc2513;fill-rule:nonzero;"/><path d="M275,187.5l0,-12.5l25,0l0,12.5c0,6.903 -5.597,12.5 -12.5,12.5c-6.904,0 -12.5,-5.597 -12.5,-12.5Z" style="fill:#fc2513;fill-rule:nonzero;"/><path d="M375,187.5l0,12.5c0,0 -8.51,0 -12.5,-0.001c-3.116,0.001 -12.5,0 -12.5,0l0,-12.499c0,-6.903 5.596,-12.5 12.5,-12.5c6.903,0 12.5,5.596 12.5,12.5Z" style="fill:#fc2513;fill-rule:nonzero;"/><path d="M400,200l25,0l0,-25c-13.807,0 -25,11.193 -25,25Z" style="fill:#fc2513;fill-rule:nonzero;"/><path d="M450,175l-25,0l0,25c13.807,0 25,-11.193 25,-25Z" style="fill:#fc2513;fill-rule:nonzero;"/><path d="M500,200l0,-25l-25,0c0,13.807 11.193,25 25,25Z" style="fill:#fc2513;fill-rule:nonzero;"/><path d="M500,175l0,25l25,0c0,-13.807 -11.193,-25 -25,-25Z" style="fill:#fc2513;fill-rule:nonzero;"/><path d="M600,200l0,-25l-25,0c0,13.807 11.193,25 25,25Z" style="fill:#fc2513;fill-rule:nonzero;"/><rect x="600" y="175" width="25" height="25" style="fill:#fc2513;"/><rect x="625" y="175" width="25" height="25" style="fill:#fc2513;"/><path d="M650,175l0,25l25,0c0,-13.807 -11.193,-25 -25,-25Z" style="fill:#fc2513;fill-rule:nonzero;"/><rect x="750" y="175" width="25" height="25" style="fill:#fc2513;"/><path d="M787.5,200l-12.5,0l0,-12.5l0,-12.5l12.5,0c6.903,0 12.5,5.596 12.5,12.5c0,6.903 -5.597,12.5 -12.5,12.5Z" style="fill:#fc2513;fill-rule:nonzero;"/><rect x="850" y="175" width="25" height="25" style="fill:#fc2513;"/><path d="M275,212.5l0,12.5c0,0 -8.51,0 -12.5,-0.001c-3.116,0.001 -12.5,0 -12.5,0l0,-12.499c0,-6.903 5.596,-12.5 12.5,-12.5c6.903,0 12.5,5.596 12.5,12.5Z" style="fill:#fc2513;fill-rule:nonzero;"/><path d="M325,212.5l0,12.5c0,0 -8.51,0 -12.5,-0.001c-3.116,0.001 -12.5,0 -12.5,0l0,-12.499c0,-6.903 5.596,-12.5 12.5,-12.5c6.903,0 12.5,5.596 12.5,12.5Z" style="fill:#fc2513;fill-rule:nonzero;"/><rect x="350" y="200" width="25" height="25" style="fill:#fc2513;"/><rect x="400" y="200" width="25" height="25" style="fill:#fc2513;"/><path d="M462.5,200c6.904,0 12.5,5.596 12.5,12.5c0,6.904 -5.596,12.5 -12.5,12.5c-6.904,0 -12.5,-5.596 -12.5,-12.5c0,-6.904 5.596,-12.5 12.5,-12.5Z" style="fill:#fc2513;fill-rule:nonzero;"/><path d="M500,212.5l0,-12.5l25,0l0,12.5c0,6.903 -5.597,12.5 -12.5,12.5c-6.904,0 -12.5,-5.597 -12.5,-12.5Z" style="fill:#fc2513;fill-rule:nonzero;"/><path d="M575,212.5l0,12.5c0,0 -8.51,0 -12.5,-0.001c-3.116,0.001 -12.5,0 -12.5,0l0,-12.499c0,-6.903 5.596,-12.5 12.5,-12.5c6.903,0 12.5,5.596 12.5,12.5Z" style="fill:#fc2513;fill-rule:nonzero;"/><rect x="600" y="200" width="25" height="25" style="fill:#fc2513;"/><path d="M650,212.5l0,-12.5l25,0l0,12.5c0,6.903 -5.597,12.5 -12.5,12.5c-6.904,0 -12.5,-5.597 -12.5,-12.5Z" style="fill:#fc2513;fill-rule:nonzero;"/><path d="M725,212.5l0,12.5c0,0 -8.51,0 -12.5,-0.001c-3.116,0.001 -12.5,0 -12.5,0l0,-12.499c0,-6.903 5.596,-12.5 12.5,-12.5c6.903,0 12.5,5.596 12.5,12.5Z" style="fill:#fc2513;fill-rule:nonzero;"/><rect x="750" y="200" width="25" height="25" style="fill:#fc2513;"/><path d="M825,212.5l0,12.5c0,0 -8.51,0 -12.5,-0.001c-3.116,0.001 -12.5,0 -12.5,0l0,-12.499c0,-6.903 5.596,-12.5 12.5,-12.5c6.903,0 12.5,5.596 12.5,12.5Z" style="fill:#fc2513;fill-rule:nonzero;"/><rect x="850" y="200" width="25" height="25" style="fill:#fc2513;"/><path d="M250,237.5l0,-12.5l25,0l0,12.5c0,6.903 -5.597,12.5 -12.5,12.5c-6.904,0 -12.5,-5.597 -12.5,-12.5Z" style="fill:#fc2513;fill-rule:nonzero;"/><rect x="300" y="225" width="25" height="25" style="fill:#fc2513;"/><path d="M350,237.5l0,-12.5l25,0l0,12.5c0,6.903 -5.597,12.5 -12.5,12.5c-6.904,0 -12.5,-5.597 -12.5,-12.5Z" style="fill:#fc2513;fill-rule:nonzero;"/><path d="M425,250l0,-25l-25,0c0,13.807 11.193,25 25,25Z" style="fill:#fc2513;fill-rule:nonzero;"/><path d="M425,225l0,25l25,0c0,-13.807 -11.193,-25 -25,-25Z" style="fill:#fc2513;fill-rule:nonzero;"/><path d="M500,237.5l0,12.5c0,0 -8.51,0 -12.5,-0.001c-3.116,0.001 -12.5,0 -12.5,0l0,-12.499c0,-6.903 5.596,-12.5 12.5,-12.5c6.903,0 12.5,5.596 12.5,12.5Z" style="fill:#fc2513;fill-rule:nonzero;"/><path d="M537.5,225l12.5,0l0,25l-12.5,0c-6.906,0 -12.5,-5.599 -12.5,-12.5c0,-6.902 5.594,-12.5 12.5,-12.5Z" style="fill:#fc2513;fill-rule:nonzero;"/><path d="M575,225l-25,0l0,25c13.807,0 25,-11.193 25,-25Z" style="fill:#fc2513;fill-rule:nonzero;"/><rect x="600" y="225" width="25" height="25" style="fill:#fc2513;"/><path d="M687.5,225l12.5,0l0,25l-12.5,0c-6.906,0 -12.5,-5.599 -12.5,-12.5c0,-6.902 5.594,-12.5 12.5,-12.5Z" style="fill:#fc2513;fill-rule:nonzero;"/><rect x="700" y="225" width="25" height="25" style="fill:#fc2513;"/><rect x="725" y="225" width="25" height="25" style="fill:#fc2513;"/><path d="M775,225l-25,0l0,25c13.807,0 25,-11.193 25,-25Z" style="fill:#fc2513;fill-rule:nonzero;"/><path d="M825,250l0,-25l-25,0c0,13.807 11.193,25 25,25Z" style="fill:#fc2513;fill-rule:nonzero;"/><rect x="825" y="225" width="25" height="25" style="fill:#fc2513;"/><rect x="850" y="225" width="25" height="25" style="fill:#fc2513;"/><path d="M175,275l25,0l0,-25c-13.807,0 -25,11.193 -25,25Z" style="fill:#fc2513;fill-rule:nonzero;"/><path d="M212.5,275l-12.5,0l0,-12.5l0,-12.5l12.5,0c6.903,0 12.5,5.596 12.5,12.5c0,6.903 -5.597,12.5 -12.5,12.5Z" style="fill:#fc2513;fill-rule:nonzero;"/><path d="M300,262.5l0,-12.5l25,0l0,12.5c0,6.903 -5.597,12.5 -12.5,12.5c-6.904,0 -12.5,-5.597 -12.5,-12.5Z" style="fill:#fc2513;fill-rule:nonzero;"/><path d="M450,275l0,-25l-25,0c0,13.807 11.193,25 25,25Z" style="fill:#fc2513;fill-rule:nonzero;"/><rect x="450" y="250" width="25" height="25" style="fill:#fc2513;"/><rect x="475" y="250" width="25" height="25" style="fill:#fc2513;"/><path d="M587.5,250l12.5,0l0,25l-12.5,0c-6.906,0 -12.5,-5.599 -12.5,-12.5c0,-6.902 5.594,-12.5 12.5,-12.5Z" style="fill:#fc2513;fill-rule:nonzero;"/><path d="M625,250l-25,0l0,25c13.807,0 25,-11.193 25,-25Z" style="fill:#fc2513;fill-rule:nonzero;"/><path d="M675,262.5l0,12.5c0,0 -8.51,0 -12.5,-0.001c-3.116,0.001 -12.5,0 -12.5,0l0,-12.499c0,-6.903 5.596,-12.5 12.5,-12.5c6.903,0 12.5,5.596 12.5,12.5Z" style="fill:#fc2513;fill-rule:nonzero;"/><path d="M787.5,250c6.904,0 12.5,5.596 12.5,12.5c0,6.904 -5.596,12.5 -12.5,12.5c-6.904,0 -12.5,-5.596 -12.5,-12.5c0,-6.904 5.596,-12.5 12.5,-12.5Z" style="fill:#fc2513;fill-rule:nonzero;"/><rect x="825" y="250" width="25" height="25" style="fill:#fc2513;"/><path d="M875,250l-25,0l0,25c13.807,0 25,-11.193 25,-25Z" style="fill:#fc2513;fill-rule:nonzero;"/><path d="M912.5,250c6.904,0 12.5,5.596 12.5,12.5c0,6.904 -5.596,12.5 -12.5,12.5c-6.904,0 -12.5,-5.596 -12.5,-12.5c0,-6.904 5.596,-12.5 12.5,-12.5Z" style="fill:#fc2513;fill-rule:nonzero;"/><path d="M975,262.5l0,12.5c0,0 -8.51,0 -12.5,-0.001c-3.116,0.001 -12.5,0 -12.5,0l0,-12.499c0,-6.903 5.596,-12.5 12.5,-12.5c6.903,0 12.5,5.596 12.5,12.5Z" style="fill:#fc2513;fill-rule:nonzero;"/><path d="M1012.5,250c6.904,0 12.5,5.596 12.5,12.5c0,6.904 -5.596,12.5 -12.5,12.5c-6.904,0 -12.5,-5.596 -12.5,-12.5c0,-6.904 5.596,-12.5 12.5,-12.5Z" style="fill:#fc2513;fill-rule:nonzero;"/><path d="M1062.5,250c6.904,0 12.5,5.596 12.5,12.5c0,6.904 -5.596,12.5 -12.5,12.5c-6.903,0 -12.5,-5.596 -12.5,-12.5c0,-6.904 5.597,-12.5 12.5,-12.5Z" style="fill:#fc2513;fill-rule:nonzero;"/><path d="M100,300l25,0l0,-25c-13.807,0 -25,11.193 -25,25Z" style="fill:#fc2513;fill-rule:nonzero;"/><rect x="125" y="275" width="25" height="25" style="fill:#fc2513;"/><rect x="150" y="275" width="25" height="25" style="fill:#fc2513;"/><path d="M200,275l-25,0l0,25c13.807,0 25,-11.193 25,-25Z" style="fill:#fc2513;fill-rule:nonzero;"/><path d="M225,300l25,0l0,-25c-13.807,0 -25,11.193 -25,25Z" style="fill:#fc2513;fill-rule:nonzero;"/><path d="M250,275l0,25l25,0c0,-13.807 -11.193,-25 -25,-25Z" style="fill:#fc2513;fill-rule:nonzero;"/><path d="M337.5,275l12.5,0l0,25l-12.5,0c-6.906,0 -12.5,-5.599 -12.5,-12.5c0,-6.902 5.594,-12.5 12.5,-12.5Z" style="fill:#fc2513;fill-rule:nonzero;"/><rect x="350" y="275" width="25" height="25" style="fill:#fc2513;"/><rect x="375" y="275" width="25" height="25" style="fill:#fc2513;"/><path d="M400,275l0,25l25,0c0,-13.807 -11.193,-25 -25,-25Z" style="fill:#fc2513;fill-rule:nonzero;"/><path d="M475,287.5l0,-12.5l25,0l0,12.5c0,6.903 -5.597,12.5 -12.5,12.5c-6.904,0 -12.5,-5.597 -12.5,-12.5Z" style="fill:#fc2513;fill-rule:nonzero;"/><path d="M575,287.5l0,12.5c0,0 -8.51,0 -12.5,-0.001c-3.116,0.001 -12.5,0 -12.5,0l0,-12.499c0,-6.903 5.596,-12.5 12.5,-12.5c6.903,0 12.5,5.596 12.5,12.5Z" style="fill:#fc2513;fill-rule:nonzero;"/><path d="M650,287.5l0,-12.5l25,0l0,12.5c0,6.903 -5.597,12.5 -12.5,12.5c-6.904,0 -12.5,-5.597 -12.5,-12.5Z" style="fill:#fc2513;fill-rule:nonzero;"/><path d="M725,300l25,0l0,-25c-13.807,0 -25,11.193 -25,25Z" style="fill:#fc2513;fill-rule:nonzero;"/><path d="M750,275l0,25l25,0c0,-13.807 -11.193,-25 -25,-25Z" style="fill:#fc2513;fill-rule:nonzero;"/><path d="M812.5,275l12.5,0l0,25l-12.5,0c-6.906,0 -12.5,-5.599 -12.5,-12.5c0,-6.902 5.594,-12.5 12.5,-12.5Z" style="fill:#fc2513;fill-rule:nonzero;"/><path d="M850,275l-25,0l0,25c13.807,0 25,-11.193 25,-25Z" style="fill:#fc2513;fill-rule:nonzero;"/><path d="M900,287.5l0,12.5c0,0 -8.51,0 -12.5,-0.001c-3.116,0.001 -12.5,0 -12.5,0l0,-12.499c0,-6.903 5.596,-12.5 12.5,-12.5c6.903,0 12.5,5.596 12.5,12.5Z" style="fill:#fc2513;fill-rule:nonzero;"/><path d="M950,287.5l0,-12.5l25,0l0,12.5c0,6.903 -5.597,12.5 -12.5,12.5c-6.904,0 -12.5,-5.597 -12.5,-12.5Z" style="fill:#fc2513;fill-rule:nonzero;"/><path d="M1050,287.5l0,12.5c0,0 -8.51,0 -12.5,-0.001c-3.116,0.001 -12.5,0 -12.5,0l0,-12.499c0,-6.903 5.596,-12.5 12.5,-12.5c6.903,0 12.5,5.596 12.5,12.5Z" style="fill:#fc2513;fill-rule:nonzero;"/><path d="M75,325l25,0l0,-25c-13.807,0 -25,11.193 -25,25Z" style="fill:#fc2513;fill-rule:nonzero;"/><path d="M125,300l-25,0l0,25c13.807,0 25,-11.193 25,-25Z" style="fill:#fc2513;fill-rule:nonzero;"/><path d="M212.5,300l12.5,0l0,25l-12.5,0c-6.906,0 -12.5,-5.599 -12.5,-12.5c0,-6.902 5.594,-12.5 12.5,-12.5Z" style="fill:#fc2513;fill-rule:nonzero;"/><rect x="225" y="300" width="25" height="25" style="fill:#fc2513;"/><rect x="250" y="300" width="25" height="25" style="fill:#fc2513;"/><path d="M400,325l0,-25l-25,0c0,13.807 11.193,25 25,25Z" style="fill:#fc2513;fill-rule:nonzero;"/><path d="M425,300l-25,0l0,25c13.807,0 25,-11.193 25,-25Z" style="fill:#fc2513;fill-rule:nonzero;"/><path d="M475,312.5l0,12.5c0,0 -8.51,0 -12.5,-0.001c-3.116,0.001 -12.5,0 -12.5,0l0,-12.499c0,-6.903 5.596,-12.5 12.5,-12.5c6.903,0 12.5,5.596 12.5,12.5Z" style="fill:#fc2513;fill-rule:nonzero;"/><path d="M512.5,300l12.5,0l0,25l-12.5,0c-6.906,0 -12.5,-5.599 -12.5,-12.5c0,-6.902 5.594,-12.5 12.5,-12.5Z" style="fill:#fc2513;fill-rule:nonzero;"/><rect x="525" y="300" width="25" height="25" style="fill:#fc2513;"/><path d="M575,300l-25,0l0,25c13.807,0 25,-11.193 25,-25Z" style="fill:#fc2513;fill-rule:nonzero;"/><path d="M712.5,300l12.5,0l0,25l-12.5,0c-6.906,0 -12.5,-5.599 -12.5,-12.5c0,-6.902 5.594,-12.5 12.5,-12.5Z" style="fill:#fc2513;fill-rule:nonzero;"/><rect x="725" y="300" width="25" height="25" style="fill:#fc2513;"/><rect x="750" y="300" width="25" height="25" style="fill:#fc2513;"/><path d="M850,325l25,0l0,-25c-13.807,0 -25,11.193 -25,25Z" style="fill:#fc2513;fill-rule:nonzero;"/><rect x="875" y="300" width="25" height="25" style="fill:#fc2513;"/><path d="M937.5,300c6.904,0 12.5,5.596 12.5,12.5c0,6.904 -5.596,12.5 -12.5,12.5c-6.904,0 -12.5,-5.596 -12.5,-12.5c0,-6.904 5.596,-12.5 12.5,-12.5Z" style="fill:#fc2513;fill-rule:nonzero;"/><path d="M1025,312.5l0,-12.5l25,0l0,12.5c0,6.903 -5.597,12.5 -12.5,12.5c-6.904,0 -12.5,-5.597 -12.5,-12.5Z" style="fill:#fc2513;fill-rule:nonzero;"/><rect x="75" y="325" width="25" height="25" style="fill:#fc2513;"/><path d="M187.5,325c6.904,0 12.5,5.596 12.5,12.5c0,6.904 -5.596,12.5 -12.5,12.5c-6.904,0 -12.5,-5.596 -12.5,-12.5c0,-6.904 5.596,-12.5 12.5,-12.5Z" style="fill:#fc2513;fill-rule:nonzero;"/><rect x="225" y="325" width="25" height="25" style="fill:#fc2513;"/><rect x="250" y="325" width="25" height="25" style="fill:#fc2513;"/><path d="M275,325l0,25l25,0c0,-13.807 -11.193,-25 -25,-25Z" style="fill:#fc2513;fill-rule:nonzero;"/><path d="M337.5,325l12.5,0l0,25l-12.5,0c-6.906,0 -12.5,-5.599 -12.5,-12.5c0,-6.902 5.594,-12.5 12.5,-12.5Z" style="fill:#fc2513;fill-rule:nonzero;"/><path d="M362.5,350l-12.5,0l0,-12.5l0,-12.5l12.5,0c6.903,0 12.5,5.596 12.5,12.5c0,6.903 -5.597,12.5 -12.5,12.5Z" style="fill:#fc2513;fill-rule:nonzero;"/><path d="M437.5,325l12.5,0l0,25l-12.5,0c-6.906,0 -12.5,-5.599 -12.5,-12.5c0,-6.902 5.594,-12.5 12.5,-12.5Z" style="fill:#fc2513;fill-rule:nonzero;"/><rect x="450" y="325" width="25" height="25" style="fill:#fc2513;"/><path d="M475,325l0,25l25,0c0,-13.807 -11.193,-25 -25,-25Z" style="fill:#fc2513;fill-rule:nonzero;"/><path d="M612.5,325l12.5,0l0,25l-12.5,0c-6.906,0 -12.5,-5.599 -12.5,-12.5c0,-6.902 5.594,-12.5 12.5,-12.5Z" style="fill:#fc2513;fill-rule:nonzero;"/><rect x="625" y="325" width="25" height="25" style="fill:#fc2513;"/><rect x="650" y="325" width="25" height="25" style="fill:#fc2513;"/><path d="M687.5,350l-12.5,0l0,-12.5l0,-12.5l12.5,0c6.903,0 12.5,5.596 12.5,12.5c0,6.903 -5.597,12.5 -12.5,12.5Z" style="fill:#fc2513;fill-rule:nonzero;"/><path d="M750,350l0,-25l-25,0c0,13.807 11.193,25 25,25Z" style="fill:#fc2513;fill-rule:nonzero;"/><path d="M775,325l-25,0l0,25c13.807,0 25,-11.193 25,-25Z" style="fill:#fc2513;fill-rule:nonzero;"/><path d="M837.5,325l12.5,0l0,25l-12.5,0c-6.906,0 -12.5,-5.599 -12.5,-12.5c0,-6.902 5.594,-12.5 12.5,-12.5Z" style="fill:#fc2513;fill-rule:nonzero;"/><rect x="850" y="325" width="25" height="25" style="fill:#fc2513;"/><rect x="875" y="325" width="25" height="25" style="fill:#fc2513;"/><path d="M962.5,325l12.5,0l0,25l-12.5,0c-6.906,0 -12.5,-5.599 -12.5,-12.5c0,-6.902 5.594,-12.5 12.5,-12.5Z" style="fill:#fc2513;fill-rule:nonzero;"/><path d="M987.5,350l-12.5,0l0,-12.5l0,-12.5l12.5,0c6.903,0 12.5,5.596 12.5,12.5c0,6.903 -5.597,12.5 -12.5,12.5Z" style="fill:#fc2513;fill-rule:nonzero;"/><path d="M50,375l25,0l0,-25c-13.807,0 -25,11.193 -25,25Z" style="fill:#fc2513;fill-rule:nonzero;"/><rect x="75" y="350" width="25" height="25" style="fill:#fc2513;"/><rect x="100" y="350" width="25" height="25" style="fill:#fc2513;"/><rect x="125" y="350" width="25" height="25" style="fill:#fc2513;"/><path d="M150,350l0,25l25,0c0,-13.807 -11.193,-25 -25,-25Z" style="fill:#fc2513;fill-rule:nonzero;"/><path d="M212.5,350l12.5,0l0,25l-12.5,0c-6.906,0 -12.5,-5.599 -12.5,-12.5c0,-6.902 5.594,-12.5 12.5,-12.5Z" style="fill:#fc2513;fill-rule:nonzero;"/><rect x="225" y="350" width="25" height="25" style="fill:#fc2513;"/><rect x="250" y="350" width="25" height="25" style="fill:#fc2513;"/><path d="M300,350l-25,0l0,25c13.807,0 25,-11.193 25,-25Z" style="fill:#fc2513;fill-rule:nonzero;"/><path d="M387.5,350l12.5,0l0,25l-12.5,0c-6.906,0 -12.5,-5.599 -12.5,-12.5c0,-6.902 5.594,-12.5 12.5,-12.5Z" style="fill:#fc2513;fill-rule:nonzero;"/><path d="M412.5,375l-12.5,0l0,-12.5l0,-12.5l12.5,0c6.903,0 12.5,5.596 12.5,12.5c0,6.903 -5.597,12.5 -12.5,12.5Z" style="fill:#fc2513;fill-rule:nonzero;"/><path d="M475,375l0,-25l-25,0c0,13.807 11.193,25 25,25Z" style="fill:#fc2513;fill-rule:nonzero;"/><rect x="475" y="350" width="25" height="25" style="fill:#fc2513;"/><rect x="500" y="350" width="25" height="25" style="fill:#fc2513;"/><rect x="525" y="350" width="25" height="25" style="fill:#fc2513;"/><rect x="550" y="350" width="25" height="25" style="fill:#fc2513;"/><path d="M575,350l0,25l25,0c0,-13.807 -11.193,-25 -25,-25Z" style="fill:#fc2513;fill-rule:nonzero;"/><path d="M725,362.5l0,12.5c0,0 -8.51,0 -12.5,-0.001c-3.116,0.001 -12.5,0 -12.5,0l0,-12.499c0,-6.903 5.596,-12.5 12.5,-12.5c6.903,0 12.5,5.596 12.5,12.5Z" style="fill:#fc2513;fill-rule:nonzero;"/><rect x="850" y="350" width="25" height="25" style="fill:#fc2513;"/><rect x="875" y="350" width="25" height="25" style="fill:#fc2513;"/><rect x="900" y="350" width="25" height="25" style="fill:#fc2513;"/><path d="M925,350l0,25l25,0c0,-13.807 -11.193,-25 -25,-25Z" style="fill:#fc2513;fill-rule:nonzero;"/><path d="M1025,375l25,0l0,-25c-13.807,0 -25,11.193 -25,25Z" style="fill:#fc2513;fill-rule:nonzero;"/><path d="M1050,350l0,25l25,0c0,-13.807 -11.193,-25 -25,-25Z" style="fill:#fc2513;fill-rule:nonzero;"/><path d="M50,387.5l0,-12.5l25,0l0,12.5c0,6.903 -5.597,12.5 -12.5,12.5c-6.904,0 -12.5,-5.597 -12.5,-12.5Z" style="fill:#fc2513;fill-rule:nonzero;"/><path d="M150,400l0,-25l-25,0c0,13.807 11.193,25 25,25Z" style="fill:#fc2513;fill-rule:nonzero;"/><rect x="150" y="375" width="25" height="25" style="fill:#fc2513;"/><path d="M187.5,400l-12.5,0l0,-12.5l0,-12.5l12.5,0c6.903,0 12.5,5.596 12.5,12.5c0,6.903 -5.597,12.5 -12.5,12.5Z" style="fill:#fc2513;fill-rule:nonzero;"/><rect x="225" y="375" width="25" height="25" style="fill:#fc2513;"/><path d="M275,375l-25,0l0,25c13.807,0 25,-11.193 25,-25Z" style="fill:#fc2513;fill-rule:nonzero;"/><path d="M312.5,375c6.904,0 12.5,5.596 12.5,12.5c0,6.904 -5.596,12.5 -12.5,12.5c-6.904,0 -12.5,-5.596 -12.5,-12.5c0,-6.904 5.596,-12.5 12.5,-12.5Z" style="fill:#fc2513;fill-rule:nonzero;"/><path d="M450,387.5l0,12.5c0,0 -8.51,0 -12.5,-0.001c-3.116,0.001 -12.5,0 -12.5,0l0,-12.499c0,-6.903 5.596,-12.5 12.5,-12.5c6.903,0 12.5,5.596 12.5,12.5Z" style="fill:#fc2513;fill-rule:nonzero;"/><rect x="475" y="375" width="25" height="25" style="fill:#fc2513;"/><path d="M525,375l-25,0l0,25c13.807,0 25,-11.193 25,-25Z" style="fill:#fc2513;fill-rule:nonzero;"/><path d="M575,387.5l0,-12.5l25,0l0,12.5c0,6.903 -5.597,12.5 -12.5,12.5c-6.904,0 -12.5,-5.597 -12.5,-12.5Z" style="fill:#fc2513;fill-rule:nonzero;"/><path d="M637.5,375c6.904,0 12.5,5.596 12.5,12.5c0,6.904 -5.596,12.5 -12.5,12.5c-6.904,0 -12.5,-5.596 -12.5,-12.5c0,-6.904 5.596,-12.5 12.5,-12.5Z" style="fill:#fc2513;fill-rule:nonzero;"/><path d="M675,400l25,0l0,-25c-13.807,0 -25,11.193 -25,25Z" style="fill:#fc2513;fill-rule:nonzero;"/><rect x="700" y="375" width="25" height="25" style="fill:#fc2513;"/><path d="M850,387.5l0,-12.5l25,0l0,12.5c0,6.903 -5.597,12.5 -12.5,12.5c-6.904,0 -12.5,-5.597 -12.5,-12.5Z" style="fill:#fc2513;fill-rule:nonzero;"/><rect x="925" y="375" width="25" height="25" style="fill:#fc2513;"/><rect x="950" y="375" width="25" height="25" style="fill:#fc2513;"/><rect x="975" y="375" width="25" height="25" style="fill:#fc2513;"/><rect x="1000" y="375" width="25" height="25" style="fill:#fc2513;"/><rect x="1025" y="375" width="25" height="25" style="fill:#fc2513;"/><path d="M1075,375l-25,0l0,25c13.807,0 25,-11.193 25,-25Z" style="fill:#fc2513;fill-rule:nonzero;"/><path d="M87.5,400l12.5,0l0,25l-12.5,0c-6.906,0 -12.5,-5.599 -12.5,-12.5c0,-6.902 5.594,-12.5 12.5,-12.5Z" style="fill:#fc2513;fill-rule:nonzero;"/><path d="M112.5,425l-12.5,0l0,-12.5l0,-12.5l12.5,0c6.903,0 12.5,5.596 12.5,12.5c0,6.903 -5.597,12.5 -12.5,12.5Z" style="fill:#fc2513;fill-rule:nonzero;"/><path d="M212.5,400l12.5,0l0,25l-12.5,0c-6.906,0 -12.5,-5.599 -12.5,-12.5c0,-6.902 5.594,-12.5 12.5,-12.5Z" style="fill:#fc2513;fill-rule:nonzero;"/><path d="M250,400l-25,0l0,25c13.807,0 25,-11.193 25,-25Z" style="fill:#fc2513;fill-rule:nonzero;"/><path d="M362.5,400l12.5,0l0,25l-12.5,0c-6.906,0 -12.5,-5.599 -12.5,-12.5c0,-6.902 5.594,-12.5 12.5,-12.5Z" style="fill:#fc2513;fill-rule:nonzero;"/><path d="M387.5,425l-12.5,0l0,-12.5l0,-12.5l12.5,0c6.903,0 12.5,5.596 12.5,12.5c0,6.903 -5.597,12.5 -12.5,12.5Z" style="fill:#fc2513;fill-rule:nonzero;"/><path d="M450,425l0,-25l-25,0c0,13.807 11.193,25 25,25Z" style="fill:#fc2513;fill-rule:nonzero;"/><rect x="450" y="400" width="25" height="25" style="fill:#fc2513;"/><path d="M500,400l-25,0l0,25c13.807,0 25,-11.193 25,-25Z" style="fill:#fc2513;fill-rule:nonzero;"/><path d="M700,425l0,-25l-25,0c0,13.807 11.193,25 25,25Z" style="fill:#fc2513;fill-rule:nonzero;"/><rect x="700" y="400" width="25" height="25" style="fill:#fc2513;"/><rect x="725" y="400" width="25" height="25" style="fill:#fc2513;"/><rect x="750" y="400" width="25" height="25" style="fill:#fc2513;"/><path d="M787.5,425l-12.5,0l0,-12.5l0,-12.5l12.5,0c6.903,0 12.5,5.596 12.5,12.5c0,6.903 -5.597,12.5 -12.5,12.5Z" style="fill:#fc2513;fill-rule:nonzero;"/><path d="M850,412.5l0,12.5c0,0 -8.51,0 -12.5,-0.001c-3.116,0.001 -12.5,0 -12.5,0l0,-12.499c0,-6.903 5.596,-12.5 12.5,-12.5c6.903,0 12.5,5.596 12.5,12.5Z" style="fill:#fc2513;fill-rule:nonzero;"/><path d="M900,412.5l0,12.5c0,0 -8.51,0 -12.5,-0.001c-3.116,0.001 -12.5,0 -12.5,0l0,-12.499c0,-6.903 5.596,-12.5 12.5,-12.5c6.903,0 12.5,5.596 12.5,12.5Z" style="fill:#fc2513;fill-rule:nonzero;"/><path d="M925,412.5l0,-12.5l25,0l0,12.5c0,6.903 -5.597,12.5 -12.5,12.5c-6.904,0 -12.5,-5.597 -12.5,-12.5Z" style="fill:#fc2513;fill-rule:nonzero;"/><rect x="975" y="400" width="25" height="25" style="fill:#fc2513;"/><rect x="1000" y="400" width="25" height="25" style="fill:#fc2513;"/><path d="M1050,400l-25,0l0,25c13.807,0 25,-11.193 25,-25Z" style="fill:#fc2513;fill-rule:nonzero;"/><path d="M75,437.5l0,12.5c0,0 -8.51,0 -12.5,-0.001c-3.116,0.001 -12.5,0 -12.5,0l0,-12.499c0,-6.903 5.596,-12.5 12.5,-12.5c6.903,0 12.5,5.596 12.5,12.5Z" style="fill:#fc2513;fill-rule:nonzero;"/><path d="M137.5,425l12.5,0l0,25l-12.5,0c-6.906,0 -12.5,-5.599 -12.5,-12.5c0,-6.902 5.594,-12.5 12.5,-12.5Z" style="fill:#fc2513;fill-rule:nonzero;"/><path d="M150,425l0,25l25,0c0,-13.807 -11.193,-25 -25,-25Z" style="fill:#fc2513;fill-rule:nonzero;"/><path d="M275,450l25,0l0,-25c-13.807,0 -25,11.193 -25,25Z" style="fill:#fc2513;fill-rule:nonzero;"/><path d="M300,425l0,25l25,0c0,-13.807 -11.193,-25 -25,-25Z" style="fill:#fc2513;fill-rule:nonzero;"/><path d="M800,450l25,0l0,-25c-13.807,0 -25,11.193 -25,25Z" style="fill:#fc2513;fill-rule:nonzero;"/><rect x="825" y="425" width="25" height="25" style="fill:#fc2513;"/><rect x="875" y="425" width="25" height="25" style="fill:#fc2513;"/><path d="M962.5,425l12.5,0l0,25l-12.5,0c-6.906,0 -12.5,-5.599 -12.5,-12.5c0,-6.902 5.594,-12.5 12.5,-12.5Z" style="fill:#fc2513;fill-rule:nonzero;"/><rect x="975" y="425" width="25" height="25" style="fill:#fc2513;"/><rect x="1000" y="425" width="25" height="25" style="fill:#fc2513;"/><path d="M1062.5,425c6.904,0 12.5,5.596 12.5,12.5c0,6.904 -5.596,12.5 -12.5,12.5c-6.903,0 -12.5,-5.596 -12.5,-12.5c0,-6.904 5.597,-12.5 12.5,-12.5Z" style="fill:#fc2513;fill-rule:nonzero;"/><path d="M75,475l0,-25l-25,0c0,13.807 11.193,25 25,25Z" style="fill:#fc2513;fill-rule:nonzero;"/><rect x="75" y="450" width="25" height="25" style="fill:#fc2513;"/><path d="M112.5,475l-12.5,0l0,-12.5l0,-12.5l12.5,0c6.903,0 12.5,5.596 12.5,12.5c0,6.903 -5.597,12.5 -12.5,12.5Z" style="fill:#fc2513;fill-rule:nonzero;"/><rect x="150" y="450" width="25" height="25" style="fill:#fc2513;"/><path d="M212.5,450l12.5,0l0,25l-12.5,0c-6.906,0 -12.5,-5.599 -12.5,-12.5c0,-6.902 5.594,-12.5 12.5,-12.5Z" style="fill:#fc2513;fill-rule:nonzero;"/><rect x="225" y="450" width="25" height="25" style="fill:#fc2513;"/><rect x="250" y="450" width="25" height="25" style="fill:#fc2513;"/><rect x="275" y="450" width="25" height="25" style="fill:#fc2513;"/><rect x="300" y="450" width="25" height="25" style="fill:#fc2513;"/><path d="M337.5,475l-12.5,0l0,-12.5l0,-12.5l12.5,0c6.903,0 12.5,5.596 12.5,12.5c0,6.903 -5.597,12.5 -12.5,12.5Z" style="fill:#fc2513;fill-rule:nonzero;"/><path d="M775,475l25,0l0,-25c-13.807,0 -25,11.193 -25,25Z" style="fill:#fc2513;fill-rule:nonzero;"/><rect x="800" y="450" width="25" height="25" style="fill:#fc2513;"/><rect x="825" y="450" width="25" height="25" style="fill:#fc2513;"/><rect x="850" y="450" width="25" height="25" style="fill:#fc2513;"/><rect x="875" y="450" width="25" height="25" style="fill:#fc2513;"/><path d="M950,462.5l0,12.5c0,0 -8.51,0 -12.5,-0.001c-3.116,0.001 -12.5,0 -12.5,0l0,-12.499c0,-6.903 5.596,-12.5 12.5,-12.5c6.903,0 12.5,5.596 12.5,12.5Z" style="fill:#fc2513;fill-rule:nonzero;"/><rect x="1000" y="450" width="25" height="25" style="fill:#fc2513;"/><path d="M150,487.5l0,-12.5l25,0l0,12.5c0,6.903 -5.597,12.5 -12.5,12.5c-6.904,0 -12.5,-5.597 -12.5,-12.5Z" style="fill:#fc2513;fill-rule:nonzero;"/><path d="M775,487.5l0,-12.5l25,0l0,12.5c0,6.903 -5.597,12.5 -12.5,12.5c-6.904,0 -12.5,-5.597 -12.5,-12.5Z" style="fill:#fc2513;fill-rule:nonzero;"/><rect x="825" y="475" width="25" height="25" style="fill:#fc2513;"/><path d="M900,500l0,-25l-25,0c0,13.807 11.193,25 25,25Z" style="fill:#fc2513;fill-rule:nonzero;"/><rect x="900" y="475" width="25" height="25" style="fill:#fc2513;"/><rect x="925" y="475" width="25" height="25" style="fill:#fc2513;"/><rect x="950" y="475" width="25" height="25" style="fill:#fc2513;"/><rect x="975" y="475" width="25" height="25" style="fill:#fc2513;"/><rect x="1000" y="475" width="25" height="25" style="fill:#fc2513;"/><path d="M1075,487.5l0,12.5c0,0 -8.51,0 -12.5,-0.001c-3.116,0.001 -12.5,0 -12.5,0l0,-12.499c0,-6.903 5.596,-12.5 12.5,-12.5c6.903,0 12.5,5.596 12.5,12.5Z" style="fill:#fc2513;fill-rule:nonzero;"/><path d="M62.5,500l12.5,0l0,25l-12.5,0c-6.906,0 -12.5,-5.599 -12.5,-12.5c0,-6.902 5.594,-12.5 12.5,-12.5Z" style="fill:#fc2513;fill-rule:nonzero;"/><path d="M75,500l0,25l25,0c0,-13.807 -11.193,-25 -25,-25Z" style="fill:#fc2513;fill-rule:nonzero;"/><path d="M187.5,500l12.5,0l0,25l-12.5,0c-6.906,0 -12.5,-5.599 -12.5,-12.5c0,-6.902 5.594,-12.5 12.5,-12.5Z" style="fill:#fc2513;fill-rule:nonzero;"/><rect x="200" y="500" width="25" height="25" style="fill:#fc2513;"/><path d="M237.5,525l-12.5,0l0,-12.5l0,-12.5l12.5,0c6.903,0 12.5,5.596 12.5,12.5c0,6.903 -5.597,12.5 -12.5,12.5Z" style="fill:#fc2513;fill-rule:nonzero;"/><path d="M350,512.5l0,12.5c0,0 -8.51,0 -12.5,-0.001c-3.116,0.001 -12.5,0 -12.5,0l0,-12.499c0,-6.903 5.596,-12.5 12.5,-12.5c6.903,0 12.5,5.596 12.5,12.5Z" style="fill:#fc2513;fill-rule:nonzero;"/><path d="M850,525l0,-25l-25,0c0,13.807 11.193,25 25,25Z" style="fill:#fc2513;fill-rule:nonzero;"/><path d="M862.5,525l-12.5,0l0,-12.5l0,-12.5l12.5,0c6.903,0 12.5,5.596 12.5,12.5c0,6.903 -5.597,12.5 -12.5,12.5Z" style="fill:#fc2513;fill-rule:nonzero;"/><path d="M950,525l0,-25l-25,0c0,13.807 11.193,25 25,25Z" style="fill:#fc2513;fill-rule:nonzero;"/><rect x="950" y="500" width="25" height="25" style="fill:#fc2513;"/><path d="M1000,512.5l0,-12.5l25,0l0,12.5c0,6.903 -5.597,12.5 -12.5,12.5c-6.904,0 -12.5,-5.597 -12.5,-12.5Z" style="fill:#fc2513;fill-rule:nonzero;"/><rect x="1050" y="500" width="25" height="25" style="fill:#fc2513;"/><path d="M100,550l0,-25l-25,0c0,13.807 11.193,25 25,25Z" style="fill:#fc2513;fill-rule:nonzero;"/><rect x="100" y="525" width="25" height="25" style="fill:#fc2513;"/><path d="M125,525l0,25l25,0c0,-13.807 -11.193,-25 -25,-25Z" style="fill:#fc2513;fill-rule:nonzero;"/><path d="M287.5,525l12.5,0l0,25l-12.5,0c-6.906,0 -12.5,-5.599 -12.5,-12.5c0,-6.902 5.594,-12.5 12.5,-12.5Z" style="fill:#fc2513;fill-rule:nonzero;"/><rect x="300" y="525" width="25" height="25" style="fill:#fc2513;"/><path d="M350,525l-25,0l0,25c13.807,0 25,-11.193 25,-25Z" style="fill:#fc2513;fill-rule:nonzero;"/><path d="M787.5,525l12.5,0l0,25l-12.5,0c-6.906,0 -12.5,-5.599 -12.5,-12.5c0,-6.902 5.594,-12.5 12.5,-12.5Z" style="fill:#fc2513;fill-rule:nonzero;"/><path d="M812.5,550l-12.5,0l0,-12.5l0,-12.5l12.5,0c6.903,0 12.5,5.596 12.5,12.5c0,6.903 -5.597,12.5 -12.5,12.5Z" style="fill:#fc2513;fill-rule:nonzero;"/><path d="M887.5,525l12.5,0l0,25l-12.5,0c-6.906,0 -12.5,-5.599 -12.5,-12.5c0,-6.902 5.594,-12.5 12.5,-12.5Z" style="fill:#fc2513;fill-rule:nonzero;"/><path d="M912.5,550l-12.5,0l0,-12.5l0,-12.5l12.5,0c6.903,0 12.5,5.596 12.5,12.5c0,6.903 -5.597,12.5 -12.5,12.5Z" style="fill:#fc2513;fill-rule:nonzero;"/><path d="M950,537.5l0,-12.5l25,0l0,12.5c0,6.903 -5.597,12.5 -12.5,12.5c-6.904,0 -12.5,-5.597 -12.5,-12.5Z" style="fill:#fc2513;fill-rule:nonzero;"/><path d="M1025,550l25,0l0,-25c-13.807,0 -25,11.193 -25,25Z" style="fill:#fc2513;fill-rule:nonzero;"/><path d="M1075,525l-25,0l0,25c13.807,0 25,-11.193 25,-25Z" style="fill:#fc2513;fill-rule:nonzero;"/><path d="M75,562.5l0,12.5c0,0 -8.51,0 -12.5,-0.001c-3.116,0.001 -12.5,0 -12.5,0l0,-12.499c0,-6.903 5.596,-12.5 12.5,-12.5c6.903,0 12.5,5.596 12.5,12.5Z" style="fill:#fc2513;fill-rule:nonzero;"/><path d="M125,575l0,-25l-25,0c0,13.807 11.193,25 25,25Z" style="fill:#fc2513;fill-rule:nonzero;"/><rect x="125" y="550" width="25" height="25" style="fill:#fc2513;"/><rect x="150" y="550" width="25" height="25" style="fill:#fc2513;"/><rect x="175" y="550" width="25" height="25" style="fill:#fc2513;"/><rect x="200" y="550" width="25" height="25" style="fill:#fc2513;"/><path d="M225,550l0,25l25,0c0,-13.807 -11.193,-25 -25,-25Z" style="fill:#fc2513;fill-rule:nonzero;"/><rect x="300" y="550" width="25" height="25" style="fill:#fc2513;"/><path d="M825,575l25,0l0,-25c-13.807,0 -25,11.193 -25,25Z" style="fill:#fc2513;fill-rule:nonzero;"/><path d="M850,550l0,25l25,0c0,-13.807 -11.193,-25 -25,-25Z" style="fill:#fc2513;fill-rule:nonzero;"/><path d="M937.5,550c6.904,0 12.5,5.596 12.5,12.5c0,6.904 -5.596,12.5 -12.5,12.5c-6.904,0 -12.5,-5.596 -12.5,-12.5c0,-6.904 5.596,-12.5 12.5,-12.5Z" style="fill:#fc2513;fill-rule:nonzero;"/><path d="M987.5,550l12.5,0l0,25l-12.5,0c-6.906,0 -12.5,-5.599 -12.5,-12.5c0,-6.902 5.594,-12.5 12.5,-12.5Z" style="fill:#fc2513;fill-rule:nonzero;"/><rect x="1000" y="550" width="25" height="25" style="fill:#fc2513;"/><path d="M1050,550l-25,0l0,25c13.807,0 25,-11.193 25,-25Z" style="fill:#fc2513;fill-rule:nonzero;"/><path d="M75,600l0,-25l-25,0c0,13.807 11.193,25 25,25Z" style="fill:#fc2513;fill-rule:nonzero;"/><path d="M87.5,600l-12.5,0l0,-12.5l0,-12.5l12.5,0c6.903,0 12.5,5.596 12.5,12.5c0,6.903 -5.597,12.5 -12.5,12.5Z" style="fill:#fc2513;fill-rule:nonzero;"/><path d="M150,587.5l0,-12.5l25,0l0,12.5c0,6.903 -5.597,12.5 -12.5,12.5c-6.904,0 -12.5,-5.597 -12.5,-12.5Z" style="fill:#fc2513;fill-rule:nonzero;"/><path d="M250,600l0,-25l-25,0c0,13.807 11.193,25 25,25Z" style="fill:#fc2513;fill-rule:nonzero;"/><path d="M262.5,600l-12.5,0l0,-12.5l0,-12.5l12.5,0c6.903,0 12.5,5.596 12.5,12.5c0,6.903 -5.597,12.5 -12.5,12.5Z" style="fill:#fc2513;fill-rule:nonzero;"/><rect x="300" y="575" width="25" height="25" style="fill:#fc2513;"/><path d="M337.5,600l-12.5,0l0,-12.5l0,-12.5l12.5,0c6.903,0 12.5,5.596 12.5,12.5c0,6.903 -5.597,12.5 -12.5,12.5Z" style="fill:#fc2513;fill-rule:nonzero;"/><path d="M812.5,575l12.5,0l0,25l-12.5,0c-6.906,0 -12.5,-5.599 -12.5,-12.5c0,-6.902 5.594,-12.5 12.5,-12.5Z" style="fill:#fc2513;fill-rule:nonzero;"/><rect x="825" y="575" width="25" height="25" style="fill:#fc2513;"/><rect x="850" y="575" width="25" height="25" style="fill:#fc2513;"/><path d="M962.5,575c6.904,0 12.5,5.596 12.5,12.5c0,6.904 -5.596,12.5 -12.5,12.5c-6.904,0 -12.5,-5.596 -12.5,-12.5c0,-6.904 5.596,-12.5 12.5,-12.5Z" style="fill:#fc2513;fill-rule:nonzero;"/><path d="M1000,587.5l0,-12.5l25,0l0,12.5c0,6.903 -5.597,12.5 -12.5,12.5c-6.904,0 -12.5,-5.597 -12.5,-12.5Z" style="fill:#fc2513;fill-rule:nonzero;"/><path d="M125,612.5l0,12.5c0,0 -8.51,0 -12.5,-0.001c-3.116,0.001 -12.5,0 -12.5,0l0,-12.499c0,-6.903 5.596,-12.5 12.5,-12.5c6.903,0 12.5,5.596 12.5,12.5Z" style="fill:#fc2513;fill-rule:nonzero;"/><path d="M212.5,600c6.904,0 12.5,5.596 12.5,12.5c0,6.904 -5.596,12.5 -12.5,12.5c-6.904,0 -12.5,-5.596 -12.5,-12.5c0,-6.904 5.596,-12.5 12.5,-12.5Z" style="fill:#fc2513;fill-rule:nonzero;"/><path d="M275,625l25,0l0,-25c-13.807,0 -25,11.193 -25,25Z" style="fill:#fc2513;fill-rule:nonzero;"/><rect x="300" y="600" width="25" height="25" style="fill:#fc2513;"/><rect x="850" y="600" width="25" height="25" style="fill:#fc2513;"/><rect x="875" y="600" width="25" height="25" style="fill:#fc2513;"/><rect x="900" y="600" width="25" height="25" style="fill:#fc2513;"/><path d="M925,600l0,25l25,0c0,-13.807 -11.193,-25 -25,-25Z" style="fill:#fc2513;fill-rule:nonzero;"/><path d="M62.5,625l12.5,0l0,25l-12.5,0c-6.906,0 -12.5,-5.599 -12.5,-12.5c0,-6.902 5.594,-12.5 12.5,-12.5Z" style="fill:#fc2513;fill-rule:nonzero;"/><rect x="75" y="625" width="25" height="25" style="fill:#fc2513;"/><path d="M125,625l-25,0l0,25c13.807,0 25,-11.193 25,-25Z" style="fill:#fc2513;fill-rule:nonzero;"/><path d="M200,637.5l0,12.5c0,0 -8.51,0 -12.5,-0.001c-3.116,0.001 -12.5,0 -12.5,0l0,-12.499c0,-6.903 5.596,-12.5 12.5,-12.5c6.903,0 12.5,5.596 12.5,12.5Z" style="fill:#fc2513;fill-rule:nonzero;"/><path d="M250,650l25,0l0,-25c-13.807,0 -25,11.193 -25,25Z" style="fill:#fc2513;fill-rule:nonzero;"/><rect x="275" y="625" width="25" height="25" style="fill:#fc2513;"/><rect x="300" y="625" width="25" height="25" style="fill:#fc2513;"/><path d="M337.5,650l-12.5,0l0,-12.5l0,-12.5l12.5,0c6.903,0 12.5,5.596 12.5,12.5c0,6.903 -5.597,12.5 -12.5,12.5Z" style="fill:#fc2513;fill-rule:nonzero;"/><rect x="850" y="625" width="25" height="25" style="fill:#fc2513;"/><rect x="875" y="625" width="25" height="25" style="fill:#fc2513;"/><path d="M950,650l0,-25l-25,0c0,13.807 11.193,25 25,25Z" style="fill:#fc2513;fill-rule:nonzero;"/><path d="M962.5,650l-12.5,0l0,-12.5l0,-12.5l12.5,0c6.903,0 12.5,5.596 12.5,12.5c0,6.903 -5.597,12.5 -12.5,12.5Z" style="fill:#fc2513;fill-rule:nonzero;"/><path d="M1050,637.5l0,12.5c0,0 -8.51,0 -12.5,-0.001c-3.116,0.001 -12.5,0 -12.5,0l0,-12.499c0,-6.903 5.596,-12.5 12.5,-12.5c6.903,0 12.5,5.596 12.5,12.5Z" style="fill:#fc2513;fill-rule:nonzero;"/><path d="M200,675l0,-25l-25,0c0,13.807 11.193,25 25,25Z" style="fill:#fc2513;fill-rule:nonzero;"/><rect x="200" y="650" width="25" height="25" style="fill:#fc2513;"/><rect x="225" y="650" width="25" height="25" style="fill:#fc2513;"/><path d="M275,650l-25,0l0,25c13.807,0 25,-11.193 25,-25Z" style="fill:#fc2513;fill-rule:nonzero;"/><rect x="300" y="650" width="25" height="25" style="fill:#fc2513;"/><path d="M825,675l25,0l0,-25c-13.807,0 -25,11.193 -25,25Z" style="fill:#fc2513;fill-rule:nonzero;"/><rect x="850" y="650" width="25" height="25" style="fill:#fc2513;"/><rect x="875" y="650" width="25" height="25" style="fill:#fc2513;"/><path d="M900,650l0,25l25,0c0,-13.807 -11.193,-25 -25,-25Z" style="fill:#fc2513;fill-rule:nonzero;"/><rect x="1025" y="650" width="25" height="25" style="fill:#fc2513;"/><path d="M1050,650l0,25l25,0c0,-13.807 -11.193,-25 -25,-25Z" style="fill:#fc2513;fill-rule:nonzero;"/><path d="M125,687.5l0,12.5c0,0 -8.51,0 -12.5,-0.001c-3.116,0.001 -12.5,0 -12.5,0l0,-12.499c0,-6.903 5.596,-12.5 12.5,-12.5c6.903,0 12.5,5.596 12.5,12.5Z" style="fill:#fc2513;fill-rule:nonzero;"/><path d="M325,700l0,-25l-25,0c0,13.807 11.193,25 25,25Z" style="fill:#fc2513;fill-rule:nonzero;"/><path d="M325,675l0,25l25,0c0,-13.807 -11.193,-25 -25,-25Z" style="fill:#fc2513;fill-rule:nonzero;"/><path d="M800,700l25,0l0,-25c-13.807,0 -25,11.193 -25,25Z" style="fill:#fc2513;fill-rule:nonzero;"/><path d="M850,675l-25,0l0,25c13.807,0 25,-11.193 25,-25Z" style="fill:#fc2513;fill-rule:nonzero;"/><path d="M900,700l0,-25l-25,0c0,13.807 11.193,25 25,25Z" style="fill:#fc2513;fill-rule:nonzero;"/><rect x="900" y="675" width="25" height="25" style="fill:#fc2513;"/><path d="M962.5,675l12.5,0l0,25l-12.5,0c-6.906,0 -12.5,-5.599 -12.5,-12.5c0,-6.902 5.594,-12.5 12.5,-12.5Z" style="fill:#fc2513;fill-rule:nonzero;"/><path d="M987.5,700l-12.5,0l0,-12.5l0,-12.5l12.5,0c6.903,0 12.5,5.596 12.5,12.5c0,6.903 -5.597,12.5 -12.5,12.5Z" style="fill:#fc2513;fill-rule:nonzero;"/><rect x="1025" y="675" width="25" height="25" style="fill:#fc2513;"/><path d="M1075,675l-25,0l0,25c13.807,0 25,-11.193 25,-25Z" style="fill:#fc2513;fill-rule:nonzero;"/><path d="M75,712.5l0,12.5c0,0 -8.51,0 -12.5,-0.001c-3.116,0.001 -12.5,0 -12.5,0l0,-12.499c0,-6.903 5.596,-12.5 12.5,-12.5c6.903,0 12.5,5.596 12.5,12.5Z" style="fill:#fc2513;fill-rule:nonzero;"/><path d="M100,712.5l0,-12.5l25,0l0,12.5c0,6.903 -5.597,12.5 -12.5,12.5c-6.904,0 -12.5,-5.597 -12.5,-12.5Z" style="fill:#fc2513;fill-rule:nonzero;"/><path d="M175,712.5l0,12.5c0,0 -8.51,0 -12.5,-0.001c-3.116,0.001 -12.5,0 -12.5,0l0,-12.499c0,-6.903 5.596,-12.5 12.5,-12.5c6.903,0 12.5,5.596 12.5,12.5Z" style="fill:#fc2513;fill-rule:nonzero;"/><path d="M212.5,700l12.5,0l0,25l-12.5,0c-6.906,0 -12.5,-5.599 -12.5,-12.5c0,-6.902 5.594,-12.5 12.5,-12.5Z" style="fill:#fc2513;fill-rule:nonzero;"/><path d="M237.5,725l-12.5,0l0,-12.5l0,-12.5l12.5,0c6.903,0 12.5,5.596 12.5,12.5c0,6.903 -5.597,12.5 -12.5,12.5Z" style="fill:#fc2513;fill-rule:nonzero;"/><path d="M325,712.5l0,-12.5l25,0l0,12.5c0,6.903 -5.597,12.5 -12.5,12.5c-6.904,0 -12.5,-5.597 -12.5,-12.5Z" style="fill:#fc2513;fill-rule:nonzero;"/><path d="M412.5,700l12.5,0l0,25l-12.5,0c-6.906,0 -12.5,-5.599 -12.5,-12.5c0,-6.902 5.594,-12.5 12.5,-12.5Z" style="fill:#fc2513;fill-rule:nonzero;"/><rect x="425" y="700" width="25" height="25" style="fill:#fc2513;"/><path d="M462.5,725l-12.5,0l0,-12.5l0,-12.5l12.5,0c6.903,0 12.5,5.596 12.5,12.5c0,6.903 -5.597,12.5 -12.5,12.5Z" style="fill:#fc2513;fill-rule:nonzero;"/><path d="M525,725l25,0l0,-25c-13.807,0 -25,11.193 -25,25Z" style="fill:#fc2513;fill-rule:nonzero;"/><path d="M550,700l0,25l25,0c0,-13.807 -11.193,-25 -25,-25Z" style="fill:#fc2513;fill-rule:nonzero;"/><path d="M650,712.5l0,12.5c0,0 -8.51,0 -12.5,-0.001c-3.116,0.001 -12.5,0 -12.5,0l0,-12.499c0,-6.903 5.596,-12.5 12.5,-12.5c6.903,0 12.5,5.596 12.5,12.5Z" style="fill:#fc2513;fill-rule:nonzero;"/><path d="M675,725l25,0l0,-25c-13.807,0 -25,11.193 -25,25Z" style="fill:#fc2513;fill-rule:nonzero;"/><rect x="700" y="700" width="25" height="25" style="fill:#fc2513;"/><rect x="725" y="700" width="25" height="25" style="fill:#fc2513;"/><rect x="750" y="700" width="25" height="25" style="fill:#fc2513;"/><rect x="775" y="700" width="25" height="25" style="fill:#fc2513;"/><path d="M825,700l-25,0l0,25c13.807,0 25,-11.193 25,-25Z" style="fill:#fc2513;fill-rule:nonzero;"/><path d="M862.5,700c6.904,0 12.5,5.596 12.5,12.5c0,6.904 -5.596,12.5 -12.5,12.5c-6.904,0 -12.5,-5.596 -12.5,-12.5c0,-6.904 5.596,-12.5 12.5,-12.5Z" style="fill:#fc2513;fill-rule:nonzero;"/><path d="M925,725l0,-25l-25,0c0,13.807 11.193,25 25,25Z" style="fill:#fc2513;fill-rule:nonzero;"/><path d="M925,700l0,25l25,0c0,-13.807 -11.193,-25 -25,-25Z" style="fill:#fc2513;fill-rule:nonzero;"/><path d="M1025,712.5l0,-12.5l25,0l0,12.5c0,6.903 -5.597,12.5 -12.5,12.5c-6.904,0 -12.5,-5.597 -12.5,-12.5Z" style="fill:#fc2513;fill-rule:nonzero;"/><path d="M75,750l0,-25l-25,0c0,13.807 11.193,25 25,25Z" style="fill:#fc2513;fill-rule:nonzero;"/><path d="M75,725l0,25l25,0c0,-13.807 -11.193,-25 -25,-25Z" style="fill:#fc2513;fill-rule:nonzero;"/><path d="M137.5,725l12.5,0l0,25l-12.5,0c-6.906,0 -12.5,-5.599 -12.5,-12.5c0,-6.902 5.594,-12.5 12.5,-12.5Z" style="fill:#fc2513;fill-rule:nonzero;"/><path d="M175,725l-25,0l0,25c13.807,0 25,-11.193 25,-25Z" style="fill:#fc2513;fill-rule:nonzero;"/><rect x="525" y="725" width="25" height="25" style="fill:#fc2513;"/><rect x="550" y="725" width="25" height="25" style="fill:#fc2513;"/><path d="M575,725l0,25l25,0c0,-13.807 -11.193,-25 -25,-25Z" style="fill:#fc2513;fill-rule:nonzero;"/><path d="M650,750l0,-25l-25,0c0,13.807 11.193,25 25,25Z" style="fill:#fc2513;fill-rule:nonzero;"/><rect x="650" y="725" width="25" height="25" style="fill:#fc2513;"/><rect x="675" y="725" width="25" height="25" style="fill:#fc2513;"/><path d="M850,737.5l0,12.5c0,0 -8.51,0 -12.5,-0.001c-3.116,0.001 -12.5,0 -12.5,0l0,-12.499c0,-6.903 5.596,-12.5 12.5,-12.5c6.903,0 12.5,5.596 12.5,12.5Z" style="fill:#fc2513;fill-rule:nonzero;"/><path d="M950,750l0,-25l-25,0c0,13.807 11.193,25 25,25Z" style="fill:#fc2513;fill-rule:nonzero;"/><rect x="950" y="725" width="25" height="25" style="fill:#fc2513;"/><rect x="975" y="725" width="25" height="25" style="fill:#fc2513;"/><path d="M1000,725l0,25l25,0c0,-13.807 -11.193,-25 -25,-25Z" style="fill:#fc2513;fill-rule:nonzero;"/><path d="M1062.5,725c6.904,0 12.5,5.596 12.5,12.5c0,6.904 -5.596,12.5 -12.5,12.5c-6.903,0 -12.5,-5.596 -12.5,-12.5c0,-6.904 5.597,-12.5 12.5,-12.5Z" style="fill:#fc2513;fill-rule:nonzero;"/><rect x="75" y="750" width="25" height="25" style="fill:#fc2513;"/><path d="M212.5,750c6.904,0 12.5,5.596 12.5,12.5c0,6.904 -5.596,12.5 -12.5,12.5c-6.904,0 -12.5,-5.596 -12.5,-12.5c0,-6.904 5.596,-12.5 12.5,-12.5Z" style="fill:#fc2513;fill-rule:nonzero;"/><path d="M325,762.5l0,12.5c0,0 -8.51,0 -12.5,-0.001c-3.116,0.001 -12.5,0 -12.5,0l0,-12.499c0,-6.903 5.596,-12.5 12.5,-12.5c6.903,0 12.5,5.596 12.5,12.5Z" style="fill:#fc2513;fill-rule:nonzero;"/><path d="M362.5,750l12.5,0l0,25l-12.5,0c-6.906,0 -12.5,-5.599 -12.5,-12.5c0,-6.902 5.594,-12.5 12.5,-12.5Z" style="fill:#fc2513;fill-rule:nonzero;"/><path d="M375,750l0,25l25,0c0,-13.807 -11.193,-25 -25,-25Z" style="fill:#fc2513;fill-rule:nonzero;"/><path d="M487.5,750c6.904,0 12.5,5.596 12.5,12.5c0,6.904 -5.596,12.5 -12.5,12.5c-6.904,0 -12.5,-5.596 -12.5,-12.5c0,-6.904 5.596,-12.5 12.5,-12.5Z" style="fill:#fc2513;fill-rule:nonzero;"/><path d="M550,775l0,-25l-25,0c0,13.807 11.193,25 25,25Z" style="fill:#fc2513;fill-rule:nonzero;"/><rect x="550" y="750" width="25" height="25" style="fill:#fc2513;"/><rect x="575" y="750" width="25" height="25" style="fill:#fc2513;"/><path d="M612.5,775l-12.5,0l0,-12.5l0,-12.5l12.5,0c6.903,0 12.5,5.596 12.5,12.5c0,6.903 -5.597,12.5 -12.5,12.5Z" style="fill:#fc2513;fill-rule:nonzero;"/><rect x="675" y="750" width="25" height="25" style="fill:#fc2513;"/><path d="M800,762.5l0,12.5c0,0 -8.51,0 -12.5,-0.001c-3.116,0.001 -12.5,0 -12.5,0l0,-12.499c0,-6.903 5.596,-12.5 12.5,-12.5c6.903,0 12.5,5.596 12.5,12.5Z" style="fill:#fc2513;fill-rule:nonzero;"/><path d="M850,775l0,-25l-25,0c0,13.807 11.193,25 25,25Z" style="fill:#fc2513;fill-rule:nonzero;"/><path d="M862.5,775l-12.5,0l0,-12.5l0,-12.5l12.5,0c6.903,0 12.5,5.596 12.5,12.5c0,6.903 -5.597,12.5 -12.5,12.5Z" style="fill:#fc2513;fill-rule:nonzero;"/><path d="M912.5,750c6.904,0 12.5,5.596 12.5,12.5c0,6.904 -5.596,12.5 -12.5,12.5c-6.904,0 -12.5,-5.596 -12.5,-12.5c0,-6.904 5.596,-12.5 12.5,-12.5Z" style="fill:#fc2513;fill-rule:nonzero;"/><rect x="975" y="750" width="25" height="25" style="fill:#fc2513;"/><rect x="1000" y="750" width="25" height="25" style="fill:#fc2513;"/><path d="M1037.5,775l-12.5,0l0,-12.5l0,-12.5l12.5,0c6.903,0 12.5,5.596 12.5,12.5c0,6.903 -5.597,12.5 -12.5,12.5Z" style="fill:#fc2513;fill-rule:nonzero;"/><path d="M50,800l25,0l0,-25c-13.807,0 -25,11.193 -25,25Z" style="fill:#fc2513;fill-rule:nonzero;"/><rect x="75" y="775" width="25" height="25" style="fill:#fc2513;"/><path d="M175,787.5l0,12.5c0,0 -8.51,0 -12.5,-0.001c-3.116,0.001 -12.5,0 -12.5,0l0,-12.499c0,-6.903 5.596,-12.5 12.5,-12.5c6.903,0 12.5,5.596 12.5,12.5Z" style="fill:#fc2513;fill-rule:nonzero;"/><path d="M262.5,775c6.904,0 12.5,5.596 12.5,12.5c0,6.904 -5.596,12.5 -12.5,12.5c-6.904,0 -12.5,-5.596 -12.5,-12.5c0,-6.904 5.596,-12.5 12.5,-12.5Z" style="fill:#fc2513;fill-rule:nonzero;"/><rect x="300" y="775" width="25" height="25" style="fill:#fc2513;"/><path d="M337.5,800l-12.5,0l0,-12.5l0,-12.5l12.5,0c6.903,0 12.5,5.596 12.5,12.5c0,6.903 -5.597,12.5 -12.5,12.5Z" style="fill:#fc2513;fill-rule:nonzero;"/><path d="M400,800l0,-25l-25,0c0,13.807 11.193,25 25,25Z" style="fill:#fc2513;fill-rule:nonzero;"/><rect x="400" y="775" width="25" height="25" style="fill:#fc2513;"/><path d="M437.5,800l-12.5,0l0,-12.5l0,-12.5l12.5,0c6.903,0 12.5,5.596 12.5,12.5c0,6.903 -5.597,12.5 -12.5,12.5Z" style="fill:#fc2513;fill-rule:nonzero;"/><path d="M512.5,775c6.904,0 12.5,5.596 12.5,12.5c0,6.904 -5.596,12.5 -12.5,12.5c-6.904,0 -12.5,-5.596 -12.5,-12.5c0,-6.904 5.596,-12.5 12.5,-12.5Z" style="fill:#fc2513;fill-rule:nonzero;"/><path d="M637.5,775c6.904,0 12.5,5.596 12.5,12.5c0,6.904 -5.596,12.5 -12.5,12.5c-6.904,0 -12.5,-5.596 -12.5,-12.5c0,-6.904 5.596,-12.5 12.5,-12.5Z" style="fill:#fc2513;fill-rule:nonzero;"/><path d="M700,800l0,-25l-25,0c0,13.807 11.193,25 25,25Z" style="fill:#fc2513;fill-rule:nonzero;"/><path d="M700,775l0,25l25,0c0,-13.807 -11.193,-25 -25,-25Z" style="fill:#fc2513;fill-rule:nonzero;"/><path d="M750,800l25,0l0,-25c-13.807,0 -25,11.193 -25,25Z" style="fill:#fc2513;fill-rule:nonzero;"/><rect x="775" y="775" width="25" height="25" style="fill:#fc2513;"/><path d="M800,775l0,25l25,0c0,-13.807 -11.193,-25 -25,-25Z" style="fill:#fc2513;fill-rule:nonzero;"/><path d="M937.5,775l12.5,0l0,25l-12.5,0c-6.906,0 -12.5,-5.599 -12.5,-12.5c0,-6.902 5.594,-12.5 12.5,-12.5Z" style="fill:#fc2513;fill-rule:nonzero;"/><rect x="950" y="775" width="25" height="25" style="fill:#fc2513;"/><rect x="975" y="775" width="25" height="25" style="fill:#fc2513;"/><rect x="1000" y="775" width="25" height="25" style="fill:#fc2513;"/><path d="M1075,787.5l0,12.5c0,0 -8.51,0 -12.5,-0.001c-3.116,0.001 -12.5,0 -12.5,0l0,-12.499c0,-6.903 5.596,-12.5 12.5,-12.5c6.903,0 12.5,5.596 12.5,12.5Z" style="fill:#fc2513;fill-rule:nonzero;"/><rect x="50" y="800" width="25" height="25" style="fill:#fc2513;"/><path d="M100,800l-25,0l0,25c13.807,0 25,-11.193 25,-25Z" style="fill:#fc2513;fill-rule:nonzero;"/><rect x="150" y="800" width="25" height="25" style="fill:#fc2513;"/><rect x="175" y="800" width="25" height="25" style="fill:#fc2513;"/><rect x="200" y="800" width="25" height="25" style="fill:#fc2513;"/><path d="M237.5,825l-12.5,0l0,-12.5l0,-12.5l12.5,0c6.903,0 12.5,5.596 12.5,12.5c0,6.903 -5.597,12.5 -12.5,12.5Z" style="fill:#fc2513;fill-rule:nonzero;"/><path d="M300,812.5l0,-12.5l25,0l0,12.5c0,6.903 -5.597,12.5 -12.5,12.5c-6.904,0 -12.5,-5.597 -12.5,-12.5Z" style="fill:#fc2513;fill-rule:nonzero;"/><path d="M462.5,800c6.904,0 12.5,5.596 12.5,12.5c0,6.904 -5.596,12.5 -12.5,12.5c-6.904,0 -12.5,-5.596 -12.5,-12.5c0,-6.904 5.596,-12.5 12.5,-12.5Z" style="fill:#fc2513;fill-rule:nonzero;"/><path d="M575,812.5l0,12.5c0,0 -8.51,0 -12.5,-0.001c-3.116,0.001 -12.5,0 -12.5,0l0,-12.499c0,-6.903 5.596,-12.5 12.5,-12.5c6.903,0 12.5,5.596 12.5,12.5Z" style="fill:#fc2513;fill-rule:nonzero;"/><path d="M612.5,800c6.904,0 12.5,5.596 12.5,12.5c0,6.904 -5.596,12.5 -12.5,12.5c-6.904,0 -12.5,-5.596 -12.5,-12.5c0,-6.904 5.596,-12.5 12.5,-12.5Z" style="fill:#fc2513;fill-rule:nonzero;"/><rect x="700" y="800" width="25" height="25" style="fill:#fc2513;"/><rect x="750" y="800" width="25" height="25" style="fill:#fc2513;"/><rect x="775" y="800" width="25" height="25" style="fill:#fc2513;"/><rect x="800" y="800" width="25" height="25" style="fill:#fc2513;"/><path d="M837.5,825l-12.5,0l0,-12.5l0,-12.5l12.5,0c6.903,0 12.5,5.596 12.5,12.5c0,6.903 -5.597,12.5 -12.5,12.5Z" style="fill:#fc2513;fill-rule:nonzero;"/><path d="M887.5,800c6.904,0 12.5,5.596 12.5,12.5c0,6.904 -5.596,12.5 -12.5,12.5c-6.904,0 -12.5,-5.596 -12.5,-12.5c0,-6.904 5.596,-12.5 12.5,-12.5Z" style="fill:#fc2513;fill-rule:nonzero;"/><path d="M1000,812.5l0,-12.5l25,0l0,12.5c0,6.903 -5.597,12.5 -12.5,12.5c-6.904,0 -12.5,-5.597 -12.5,-12.5Z" style="fill:#fc2513;fill-rule:nonzero;"/><path d="M1050,812.5l0,-12.5l25,0l0,12.5c0,6.903 -5.597,12.5 -12.5,12.5c-6.904,0 -12.5,-5.597 -12.5,-12.5Z" style="fill:#fc2513;fill-rule:nonzero;"/><rect x="50" y="825" width="25" height="25" style="fill:#fc2513;"/><path d="M112.5,825c6.904,0 12.5,5.596 12.5,12.5c0,6.904 -5.596,12.5 -12.5,12.5c-6.903,0 -12.5,-5.596 -12.5,-12.5c0,-6.904 5.597,-12.5 12.5,-12.5Z" style="fill:#fc2513;fill-rule:nonzero;"/><path d="M175,850l0,-25l-25,0c0,13.807 11.193,25 25,25Z" style="fill:#fc2513;fill-rule:nonzero;"/><rect x="175" y="825" width="25" height="25" style="fill:#fc2513;"/><path d="M287.5,825c6.904,0 12.5,5.596 12.5,12.5c0,6.904 -5.596,12.5 -12.5,12.5c-6.904,0 -12.5,-5.596 -12.5,-12.5c0,-6.904 5.596,-12.5 12.5,-12.5Z" style="fill:#fc2513;fill-rule:nonzero;"/><path d="M337.5,825c6.904,0 12.5,5.596 12.5,12.5c0,6.904 -5.596,12.5 -12.5,12.5c-6.904,0 -12.5,-5.596 -12.5,-12.5c0,-6.904 5.596,-12.5 12.5,-12.5Z" style="fill:#fc2513;fill-rule:nonzero;"/><path d="M412.5,825c6.904,0 12.5,5.596 12.5,12.5c0,6.904 -5.596,12.5 -12.5,12.5c-6.904,0 -12.5,-5.596 -12.5,-12.5c0,-6.904 5.596,-12.5 12.5,-12.5Z" style="fill:#fc2513;fill-rule:nonzero;"/><rect x="550" y="825" width="25" height="25" style="fill:#fc2513;"/><path d="M675,850l25,0l0,-25c-13.807,0 -25,11.193 -25,25Z" style="fill:#fc2513;fill-rule:nonzero;"/><rect x="700" y="825" width="25" height="25" style="fill:#fc2513;"/><rect x="725" y="825" width="25" height="25" style="fill:#fc2513;"/><rect x="750" y="825" width="25" height="25" style="fill:#fc2513;"/><rect x="800" y="825" width="25" height="25" style="fill:#fc2513;"/><path d="M900,850l25,0l0,-25c-13.807,0 -25,11.193 -25,25Z" style="fill:#fc2513;fill-rule:nonzero;"/><path d="M925,825l0,25l25,0c0,-13.807 -11.193,-25 -25,-25Z" style="fill:#fc2513;fill-rule:nonzero;"/><path d="M1050,837.5l0,12.5c0,0 -8.51,0 -12.5,-0.001c-3.116,0.001 -12.5,0 -12.5,0l0,-12.499c0,-6.903 5.596,-12.5 12.5,-12.5c6.903,0 12.5,5.596 12.5,12.5Z" style="fill:#fc2513;fill-rule:nonzero;"/><path d="M50,862.5l0,-12.5l25,0l0,12.5c0,6.903 -5.597,12.5 -12.5,12.5c-6.904,0 -12.5,-5.597 -12.5,-12.5Z" style="fill:#fc2513;fill-rule:nonzero;"/><path d="M200,875l0,-25l-25,0c0,13.807 11.193,25 25,25Z" style="fill:#fc2513;fill-rule:nonzero;"/><rect x="200" y="850" width="25" height="25" style="fill:#fc2513;"/><path d="M237.5,875l-12.5,0l0,-12.5l0,-12.5l12.5,0c6.903,0 12.5,5.596 12.5,12.5c0,6.903 -5.597,12.5 -12.5,12.5Z" style="fill:#fc2513;fill-rule:nonzero;"/><path d="M325,862.5l0,12.5c0,0 -8.51,0 -12.5,-0.001c-3.116,0.001 -12.5,0 -12.5,0l0,-12.499c0,-6.903 5.596,-12.5 12.5,-12.5c6.903,0 12.5,5.596 12.5,12.5Z" style="fill:#fc2513;fill-rule:nonzero;"/><path d="M375,862.5l0,12.5c0,0 -8.51,0 -12.5,-0.001c-3.116,0.001 -12.5,0 -12.5,0l0,-12.499c0,-6.903 5.596,-12.5 12.5,-12.5c6.903,0 12.5,5.596 12.5,12.5Z" style="fill:#fc2513;fill-rule:nonzero;"/><path d="M437.5,850l12.5,0l0,25l-12.5,0c-6.906,0 -12.5,-5.599 -12.5,-12.5c0,-6.902 5.594,-12.5 12.5,-12.5Z" style="fill:#fc2513;fill-rule:nonzero;"/><rect x="450" y="850" width="25" height="25" style="fill:#fc2513;"/><rect x="475" y="850" width="25" height="25" style="fill:#fc2513;"/><path d="M500,850l0,25l25,0c0,-13.807 -11.193,-25 -25,-25Z" style="fill:#fc2513;fill-rule:nonzero;"/><rect x="550" y="850" width="25" height="25" style="fill:#fc2513;"/><path d="M612.5,850l12.5,0l0,25l-12.5,0c-6.906,0 -12.5,-5.599 -12.5,-12.5c0,-6.902 5.594,-12.5 12.5,-12.5Z" style="fill:#fc2513;fill-rule:nonzero;"/><rect x="625" y="850" width="25" height="25" style="fill:#fc2513;"/><rect x="650" y="850" width="25" height="25" style="fill:#fc2513;"/><rect x="675" y="850" width="25" height="25" style="fill:#fc2513;"/><path d="M725,850l-25,0l0,25c13.807,0 25,-11.193 25,-25Z" style="fill:#fc2513;fill-rule:nonzero;"/><rect x="750" y="850" width="25" height="25" style="fill:#fc2513;"/><rect x="775" y="850" width="25" height="25" style="fill:#fc2513;"/><path d="M825,850l-25,0l0,25c13.807,0 25,-11.193 25,-25Z" style="fill:#fc2513;fill-rule:nonzero;"/><path d="M850,875l25,0l0,-25c-13.807,0 -25,11.193 -25,25Z" style="fill:#fc2513;fill-rule:nonzero;"/><rect x="875" y="850" width="25" height="25" style="fill:#fc2513;"/><rect x="900" y="850" width="25" height="25" style="fill:#fc2513;"/><rect x="925" y="850" width="25" height="25" style="fill:#fc2513;"/><path d="M950,850l0,25l25,0c0,-13.807 -11.193,-25 -25,-25Z" style="fill:#fc2513;fill-rule:nonzero;"/><path d="M1000,875l25,0l0,-25c-13.807,0 -25,11.193 -25,25Z" style="fill:#fc2513;fill-rule:nonzero;"/><rect x="1025" y="850" width="25" height="25" style="fill:#fc2513;"/><path d="M1062.5,875l-12.5,0l0,-12.5l0,-12.5l12.5,0c6.903,0 12.5,5.596 12.5,12.5c0,6.903 -5.597,12.5 -12.5,12.5Z" style="fill:#fc2513;fill-rule:nonzero;"/><path d="M262.5,875c6.904,0 12.5,5.596 12.5,12.5c0,6.904 -5.596,12.5 -12.5,12.5c-6.904,0 -12.5,-5.596 -12.5,-12.5c0,-6.904 5.596,-12.5 12.5,-12.5Z" style="fill:#fc2513;fill-rule:nonzero;"/><rect x="300" y="875" width="25" height="25" style="fill:#fc2513;"/><rect x="325" y="875" width="25" height="25" style="fill:#fc2513;"/><path d="M375,875l-25,0l0,25c13.807,0 25,-11.193 25,-25Z" style="fill:#fc2513;fill-rule:nonzero;"/><rect x="475" y="875" width="25" height="25" style="fill:#fc2513;"/><rect x="500" y="875" width="25" height="25" style="fill:#fc2513;"/><rect x="525" y="875" width="25" height="25" style="fill:#fc2513;"/><path d="M575,875l-25,0l0,25c13.807,0 25,-11.193 25,-25Z" style="fill:#fc2513;fill-rule:nonzero;"/><rect x="625" y="875" width="25" height="25" style="fill:#fc2513;"/><path d="M725,900l25,0l0,-25c-13.807,0 -25,11.193 -25,25Z" style="fill:#fc2513;fill-rule:nonzero;"/><path d="M775,875l-25,0l0,25c13.807,0 25,-11.193 25,-25Z" style="fill:#fc2513;fill-rule:nonzero;"/><path d="M825,900l25,0l0,-25c-13.807,0 -25,11.193 -25,25Z" style="fill:#fc2513;fill-rule:nonzero;"/><rect x="850" y="875" width="25" height="25" style="fill:#fc2513;"/><rect x="950" y="875" width="25" height="25" style="fill:#fc2513;"/><rect x="975" y="875" width="25" height="25" style="fill:#fc2513;"/><path d="M1025,875l-25,0l0,25c13.807,0 25,-11.193 25,-25Z" style="fill:#fc2513;fill-rule:nonzero;"/><path d="M287.5,900l12.5,0l0,25l-12.5,0c-6.906,0 -12.5,-5.599 -12.5,-12.5c0,-6.902 5.594,-12.5 12.5,-12.5Z" style="fill:#fc2513;fill-rule:nonzero;"/><rect x="300" y="900" width="25" height="25" style="fill:#fc2513;"/><rect x="325" y="900" width="25" height="25" style="fill:#fc2513;"/><path d="M412.5,900c6.904,0 12.5,5.596 12.5,12.5c0,6.904 -5.596,12.5 -12.5,12.5c-6.904,0 -12.5,-5.596 -12.5,-12.5c0,-6.904 5.596,-12.5 12.5,-12.5Z" style="fill:#fc2513;fill-rule:nonzero;"/><path d="M462.5,900l12.5,0l0,25l-12.5,0c-6.906,0 -12.5,-5.599 -12.5,-12.5c0,-6.902 5.594,-12.5 12.5,-12.5Z" style="fill:#fc2513;fill-rule:nonzero;"/><rect x="475" y="900" width="25" height="25" style="fill:#fc2513;"/><path d="M600,925l25,0l0,-25c-13.807,0 -25,11.193 -25,25Z" style="fill:#fc2513;fill-rule:nonzero;"/><path d="M650,900l-25,0l0,25c13.807,0 25,-11.193 25,-25Z" style="fill:#fc2513;fill-rule:nonzero;"/><path d="M687.5,900c6.904,0 12.5,5.596 12.5,12.5c0,6.904 -5.596,12.5 -12.5,12.5c-6.904,0 -12.5,-5.596 -12.5,-12.5c0,-6.904 5.596,-12.5 12.5,-12.5Z" style="fill:#fc2513;fill-rule:nonzero;"/><path d="M725,912.5l0,-12.5l25,0l0,12.5c0,6.903 -5.597,12.5 -12.5,12.5c-6.904,0 -12.5,-5.597 -12.5,-12.5Z" style="fill:#fc2513;fill-rule:nonzero;"/><path d="M812.5,900l12.5,0l0,25l-12.5,0c-6.906,0 -12.5,-5.599 -12.5,-12.5c0,-6.902 5.594,-12.5 12.5,-12.5Z" style="fill:#fc2513;fill-rule:nonzero;"/><rect x="825" y="900" width="25" height="25" style="fill:#fc2513;"/><rect x="850" y="900" width="25" height="25" style="fill:#fc2513;"/><path d="M912.5,900c6.904,0 12.5,5.596 12.5,12.5c0,6.904 -5.596,12.5 -12.5,12.5c-6.904,0 -12.5,-5.596 -12.5,-12.5c0,-6.904 5.596,-12.5 12.5,-12.5Z" style="fill:#fc2513;fill-rule:nonzero;"/><rect x="950" y="900" width="25" height="25" style="fill:#fc2513;"/><path d="M1000,900l-25,0l0,25c13.807,0 25,-11.193 25,-25Z" style="fill:#fc2513;fill-rule:nonzero;"/><path d="M262.5,925c6.904,0 12.5,5.596 12.5,12.5c0,6.904 -5.596,12.5 -12.5,12.5c-6.904,0 -12.5,-5.596 -12.5,-12.5c0,-6.904 5.596,-12.5 12.5,-12.5Z" style="fill:#fc2513;fill-rule:nonzero;"/><rect x="300" y="925" width="25" height="25" style="fill:#fc2513;"/><rect x="325" y="925" width="25" height="25" style="fill:#fc2513;"/><rect x="350" y="925" width="25" height="25" style="fill:#fc2513;"/><path d="M387.5,950l-12.5,0l0,-12.5l0,-12.5l12.5,0c6.903,0 12.5,5.596 12.5,12.5c0,6.903 -5.597,12.5 -12.5,12.5Z" style="fill:#fc2513;fill-rule:nonzero;"/><path d="M437.5,925c6.904,0 12.5,5.596 12.5,12.5c0,6.904 -5.596,12.5 -12.5,12.5c-6.904,0 -12.5,-5.596 -12.5,-12.5c0,-6.904 5.596,-12.5 12.5,-12.5Z" style="fill:#fc2513;fill-rule:nonzero;"/><rect x="475" y="925" width="25" height="25" style="fill:#fc2513;"/><path d="M537.5,925l12.5,0l0,25l-12.5,0c-6.906,0 -12.5,-5.599 -12.5,-12.5c0,-6.902 5.594,-12.5 12.5,-12.5Z" style="fill:#fc2513;fill-rule:nonzero;"/><path d="M562.5,950l-12.5,0l0,-12.5l0,-12.5l12.5,0c6.903,0 12.5,5.596 12.5,12.5c0,6.903 -5.597,12.5 -12.5,12.5Z" style="fill:#fc2513;fill-rule:nonzero;"/><path d="M600,937.5l0,-12.5l25,0l0,12.5c0,6.903 -5.597,12.5 -12.5,12.5c-6.904,0 -12.5,-5.597 -12.5,-12.5Z" style="fill:#fc2513;fill-rule:nonzero;"/><path d="M725,937.5l0,12.5c0,0 -8.51,0 -12.5,-0.001c-3.116,0.001 -12.5,0 -12.5,0l0,-12.499c0,-6.903 5.596,-12.5 12.5,-12.5c6.903,0 12.5,5.596 12.5,12.5Z" style="fill:#fc2513;fill-rule:nonzero;"/><rect x="850" y="925" width="25" height="25" style="fill:#fc2513;"/><rect x="950" y="925" width="25" height="25" style="fill:#fc2513;"/><path d="M1062.5,925c6.904,0 12.5,5.596 12.5,12.5c0,6.904 -5.596,12.5 -12.5,12.5c-6.903,0 -12.5,-5.596 -12.5,-12.5c0,-6.904 5.597,-12.5 12.5,-12.5Z" style="fill:#fc2513;fill-rule:nonzero;"/><path d="M325,975l0,-25l-25,0c0,13.807 11.193,25 25,25Z" style="fill:#fc2513;fill-rule:nonzero;"/><rect x="325" y="950" width="25" height="25" style="fill:#fc2513;"/><path d="M412.5,950c6.904,0 12.5,5.596 12.5,12.5c0,6.904 -5.596,12.5 -12.5,12.5c-6.904,0 -12.5,-5.596 -12.5,-12.5c0,-6.904 5.596,-12.5 12.5,-12.5Z" style="fill:#fc2513;fill-rule:nonzero;"/><path d="M500,975l0,-25l-25,0c0,13.807 11.193,25 25,25Z" style="fill:#fc2513;fill-rule:nonzero;"/><path d="M512.5,975l-12.5,0l0,-12.5l0,-12.5l12.5,0c6.903,0 12.5,5.596 12.5,12.5c0,6.903 -5.597,12.5 -12.5,12.5Z" style="fill:#fc2513;fill-rule:nonzero;"/><path d="M600,962.5l0,12.5c0,0 -8.51,0 -12.5,-0.001c-3.116,0.001 -12.5,0 -12.5,0l0,-12.499c0,-6.903 5.596,-12.5 12.5,-12.5c6.903,0 12.5,5.596 12.5,12.5Z" style="fill:#fc2513;fill-rule:nonzero;"/><path d="M637.5,950l12.5,0l0,25l-12.5,0c-6.906,0 -12.5,-5.599 -12.5,-12.5c0,-6.902 5.594,-12.5 12.5,-12.5Z" style="fill:#fc2513;fill-rule:nonzero;"/><rect x="650" y="950" width="25" height="25" style="fill:#fc2513;"/><rect x="675" y="950" width="25" height="25" style="fill:#fc2513;"/><rect x="700" y="950" width="25" height="25" style="fill:#fc2513;"/><path d="M725,950l0,25l25,0c0,-13.807 -11.193,-25 -25,-25Z" style="fill:#fc2513;fill-rule:nonzero;"/><path d="M775,975l25,0l0,-25c-13.807,0 -25,11.193 -25,25Z" style="fill:#fc2513;fill-rule:nonzero;"/><rect x="800" y="950" width="25" height="25" style="fill:#fc2513;"/><rect x="825" y="950" width="25" height="25" style="fill:#fc2513;"/><rect x="850" y="950" width="25" height="25" style="fill:#fc2513;"/><rect x="875" y="950" width="25" height="25" style="fill:#fc2513;"/><rect x="900" y="950" width="25" height="25" style="fill:#fc2513;"/><rect x="925" y="950" width="25" height="25" style="fill:#fc2513;"/><path d="M975,950l-25,0l0,25c13.807,0 25,-11.193 25,-25Z" style="fill:#fc2513;fill-rule:nonzero;"/><rect x="325" y="975" width="25" height="25" style="fill:#fc2513;"/><path d="M475,987.5l0,12.5c0,0 -8.51,0 -12.5,-0.001c-3.116,0.001 -12.5,0 -12.5,0l0,-12.499c0,-6.903 5.596,-12.5 12.5,-12.5c6.903,0 12.5,5.596 12.5,12.5Z" style="fill:#fc2513;fill-rule:nonzero;"/><path d="M550,987.5l0,12.5c0,0 -8.51,0 -12.5,-0.001c-3.116,0.001 -12.5,0 -12.5,0l0,-12.499c0,-6.903 5.596,-12.5 12.5,-12.5c6.903,0 12.5,5.596 12.5,12.5Z" style="fill:#fc2513;fill-rule:nonzero;"/><path d="M600,1000l0,-25l-25,0c0,13.807 11.193,25 25,25Z" style="fill:#fc2513;fill-rule:nonzero;"/><path d="M612.5,1000l-12.5,0l0,-12.5l0,-12.5l12.5,0c6.903,0 12.5,5.596 12.5,12.5c0,6.903 -5.597,12.5 -12.5,12.5Z" style="fill:#fc2513;fill-rule:nonzero;"/><path d="M650,987.5l0,-12.5l25,0l0,12.5c0,6.903 -5.597,12.5 -12.5,12.5c-6.904,0 -12.5,-5.597 -12.5,-12.5Z" style="fill:#fc2513;fill-rule:nonzero;"/><rect x="725" y="975" width="25" height="25" style="fill:#fc2513;"/><rect x="750" y="975" width="25" height="25" style="fill:#fc2513;"/><rect x="775" y="975" width="25" height="25" style="fill:#fc2513;"/><rect x="825" y="975" width="25" height="25" style="fill:#fc2513;"/><path d="M875,975l-25,0l0,25c13.807,0 25,-11.193 25,-25Z" style="fill:#fc2513;fill-rule:nonzero;"/><rect x="925" y="975" width="25" height="25" style="fill:#fc2513;"/><path d="M1025,1000l25,0l0,-25c-13.807,0 -25,11.193 -25,25Z" style="fill:#fc2513;fill-rule:nonzero;"/><path d="M1062.5,1000l-12.5,0l0,-12.5l0,-12.5l12.5,0c6.903,0 12.5,5.596 12.5,12.5c0,6.903 -5.597,12.5 -12.5,12.5Z" style="fill:#fc2513;fill-rule:nonzero;"/><path d="M325,1012.5l0,-12.5l25,0l0,12.5c0,6.903 -5.597,12.5 -12.5,12.5c-6.904,0 -12.5,-5.597 -12.5,-12.5Z" style="fill:#fc2513;fill-rule:nonzero;"/><path d="M400,1012.5l0,12.5c0,0 -8.51,0 -12.5,-0.001c-3.116,0.001 -12.5,0 -12.5,0l0,-12.499c0,-6.903 5.596,-12.5 12.5,-12.5c6.903,0 12.5,5.596 12.5,12.5Z" style="fill:#fc2513;fill-rule:nonzero;"/><path d="M475,1025l0,-25l-25,0c0,13.807 11.193,25 25,25Z" style="fill:#fc2513;fill-rule:nonzero;"/><rect x="475" y="1000" width="25" height="25" style="fill:#fc2513;"/><rect x="500" y="1000" width="25" height="25" style="fill:#fc2513;"/><rect x="525" y="1000" width="25" height="25" style="fill:#fc2513;"/><path d="M550,1000l0,25l25,0c0,-13.807 -11.193,-25 -25,-25Z" style="fill:#fc2513;fill-rule:nonzero;"/><path d="M650,1012.5l0,12.5c0,0 -8.51,0 -12.5,-0.001c-3.116,0.001 -12.5,0 -12.5,0l0,-12.499c0,-6.903 5.596,-12.5 12.5,-12.5c6.903,0 12.5,5.596 12.5,12.5Z" style="fill:#fc2513;fill-rule:nonzero;"/><path d="M687.5,1000l12.5,0l0,25l-12.5,0c-6.906,0 -12.5,-5.599 -12.5,-12.5c0,-6.902 5.594,-12.5 12.5,-12.5Z" style="fill:#fc2513;fill-rule:nonzero;"/><rect x="700" y="1000" width="25" height="25" style="fill:#fc2513;"/><rect x="725" y="1000" width="25" height="25" style="fill:#fc2513;"/><rect x="750" y="1000" width="25" height="25" style="fill:#fc2513;"/><path d="M800,1000l-25,0l0,25c13.807,0 25,-11.193 25,-25Z" style="fill:#fc2513;fill-rule:nonzero;"/><path d="M825,1012.5l0,-12.5l25,0l0,12.5c0,6.903 -5.597,12.5 -12.5,12.5c-6.904,0 -12.5,-5.597 -12.5,-12.5Z" style="fill:#fc2513;fill-rule:nonzero;"/><path d="M875,1025l25,0l0,-25c-13.807,0 -25,11.193 -25,25Z" style="fill:#fc2513;fill-rule:nonzero;"/><rect x="900" y="1000" width="25" height="25" style="fill:#fc2513;"/><rect x="925" y="1000" width="25" height="25" style="fill:#fc2513;"/><path d="M950,1000l0,25l25,0c0,-13.807 -11.193,-25 -25,-25Z" style="fill:#fc2513;fill-rule:nonzero;"/><path d="M1025,1012.5l0,-12.5l25,0l0,12.5c0,6.903 -5.597,12.5 -12.5,12.5c-6.904,0 -12.5,-5.597 -12.5,-12.5Z" style="fill:#fc2513;fill-rule:nonzero;"/><path d="M287.5,1025l12.5,0l0,25l-12.5,0c-6.906,0 -12.5,-5.599 -12.5,-12.5c0,-6.902 5.594,-12.5 12.5,-12.5Z" style="fill:#fc2513;fill-rule:nonzero;"/><path d="M312.5,1050l-12.5,0l0,-12.5l0,-12.5l12.5,0c6.903,0 12.5,5.596 12.5,12.5c0,6.903 -5.597,12.5 -12.5,12.5Z" style="fill:#fc2513;fill-rule:nonzero;"/><path d="M362.5,1025l12.5,0l0,25l-12.5,0c-6.906,0 -12.5,-5.599 -12.5,-12.5c0,-6.902 5.594,-12.5 12.5,-12.5Z" style="fill:#fc2513;fill-rule:nonzero;"/><rect x="375" y="1025" width="25" height="25" style="fill:#fc2513;"/><rect x="400" y="1025" width="25" height="25" style="fill:#fc2513;"/><path d="M437.5,1050l-12.5,0l0,-12.5l0,-12.5l12.5,0c6.903,0 12.5,5.596 12.5,12.5c0,6.903 -5.597,12.5 -12.5,12.5Z" style="fill:#fc2513;fill-rule:nonzero;"/><path d="M475,1037.5l0,-12.5l25,0l0,12.5c0,6.903 -5.597,12.5 -12.5,12.5c-6.904,0 -12.5,-5.597 -12.5,-12.5Z" style="fill:#fc2513;fill-rule:nonzero;"/><path d="M575,1050l0,-25l-25,0c0,13.807 11.193,25 25,25Z" style="fill:#fc2513;fill-rule:nonzero;"/><rect x="575" y="1025" width="25" height="25" style="fill:#fc2513;"/><rect x="600" y="1025" width="25" height="25" style="fill:#fc2513;"/><rect x="625" y="1025" width="25" height="25" style="fill:#fc2513;"/><path d="M662.5,1050l-12.5,0l0,-12.5l0,-12.5l12.5,0c6.903,0 12.5,5.596 12.5,12.5c0,6.903 -5.597,12.5 -12.5,12.5Z" style="fill:#fc2513;fill-rule:nonzero;"/><rect x="700" y="1025" width="25" height="25" style="fill:#fc2513;"/><path d="M812.5,1025c6.904,0 12.5,5.597 12.5,12.5c0,6.904 -5.596,12.5 -12.5,12.5c-6.904,0 -12.5,-5.596 -12.5,-12.5c0,-6.903 5.596,-12.5 12.5,-12.5Z" style="fill:#fc2513;fill-rule:nonzero;"/><rect x="875" y="1025" width="25" height="25" style="fill:#fc2513;"/><path d="M925,1025l-25,0l0,25c13.807,0 25,-11.193 25,-25Z" style="fill:#fc2513;fill-rule:nonzero;"/><rect x="950" y="1025" width="25" height="25" style="fill:#fc2513;"/><path d="M1025,1037.5l0,12.5c0,0 -8.51,0 -12.5,-0.001c-3.116,0.001 -12.5,0 -12.5,0l0,-12.499c0,-6.903 5.596,-12.5 12.5,-12.5c6.903,0 12.5,5.597 12.5,12.5Z" style="fill:#fc2513;fill-rule:nonzero;"/><path d="M1062.5,1025c6.904,0 12.5,5.597 12.5,12.5c0,6.904 -5.596,12.5 -12.5,12.5c-6.903,0 -12.5,-5.596 -12.5,-12.5c0,-6.903 5.597,-12.5 12.5,-12.5Z" style="fill:#fc2513;fill-rule:nonzero;"/><path d="M462.5,1050c6.904,0 12.5,5.597 12.5,12.5c0,6.904 -5.596,12.5 -12.5,12.5c-6.904,0 -12.5,-5.596 -12.5,-12.5c0,-6.903 5.596,-12.5 12.5,-12.5Z" style="fill:#fc2513;fill-rule:nonzero;"/><path d="M512.5,1050c6.904,0 12.5,5.597 12.5,12.5c0,6.904 -5.596,12.5 -12.5,12.5c-6.904,0 -12.5,-5.596 -12.5,-12.5c0,-6.903 5.596,-12.5 12.5,-12.5Z" style="fill:#fc2513;fill-rule:nonzero;"/><path d="M600,1075l0,-25l-25,0c0,13.807 11.193,25 25,25Z" style="fill:#fc2513;fill-rule:nonzero;"/><path d="M625,1050l-25,0l0,25c13.807,0 25,-11.193 25,-25Z" style="fill:#fc2513;fill-rule:nonzero;"/><path d="M687.5,1050l12.5,0l0,25l-12.5,0c-6.906,0 -12.5,-5.599 -12.5,-12.5c0,-6.902 5.594,-12.5 12.5,-12.5Z" style="fill:#fc2513;fill-rule:nonzero;"/><rect x="700" y="1050" width="25" height="25" style="fill:#fc2513;"/><path d="M737.5,1075l-12.5,0l0,-12.5l0,-12.5l12.5,0c6.903,0 12.5,5.596 12.5,12.5c0,6.903 -5.597,12.5 -12.5,12.5Z" style="fill:#fc2513;fill-rule:nonzero;"/><path d="M787.5,1050c6.904,0 12.5,5.597 12.5,12.5c0,6.904 -5.596,12.5 -12.5,12.5c-6.904,0 -12.5,-5.596 -12.5,-12.5c0,-6.903 5.596,-12.5 12.5,-12.5Z" style="fill:#fc2513;fill-rule:nonzero;"/><path d="M837.5,1050c6.904,0 12.5,5.597 12.5,12.5c0,6.904 -5.596,12.5 -12.5,12.5c-6.904,0 -12.5,-5.596 -12.5,-12.5c0,-6.903 5.596,-12.5 12.5,-12.5Z" style="fill:#fc2513;fill-rule:nonzero;"/><path d="M875,1062.5l0,-12.5l25,0l0,12.5c0,6.903 -5.597,12.5 -12.5,12.5c-6.904,0 -12.5,-5.597 -12.5,-12.5Z" style="fill:#fc2513;fill-rule:nonzero;"/><path d="M937.5,1050l12.5,0l0,25l-12.5,0c-6.906,0 -12.5,-5.599 -12.5,-12.5c0,-6.902 5.594,-12.5 12.5,-12.5Z" style="fill:#fc2513;fill-rule:nonzero;"/><rect x="950" y="1050" width="25" height="25" style="fill:#fc2513;"/><rect x="975" y="1050" width="25" height="25" style="fill:#fc2513;"/><path d="M1025,1050l-25,0l0,25c13.807,0 25,-11.193 25,-25Z" style="fill:#fc2513;fill-rule:nonzero;"/><g><path d="M165.253,76.264l-55.506,0c-7.144,0 -13.771,2.201 -19.214,5.947c-4.233,2.913 -7.749,6.761 -10.234,11.236c-2.583,4.65 -4.049,9.974 -4.049,15.63l0,56.824c0,18.102 15.025,32.83 33.504,32.83l27.746,0.005l27.746,-0.007c18.478,0 33.504,-14.728 33.504,-32.828l0,-56.824c0,-18.094 -15.026,-32.813 -33.497,-32.813Z" style="fill:none;fill-rule:nonzero;"/><path d="M165.253,50.014l-55.506,0c-27.052,0 -49.97,17.873 -57.297,42.301c-0.758,2.527 -1.349,5.124 -1.761,7.779c-0.453,2.929 -0.689,5.929 -0.689,8.983l0,56.824c0,32.583 26.81,59.08 59.747,59.08l27.753,0.005l27.753,-0.007c32.935,0 59.747,-26.497 59.747,-59.08l0,-56.822c0,-32.568 -26.81,-59.063 -59.747,-59.063Zm33.497,115.887c0,18.102 -15.025,32.83 -33.504,32.83l-27.746,0.005l-27.746,-0.007c-18.478,0 -33.504,-14.728 -33.504,-32.828l0,-56.824c0,-5.655 1.466,-10.978 4.048,-15.63c2.485,-4.474 6,-8.323 10.234,-11.236c5.442,-3.747 12.07,-5.947 19.213,-5.947l55.508,0c18.471,0 33.497,14.719 33.497,32.813l0,56.824Z" style="fill:#fc2513;fill-rule:nonzero;"/></g><g><path d="M1015.25,76.264l-55.506,0c-7.144,0 -13.771,2.201 -19.214,5.947c-4.233,2.913 -7.749,6.761 -10.234,11.236c-2.583,4.65 -4.049,9.974 -4.049,15.63l0,56.824c0,18.102 15.025,32.83 33.504,32.83l27.746,0.005l27.746,-0.007c18.478,0 33.504,-14.728 33.504,-32.828l0,-56.824c0,-18.094 -15.025,-32.813 -33.497,-32.813Z" style="fill:none;fill-rule:nonzero;"/><path d="M1015.25,50.014l-55.506,0c-27.052,0 -49.97,17.873 -57.297,42.301c-0.758,2.527 -1.349,5.124 -1.761,7.779c-0.453,2.929 -0.689,5.929 -0.689,8.983l0,56.824c0,32.583 26.81,59.08 59.747,59.08l27.753,0.005l27.753,-0.007c32.935,0 59.747,-26.497 59.747,-59.08l0,-56.822c0,-32.568 -26.81,-59.063 -59.747,-59.063Zm33.497,115.887c0,18.102 -15.026,32.83 -33.504,32.83l-27.746,0.005l-27.746,-0.007c-18.479,0 -33.504,-14.728 -33.504,-32.828l0,-56.824c0,-5.655 1.466,-10.978 4.048,-15.63c2.485,-4.474 6,-8.323 10.234,-11.236c5.442,-3.747 12.069,-5.947 19.213,-5.947l55.508,0c18.471,0 33.497,14.719 33.497,32.813l0,56.824Z" style="fill:#fc2513;fill-rule:nonzero;"/></g><g><path d="M165.253,926.264l-55.506,0c-7.144,0 -13.771,2.202 -19.214,5.947c-4.233,2.913 -7.749,6.761 -10.234,11.236c-2.583,4.65 -4.049,9.973 -4.049,15.63l0,56.824c0,18.102 15.025,32.83 33.504,32.83l27.746,0.005l27.746,-0.007c18.478,0 33.504,-14.728 33.504,-32.828l0,-56.825c0,-18.093 -15.026,-32.812 -33.497,-32.812Z" style="fill:none;fill-rule:nonzero;"/><path d="M165.253,900.014l-55.506,0c-27.052,0 -49.97,17.873 -57.297,42.301c-0.758,2.527 -1.349,5.124 -1.761,7.779c-0.453,2.929 -0.689,5.929 -0.689,8.982l0,56.825c0,32.583 26.81,59.08 59.747,59.08l27.753,0.005l27.753,-0.007c32.935,0 59.747,-26.497 59.747,-59.08l0,-56.822c0,-32.568 -26.81,-59.063 -59.747,-59.063Zm33.497,115.887c0,18.102 -15.025,32.83 -33.504,32.83l-27.746,0.005l-27.746,-0.007c-18.478,0 -33.504,-14.728 -33.504,-32.828l0,-56.825c0,-5.654 1.466,-10.977 4.048,-15.629c2.485,-4.475 6,-8.323 10.234,-11.236c5.442,-3.747 12.07,-5.947 19.213,-5.947l55.508,0c18.471,0 33.497,14.719 33.497,32.813l0,56.824Z" style="fill:#fc2513;fill-rule:nonzero;"/></g><g id="XMLID_1_"><path d="M120.513,175c-11.317,0 -20.523,-9.024 -20.523,-20.106l-0.001,-34.799c0.001,-3.462 0.9,-6.719 2.476,-9.57c1.522,-2.744 3.676,-5.102 6.27,-6.881c3.332,-2.293 7.395,-3.644 11.767,-3.644l33.995,0c11.307,0 20.513,9.013 20.513,20.095l0,34.798c0,11.082 -9.205,20.106 -20.513,20.106l-16.997,0l-16.987,0l0,0.001Z" style="fill:#fc2513;fill-rule:nonzero;"/></g><g id="XMLID_1_1" serif:id="XMLID_1_"><path d="M970.513,175c-11.317,0 -20.524,-9.024 -20.524,-20.106l0,-34.799c0,-3.462 0.9,-6.719 2.476,-9.57c1.522,-2.744 3.676,-5.102 6.27,-6.881c3.332,-2.293 7.394,-3.644 11.767,-3.644l33.995,0c11.307,0 20.514,9.013 20.514,20.095l0,34.798c0,11.082 -9.206,20.106 -20.514,20.106l-16.997,0l-16.987,0l0,0.001Z" style="fill:#fc2513;fill-rule:nonzero;"/></g><g id="XMLID_1_2" serif:id="XMLID_1_"><path d="M120.513,1025c-11.317,0 -20.523,-9.024 -20.523,-20.106l-0.001,-34.798c0.001,-3.462 0.9,-6.721 2.476,-9.571c1.522,-2.744 3.676,-5.102 6.27,-6.881c3.332,-2.293 7.395,-3.644 11.767,-3.644l33.995,0c11.307,0 20.513,9.014 20.513,20.095l0,34.798c0,11.082 -9.205,20.106 -20.513,20.106l-16.997,0l-16.987,0l0,0.001Z" style="fill:#fc2513;fill-rule:nonzero;"/></g></g><g><path d="M440.63,542.375l-33.756,10.178l27.071,121.042l34.59,-10.65l-11.887,-52.779l43.03,43.345l39.39,-11.802l-52.787,-48.985l25.054,-72.448l-38.615,11.547l-18.935,64.715l-13.155,-54.163Z" style="fill:#fc2513;"/><path d="M573.576,501.4l33.644,-10.246l34.48,73.013l-4.093,-82.251l38.979,-12.476l31.502,73.86l-1.154,-83.185l33.747,-10.202l-3.427,130.632l-38.36,11.808l-33.785,-80.546l5.473,89.453l-39.053,11.095l-57.953,-110.955Z" style="fill:#fc2513;"/><g><path d="M584.059,564.393c-13.808,3.137 -19.633,10.924 -23.422,22.479c-8.604,-8.739 -17.34,-13.219 -31.148,-10.082c-16.389,3.723 -26.81,19.027 -23.23,34.114c2.189,9.223 7.573,16.822 16.946,23.915c13.565,10.264 33.45,17.939 54.029,29.651c1.16,0.659 2.703,0.309 3.447,-0.783c21.376,-31.393 45.865,-52.396 39.625,-78.692c-3.58,-15.087 -19.84,-24.329 -36.247,-20.602Zm-6.227,94.94c-32.202,-17.967 -61.142,-26.116 -66.699,-49.537c-2.993,-12.613 5.719,-25.406 19.42,-28.519c11.625,-2.641 19.014,0.361 29.282,11.895c1.288,1.446 3.854,0.865 4.36,-0.99c4.023,-14.781 9.305,-20.661 20.929,-23.302c13.719,-3.117 27.315,4.609 30.308,17.222c5.556,23.415 -16.756,43.181 -37.6,73.231Z" style="fill:#fc2513;fill-rule:nonzero;stroke:#fc2513;stroke-width:19px;"/></g></g></svg>