<?xml version="1.0" encoding="UTF-8" standalone="no"?><!DOCTYPE svg PUBLIC "-//W3C//DTD SVG 1.1//EN" "http://www.w3.org/Graphics/SVG/1.1/DTD/svg11.dtd"><svg width="100%" height="100%" viewBox="0 0 100 100" version="1.1" xmlns="http://www.w3.org/2000/svg" xmlns:xlink="http://www.w3.org/1999/xlink" xml:space="preserve" xmlns:serif="http://www.serif.com/" style="fill-rule:evenodd;clip-rule:evenodd;stroke-linejoin:round;stroke-miterlimit:2;"><g><path d="M65.183,5l-34,0c-6.065,0 -11,4.935 -11,11l0,68c0,6.065 4.935,11 11,11l34,0c6.065,0 11,-4.935 11,-11l0,-68c0,-6.065 -4.935,-11 -11,-11Zm5,79c0,2.757 -2.243,5 -5,5l-34,0c-2.757,0 -5,-2.243 -5,-5l0,-68c0,-2.757 2.243,-5 5,-5l34,0c2.757,0 5,2.243 5,5l0,68Z" style="fill-rule:nonzero;"/><path d="M48.183,71.5c-3.866,0 -7,3.134 -7,7c0,3.866 3.134,7 7,7c3.866,0 7,-3.134 7,-7c0,-3.866 -3.134,-7 -7,-7Zm0,9c-1.103,0 -2,-0.897 -2,-2c0,-1.103 0.897,-2 2,-2c1.103,0 2,0.897 2,2c0,1.103 -0.898,2 -2,2Z" style="fill-rule:nonzero;"/><path d="M45.183,21l6,0c1.381,0 2.5,-1.119 2.5,-2.5c0,-1.381 -1.119,-2.5 -2.5,-2.5l-6,0c-1.381,0 -2.5,1.119 -2.5,2.5c0,1.381 1.119,2.5 2.5,2.5Z" style="fill-rule:nonzero;"/><path d="M50.095,45.036c-4.408,-1.13 -5.501,-1.676 -5.501,-3.352l0,-0.072c0,-1.239 1.13,-2.222 3.279,-2.222c1.749,0 3.497,0.619 5.355,1.712c0.437,0.255 0.875,0.401 1.421,0.401c1.456,0 2.622,-1.13 2.622,-2.587c0,-1.093 -0.618,-1.858 -1.238,-2.222c-1.611,-1.023 -3.424,-1.714 -5.431,-2.041l0,-2.647c0,-1.381 -1.119,-2.5 -2.5,-2.5c-1.381,0 -2.5,1.119 -2.5,2.5l0,2.66c-3.942,0.783 -6.581,3.559 -6.581,7.455l0,0.073c0,5.063 3.316,6.484 8.451,7.796c4.263,1.093 5.137,1.822 5.137,3.242l0,0.073c0,1.493 -1.384,2.404 -3.679,2.404c-2.477,0 -4.591,-0.874 -6.521,-2.295c-0.364,-0.255 -0.875,-0.51 -1.603,-0.51c-1.458,0 -2.623,1.129 -2.623,2.587c0,0.874 0.437,1.676 1.057,2.112c1.93,1.385 4.112,2.288 6.363,2.733l0,2.658c0,1.381 1.119,2.5 2.5,2.5c1.381,0 2.5,-1.119 2.5,-2.5l0,-2.442c4.533,-0.559 7.581,-3.297 7.581,-7.794l0,-0.072c-0.001,-4.445 -2.916,-6.302 -8.089,-7.65Z" style="fill-rule:nonzero;"/></g></svg>